<ttFont>
<head>
    <!-- Most of this table will be recalculated by the compiler -->
    <tableVersion value="1.0"/>
    <fontRevision value="1.0"/>
    <checkSumAdjustment value="0xb2e59d9e"/>
    <magicNumber value="0x5f0f3cf5"/>
    <flags value="00000000 00011111"/>
    <unitsPerEm value="2048"/>
    <created value="Fri May  9 16:03:06 1997"/>
    <modified value="Fri May 10 13:26:19 2002"/>
    <xMin value="-464"/>
    <yMin value="-1068"/>
    <xMax value="3456"/>
    <yMax value="2155"/>
    <macStyle value="00000000 00000000"/>
    <lowestRecPPEM value="6"/>
    <fontDirectionHint value="2"/>
    <indexToLocFormat value="1"/>
    <glyphDataFormat value="0"/>
  </head>
    <TTGlyph name=".notdef" xMin="44" yMin="0" xMax="393" yMax="1638">
      <contour>
        <pt x="44" y="0" on="1"/>
        <pt x="44" y="1638" on="1"/>
        <pt x="393" y="1638" on="1"/>
        <pt x="393" y="0" on="1"/>
      </contour>
      <contour>
        <pt x="349" y="44" on="1"/>
        <pt x="349" y="1594" on="1"/>
        <pt x="88" y="1594" on="1"/>
        <pt x="88" y="44" on="1"/>
      </contour>
    </TTGlyph>
    <TTGlyph name=".notdef#10" xMin="300" yMin="1755" xMax="601" yMax="1994">
      <contour>
        <pt x="300" y="1843" on="1"/>
        <pt x="302" y="1866" on="0"/>
        <pt x="319" y="1881" on="1"/>
        <pt x="319" y="1887" on="0"/>
        <pt x="319" y="1891" on="1"/>
        <pt x="319" y="1908" on="0"/>
        <pt x="325" y="1916" on="1"/>
        <pt x="345" y="1944" on="0"/>
        <pt x="380" y="1967" on="1"/>
        <pt x="392" y="1975" on="0"/>
        <pt x="431" y="1984" on="1"/>
        <pt x="468" y="1994" on="1"/>
        <pt x="491" y="1989" on="1"/>
        <pt x="514" y="1990" on="1"/>
        <pt x="523" y="1990" on="0"/>
        <pt x="562" y="1970" on="1"/>
        <pt x="584" y="1959" on="0"/>
        <pt x="592" y="1921" on="1"/>
        <pt x="601" y="1901" on="0"/>
        <pt x="601" y="1895" on="1"/>
        <pt x="601" y="1858" on="0"/>
        <pt x="598" y="1846" on="1"/>
        <pt x="597" y="1842" on="0"/>
        <pt x="584" y="1828" on="1"/>
        <pt x="565" y="1799" on="0"/>
        <pt x="563" y="1797" on="1"/>
        <pt x="553" y="1791" on="0"/>
        <pt x="485" y="1766" on="1"/>
        <pt x="443" y="1755" on="0"/>
        <pt x="431" y="1755" on="1"/>
        <pt x="418" y="1755" on="0"/>
        <pt x="401" y="1756" on="1"/>
        <pt x="401" y="1763" on="1"/>
        <pt x="371" y="1758" on="1"/>
        <pt x="350" y="1781" on="0"/>
        <pt x="322" y="1796" on="1"/>
        <pt x="322" y="1825" on="1"/>
      </contour>
      <contour>
        <pt x="425" y="1817" on="1"/>
        <pt x="452" y="1814" on="0"/>
        <pt x="460" y="1810" on="1"/>
        <pt x="471" y="1806" on="0"/>
        <pt x="474" y="1806" on="1"/>
        <pt x="475" y="1806" on="1"/>
        <pt x="499" y="1823" on="1"/>
        <pt x="515" y="1829" on="1"/>
        <pt x="517" y="1851" on="0"/>
        <pt x="518" y="1859" on="1"/>
        <pt x="519" y="1868" on="0"/>
        <pt x="519" y="1872" on="1"/>
        <pt x="519" y="1885" on="0"/>
        <pt x="494" y="1916" on="1"/>
        <pt x="484" y="1929" on="0"/>
        <pt x="482" y="1932" on="1"/>
        <pt x="476" y="1938" on="0"/>
        <pt x="457" y="1941" on="1"/>
        <pt x="457" y="1948" on="1"/>
        <pt x="384" y="1925" on="0"/>
        <pt x="384" y="1893" on="1"/>
        <pt x="384" y="1876" on="0"/>
      </contour>
    </TTGlyph>
    <TTGlyph name=".notdef#11" xMin="76" yMin="1748" xMax="762" yMax="2155">
      <contour>
        <pt x="76" y="1754" on="1"/>
        <pt x="94" y="1790" on="0"/>
        <pt x="105" y="1797" on="1"/>
        <pt x="165" y="1830" on="1"/>
        <pt x="166" y="1830" on="0"/>
        <pt x="173" y="1842" on="1"/>
        <pt x="189" y="1867" on="0"/>
        <pt x="220" y="1892" on="1"/>
        <pt x="243" y="1911" on="0"/>
        <pt x="262" y="1947" on="1"/>
        <pt x="280" y="1964" on="0"/>
        <pt x="297" y="1982" on="1"/>
        <pt x="303" y="1987" on="0"/>
        <pt x="320" y="2009" on="1"/>
        <pt x="351" y="2049" on="0"/>
        <pt x="365" y="2052" on="1"/>
        <pt x="392" y="2064" on="1"/>
        <pt x="408" y="2080" on="1"/>
        <pt x="441" y="2099" on="0"/>
        <pt x="449" y="2107" on="1"/>
        <pt x="459" y="2119" on="0"/>
        <pt x="476" y="2126" on="1"/>
        <pt x="487" y="2155" on="0"/>
        <pt x="502" y="2155" on="1"/>
        <pt x="522" y="2155" on="0"/>
        <pt x="522" y="2127" on="1"/>
        <pt x="522" y="2118" on="0"/>
        <pt x="499" y="2094" on="1"/>
        <pt x="494" y="2089" on="0"/>
        <pt x="494" y="2080" on="1"/>
        <pt x="494" y="2067" on="0"/>
        <pt x="510" y="2046" on="1"/>
        <pt x="506" y="2015" on="1"/>
        <pt x="525" y="2004" on="0"/>
        <pt x="553" y="1998" on="1"/>
        <pt x="565" y="1981" on="0"/>
        <pt x="571" y="1976" on="1"/>
        <pt x="615" y="1934" on="0"/>
        <pt x="615" y="1924" on="1"/>
        <pt x="615" y="1912" on="0"/>
        <pt x="609" y="1896" on="1"/>
        <pt x="627" y="1887" on="0"/>
        <pt x="633" y="1886" on="1"/>
        <pt x="658" y="1879" on="0"/>
        <pt x="664" y="1874" on="1"/>
        <pt x="678" y="1861" on="0"/>
        <pt x="681" y="1827" on="1"/>
        <pt x="694" y="1824" on="1"/>
        <pt x="695" y="1824" on="1"/>
        <pt x="701" y="1824" on="0"/>
        <pt x="725" y="1830" on="1"/>
        <pt x="732" y="1832" on="0"/>
        <pt x="755" y="1836" on="1"/>
        <pt x="762" y="1829" on="1"/>
        <pt x="749" y="1806" on="0"/>
        <pt x="740" y="1795" on="1"/>
        <pt x="737" y="1792" on="0"/>
        <pt x="693" y="1763" on="1"/>
        <pt x="670" y="1748" on="0"/>
        <pt x="653" y="1748" on="1"/>
        <pt x="642" y="1748" on="0"/>
        <pt x="618" y="1754" on="1"/>
        <pt x="616" y="1775" on="1"/>
        <pt x="589" y="1790" on="0"/>
        <pt x="573" y="1790" on="1"/>
        <pt x="569" y="1790" on="0"/>
        <pt x="562" y="1790" on="1"/>
        <pt x="549" y="1813" on="0"/>
        <pt x="542" y="1820" on="1"/>
        <pt x="535" y="1830" on="0"/>
        <pt x="507" y="1834" on="1"/>
        <pt x="488" y="1859" on="0"/>
        <pt x="464" y="1869" on="1"/>
        <pt x="469" y="1915" on="1"/>
        <pt x="446" y="1915" on="0"/>
        <pt x="443" y="1919" on="1"/>
        <pt x="403" y="1972" on="1"/>
        <pt x="398" y="1979" on="0"/>
        <pt x="363" y="1979" on="1"/>
        <pt x="347" y="1979" on="0"/>
        <pt x="340" y="1975" on="1"/>
        <pt x="339" y="1960" on="0"/>
        <pt x="321" y="1946" on="1"/>
        <pt x="315" y="1941" on="0"/>
        <pt x="301" y="1923" on="1"/>
        <pt x="298" y="1920" on="0"/>
        <pt x="288" y="1907" on="1"/>
        <pt x="276" y="1893" on="0"/>
        <pt x="256" y="1857" on="1"/>
        <pt x="256" y="1856" on="0"/>
        <pt x="232" y="1827" on="1"/>
        <pt x="224" y="1818" on="0"/>
        <pt x="201" y="1804" on="1"/>
        <pt x="172" y="1775" on="0"/>
        <pt x="162" y="1770" on="1"/>
        <pt x="124" y="1749" on="0"/>
        <pt x="100" y="1749" on="1"/>
        <pt x="93" y="1749" on="0"/>
      </contour>
    </TTGlyph>
    <TTGlyph name=".notdef#12" xMin="66" yMin="1766" xMax="769" yMax="1982">
      <contour>
        <pt x="66" y="1790" on="1"/>
        <pt x="67" y="1820" on="0"/>
        <pt x="172" y="1879" on="1"/>
        <pt x="212" y="1914" on="0"/>
        <pt x="224" y="1922" on="1"/>
        <pt x="232" y="1927" on="0"/>
        <pt x="266" y="1940" on="1"/>
        <pt x="345" y="1979" on="1"/>
        <pt x="353" y="1982" on="0"/>
        <pt x="366" y="1982" on="1"/>
        <pt x="397" y="1982" on="0"/>
        <pt x="431" y="1961" on="1"/>
        <pt x="443" y="1954" on="0"/>
        <pt x="449" y="1929" on="1"/>
        <pt x="457" y="1931" on="0"/>
        <pt x="463" y="1931" on="1"/>
        <pt x="469" y="1931" on="0"/>
        <pt x="478" y="1920" on="1"/>
        <pt x="485" y="1912" on="0"/>
        <pt x="538" y="1884" on="1"/>
        <pt x="545" y="1884" on="0"/>
        <pt x="562" y="1895" on="1"/>
        <pt x="574" y="1877" on="0"/>
        <pt x="587" y="1877" on="1"/>
        <pt x="595" y="1877" on="0"/>
        <pt x="659" y="1916" on="1"/>
        <pt x="665" y="1942" on="0"/>
        <pt x="677" y="1950" on="1"/>
        <pt x="686" y="1955" on="0"/>
        <pt x="715" y="1961" on="1"/>
        <pt x="725" y="1962" on="0"/>
        <pt x="740" y="1975" on="1"/>
        <pt x="762" y="1963" on="0"/>
        <pt x="769" y="1947" on="1"/>
        <pt x="720" y="1908" on="0"/>
        <pt x="703" y="1886" on="1"/>
        <pt x="685" y="1862" on="0"/>
        <pt x="660" y="1851" on="1"/>
        <pt x="648" y="1845" on="0"/>
        <pt x="643" y="1831" on="1"/>
        <pt x="618" y="1823" on="0"/>
        <pt x="590" y="1805" on="1"/>
        <pt x="572" y="1794" on="0"/>
        <pt x="549" y="1789" on="1"/>
        <pt x="534" y="1766" on="0"/>
        <pt x="521" y="1766" on="1"/>
        <pt x="505" y="1766" on="0"/>
        <pt x="465" y="1786" on="1"/>
        <pt x="440" y="1798" on="0"/>
        <pt x="414" y="1809" on="1"/>
        <pt x="401" y="1837" on="0"/>
        <pt x="389" y="1837" on="1"/>
        <pt x="389" y="1837" on="1"/>
        <pt x="367" y="1827" on="1"/>
        <pt x="351" y="1849" on="0"/>
        <pt x="330" y="1858" on="1"/>
        <pt x="308" y="1867" on="0"/>
        <pt x="302" y="1867" on="1"/>
        <pt x="295" y="1867" on="0"/>
        <pt x="280" y="1860" on="1"/>
        <pt x="269" y="1855" on="0"/>
        <pt x="263" y="1855" on="1"/>
        <pt x="258" y="1855" on="0"/>
        <pt x="248" y="1859" on="1"/>
        <pt x="221" y="1836" on="0"/>
        <pt x="199" y="1827" on="1"/>
        <pt x="186" y="1839" on="1"/>
        <pt x="170" y="1833" on="0"/>
        <pt x="161" y="1833" on="1"/>
        <pt x="160" y="1833" on="0"/>
        <pt x="157" y="1833" on="1"/>
        <pt x="151" y="1827" on="1"/>
        <pt x="153" y="1814" on="0"/>
        <pt x="153" y="1805" on="1"/>
        <pt x="153" y="1794" on="0"/>
        <pt x="145" y="1786" on="1"/>
        <pt x="143" y="1784" on="0"/>
        <pt x="111" y="1782" on="1"/>
        <pt x="109" y="1782" on="0"/>
        <pt x="93" y="1779" on="1"/>
        <pt x="87" y="1778" on="0"/>
        <pt x="83" y="1778" on="1"/>
        <pt x="75" y="1778" on="0"/>
      </contour>
    </TTGlyph>
    <TTGlyph name=".notdef#4" xMin="98" yMin="1742" xMax="784" yMax="2153">
      <contour>
        <pt x="98" y="2074" on="1"/>
        <pt x="98" y="2081" on="0"/>
        <pt x="124" y="2109" on="1"/>
        <pt x="187" y="2152" on="0"/>
        <pt x="201" y="2152" on="1"/>
        <pt x="218" y="2152" on="0"/>
        <pt x="241" y="2147" on="1"/>
        <pt x="245" y="2127" on="1"/>
        <pt x="265" y="2115" on="0"/>
        <pt x="298" y="2111" on="1"/>
        <pt x="321" y="2079" on="1"/>
        <pt x="355" y="2064" on="1"/>
        <pt x="359" y="2065" on="0"/>
        <pt x="375" y="2042" on="1"/>
        <pt x="397" y="2036" on="1"/>
        <pt x="389" y="1992" on="1"/>
        <pt x="393" y="1988" on="1"/>
        <pt x="408" y="1988" on="0"/>
        <pt x="421" y="1983" on="1"/>
        <pt x="444" y="1942" on="0"/>
        <pt x="457" y="1930" on="1"/>
        <pt x="467" y="1921" on="0"/>
        <pt x="483" y="1921" on="1"/>
        <pt x="498" y="1921" on="0"/>
        <pt x="517" y="1924" on="1"/>
        <pt x="524" y="1942" on="0"/>
        <pt x="527" y="1945" on="1"/>
        <pt x="559" y="1977" on="1"/>
        <pt x="575" y="1998" on="1"/>
        <pt x="585" y="2011" on="1"/>
        <pt x="604" y="2043" on="1"/>
        <pt x="621" y="2064" on="0"/>
        <pt x="630" y="2077" on="1"/>
        <pt x="636" y="2085" on="0"/>
        <pt x="661" y="2099" on="1"/>
        <pt x="703" y="2136" on="0"/>
        <pt x="711" y="2140" on="1"/>
        <pt x="737" y="2153" on="0"/>
        <pt x="765" y="2153" on="1"/>
        <pt x="773" y="2153" on="0"/>
        <pt x="784" y="2148" on="1"/>
        <pt x="771" y="2121" on="0"/>
        <pt x="763" y="2112" on="1"/>
        <pt x="756" y="2104" on="0"/>
        <pt x="727" y="2090" on="1"/>
        <pt x="694" y="2076" on="0"/>
        <pt x="696" y="2071" on="1"/>
        <pt x="668" y="2034" on="1"/>
        <pt x="614" y="1985" on="1"/>
        <pt x="599" y="1956" on="1"/>
        <pt x="519" y="1869" on="0"/>
        <pt x="504" y="1850" on="1"/>
        <pt x="508" y="1835" on="0"/>
        <pt x="508" y="1824" on="1"/>
        <pt x="508" y="1816" on="0"/>
        <pt x="493" y="1806" on="1"/>
        <pt x="476" y="1787" on="1"/>
        <pt x="451" y="1774" on="1"/>
        <pt x="417" y="1742" on="0"/>
        <pt x="407" y="1742" on="1"/>
        <pt x="378" y="1742" on="0"/>
        <pt x="374" y="1786" on="1"/>
        <pt x="363" y="1807" on="0"/>
        <pt x="363" y="1815" on="1"/>
        <pt x="363" y="1825" on="0"/>
        <pt x="365" y="1837" on="1"/>
        <pt x="349" y="1853" on="0"/>
        <pt x="349" y="1862" on="1"/>
        <pt x="349" y="1873" on="0"/>
        <pt x="355" y="1887" on="1"/>
        <pt x="331" y="1897" on="0"/>
        <pt x="323" y="1899" on="1"/>
        <pt x="310" y="1902" on="0"/>
        <pt x="310" y="1903" on="1"/>
        <pt x="279" y="1935" on="1"/>
        <pt x="244" y="1971" on="0"/>
        <pt x="244" y="1979" on="1"/>
        <pt x="244" y="1991" on="0"/>
        <pt x="249" y="2007" on="1"/>
        <pt x="229" y="2015" on="0"/>
        <pt x="222" y="2017" on="1"/>
        <pt x="188" y="2028" on="0"/>
        <pt x="182" y="2051" on="1"/>
        <pt x="178" y="2068" on="0"/>
        <pt x="171" y="2077" on="1"/>
        <pt x="105" y="2067" on="1"/>
      </contour>
    </TTGlyph>
    <TTGlyph name=".notdef#5" xMin="162" yMin="926" xMax="676" yMax="1125">
      <contour>
        <pt x="162" y="1025" on="1"/>
        <pt x="164" y="1039" on="0"/>
        <pt x="177" y="1049" on="1"/>
        <pt x="217" y="1078" on="0"/>
        <pt x="223" y="1085" on="1"/>
        <pt x="255" y="1125" on="0"/>
        <pt x="264" y="1125" on="1"/>
        <pt x="269" y="1125" on="0"/>
        <pt x="300" y="1105" on="1"/>
        <pt x="301" y="1102" on="0"/>
        <pt x="329" y="1090" on="1"/>
        <pt x="367" y="1074" on="0"/>
        <pt x="380" y="1059" on="1"/>
        <pt x="388" y="1049" on="0"/>
        <pt x="394" y="1026" on="1"/>
        <pt x="386" y="1014" on="0"/>
        <pt x="374" y="990" on="1"/>
        <pt x="370" y="980" on="0"/>
        <pt x="337" y="955" on="1"/>
        <pt x="323" y="943" on="0"/>
        <pt x="313" y="926" on="1"/>
        <pt x="291" y="933" on="0"/>
        <pt x="287" y="936" on="1"/>
        <pt x="255" y="967" on="1"/>
        <pt x="216" y="997" on="0"/>
        <pt x="202" y="1017" on="1"/>
        <pt x="188" y="1020" on="0"/>
        <pt x="183" y="1020" on="1"/>
        <pt x="169" y="1020" on="0"/>
      </contour>
      <contour>
        <pt x="452" y="1040" on="1"/>
        <pt x="482" y="1067" on="0"/>
        <pt x="493" y="1074" on="1"/>
        <pt x="516" y="1090" on="0"/>
        <pt x="530" y="1102" on="1"/>
        <pt x="541" y="1113" on="0"/>
        <pt x="560" y="1124" on="1"/>
        <pt x="584" y="1107" on="0"/>
        <pt x="645" y="1071" on="1"/>
        <pt x="676" y="1053" on="0"/>
        <pt x="676" y="1035" on="1"/>
        <pt x="676" y="1014" on="0"/>
        <pt x="652" y="985" on="1"/>
        <pt x="649" y="980" on="0"/>
        <pt x="586" y="931" on="1"/>
        <pt x="575" y="935" on="0"/>
        <pt x="556" y="955" on="1"/>
        <pt x="513" y="994" on="1"/>
        <pt x="485" y="1026" on="0"/>
        <pt x="477" y="1029" on="1"/>
        <pt x="458" y="1036" on="0"/>
      </contour>
    </TTGlyph>
    <TTGlyph name=".notdef#6" xMin="138" yMin="1771" xMax="697" yMax="1973">
      <contour>
        <pt x="138" y="1874" on="1"/>
        <pt x="143" y="1887" on="0"/>
        <pt x="144" y="1888" on="1"/>
        <pt x="202" y="1934" on="1"/>
        <pt x="232" y="1973" on="0"/>
        <pt x="240" y="1973" on="1"/>
        <pt x="244" y="1973" on="0"/>
        <pt x="277" y="1952" on="1"/>
        <pt x="342" y="1921" on="0"/>
        <pt x="356" y="1906" on="1"/>
        <pt x="369" y="1892" on="0"/>
        <pt x="369" y="1880" on="1"/>
        <pt x="369" y="1878" on="0"/>
        <pt x="358" y="1856" on="1"/>
        <pt x="347" y="1830" on="1"/>
        <pt x="302" y="1790" on="0"/>
        <pt x="289" y="1771" on="1"/>
        <pt x="267" y="1779" on="0"/>
        <pt x="263" y="1782" on="1"/>
        <pt x="226" y="1817" on="1"/>
        <pt x="198" y="1838" on="1"/>
        <pt x="174" y="1864" on="0"/>
        <pt x="169" y="1865" on="1"/>
        <pt x="149" y="1866" on="0"/>
      </contour>
      <contour>
        <pt x="478" y="1883" on="1"/>
        <pt x="478" y="1889" on="1"/>
        <pt x="497" y="1906" on="0"/>
        <pt x="545" y="1942" on="1"/>
        <pt x="554" y="1948" on="0"/>
        <pt x="580" y="1972" on="1"/>
        <pt x="599" y="1960" on="0"/>
        <pt x="605" y="1956" on="1"/>
        <pt x="697" y="1902" on="0"/>
        <pt x="697" y="1882" on="1"/>
        <pt x="697" y="1866" on="0"/>
        <pt x="680" y="1839" on="1"/>
        <pt x="668" y="1821" on="0"/>
        <pt x="616" y="1784" on="1"/>
        <pt x="610" y="1780" on="0"/>
        <pt x="606" y="1780" on="1"/>
        <pt x="601" y="1780" on="0"/>
        <pt x="572" y="1811" on="1"/>
        <pt x="535" y="1843" on="0"/>
        <pt x="514" y="1868" on="1"/>
        <pt x="508" y="1875" on="0"/>
      </contour>
    </TTGlyph>
    <TTGlyph name=".notdef#7" xMin="243" yMin="1774" xMax="509" yMax="2040">
      <contour>
        <pt x="243" y="2026" on="1"/>
        <pt x="261" y="2040" on="0"/>
        <pt x="271" y="2039" on="1"/>
        <pt x="312" y="2034" on="1"/>
        <pt x="380" y="2031" on="0"/>
        <pt x="396" y="2028" on="1"/>
        <pt x="414" y="2023" on="0"/>
        <pt x="436" y="2005" on="1"/>
        <pt x="419" y="1983" on="1"/>
        <pt x="425" y="1964" on="0"/>
        <pt x="427" y="1958" on="1"/>
        <pt x="434" y="1931" on="0"/>
        <pt x="436" y="1927" on="1"/>
        <pt x="477" y="1861" on="1"/>
        <pt x="479" y="1857" on="0"/>
        <pt x="479" y="1851" on="1"/>
        <pt x="479" y="1842" on="0"/>
        <pt x="473" y="1824" on="1"/>
        <pt x="497" y="1816" on="0"/>
        <pt x="509" y="1808" on="1"/>
        <pt x="488" y="1774" on="1"/>
        <pt x="478" y="1774" on="0"/>
        <pt x="472" y="1774" on="1"/>
        <pt x="455" y="1774" on="0"/>
        <pt x="431" y="1780" on="1"/>
        <pt x="418" y="1818" on="0"/>
        <pt x="408" y="1833" on="1"/>
        <pt x="403" y="1839" on="0"/>
        <pt x="380" y="1863" on="1"/>
        <pt x="355" y="1899" on="0"/>
        <pt x="350" y="1904" on="1"/>
        <pt x="347" y="1907" on="0"/>
        <pt x="310" y="1926" on="1"/>
        <pt x="285" y="1968" on="1"/>
        <pt x="255" y="2001" on="0"/>
      </contour>
    </TTGlyph>
    <TTGlyph name=".notdef#8" xMin="410" yMin="1757" xMax="657" yMax="2051">
      <contour>
        <pt x="488" y="1987" on="1"/>
        <pt x="490" y="1990" on="1"/>
        <pt x="490" y="1993" on="1"/>
        <pt x="479" y="1997" on="1"/>
        <pt x="489" y="2030" on="1"/>
        <pt x="648" y="2051" on="1"/>
        <pt x="657" y="2041" on="0"/>
        <pt x="657" y="2033" on="1"/>
        <pt x="657" y="2029" on="0"/>
        <pt x="640" y="2008" on="1"/>
        <pt x="634" y="2001" on="0"/>
        <pt x="620" y="1973" on="1"/>
        <pt x="609" y="1952" on="0"/>
        <pt x="561" y="1897" on="1"/>
        <pt x="555" y="1890" on="0"/>
        <pt x="538" y="1849" on="1"/>
        <pt x="524" y="1828" on="1"/>
        <pt x="506" y="1803" on="1"/>
        <pt x="481" y="1780" on="0"/>
        <pt x="464" y="1757" on="1"/>
        <pt x="412" y="1764" on="1"/>
        <pt x="412" y="1773" on="0"/>
        <pt x="410" y="1779" on="1"/>
        <pt x="410" y="1781" on="0"/>
        <pt x="410" y="1782" on="1"/>
        <pt x="410" y="1787" on="0"/>
        <pt x="423" y="1814" on="1"/>
        <pt x="443" y="1870" on="0"/>
        <pt x="448" y="1879" on="1"/>
        <pt x="452" y="1886" on="0"/>
        <pt x="470" y="1906" on="1"/>
        <pt x="498" y="1937" on="0"/>
        <pt x="498" y="1967" on="1"/>
        <pt x="498" y="1974" on="0"/>
      </contour>
    </TTGlyph>
    <TTGlyph name=".notdef#9" xMin="138" yMin="1771" xMax="697" yMax="1973">
      <contour>
        <pt x="138" y="1874" on="1"/>
        <pt x="143" y="1887" on="0"/>
        <pt x="144" y="1888" on="1"/>
        <pt x="202" y="1934" on="1"/>
        <pt x="232" y="1973" on="0"/>
        <pt x="240" y="1973" on="1"/>
        <pt x="244" y="1973" on="0"/>
        <pt x="277" y="1952" on="1"/>
        <pt x="342" y="1921" on="0"/>
        <pt x="356" y="1906" on="1"/>
        <pt x="369" y="1892" on="0"/>
        <pt x="369" y="1880" on="1"/>
        <pt x="369" y="1878" on="0"/>
        <pt x="358" y="1856" on="1"/>
        <pt x="347" y="1830" on="1"/>
        <pt x="302" y="1790" on="0"/>
        <pt x="289" y="1771" on="1"/>
        <pt x="267" y="1779" on="0"/>
        <pt x="263" y="1782" on="1"/>
        <pt x="226" y="1817" on="1"/>
        <pt x="198" y="1838" on="1"/>
        <pt x="174" y="1864" on="0"/>
        <pt x="169" y="1865" on="1"/>
        <pt x="149" y="1866" on="0"/>
      </contour>
      <contour>
        <pt x="478" y="1883" on="1"/>
        <pt x="478" y="1889" on="1"/>
        <pt x="497" y="1906" on="0"/>
        <pt x="545" y="1942" on="1"/>
        <pt x="554" y="1948" on="0"/>
        <pt x="580" y="1972" on="1"/>
        <pt x="599" y="1960" on="0"/>
        <pt x="605" y="1956" on="1"/>
        <pt x="697" y="1902" on="0"/>
        <pt x="697" y="1882" on="1"/>
        <pt x="697" y="1866" on="0"/>
        <pt x="680" y="1839" on="1"/>
        <pt x="668" y="1821" on="0"/>
        <pt x="616" y="1784" on="1"/>
        <pt x="610" y="1780" on="0"/>
        <pt x="606" y="1780" on="1"/>
        <pt x="601" y="1780" on="0"/>
        <pt x="572" y="1811" on="1"/>
        <pt x="535" y="1843" on="0"/>
        <pt x="514" y="1868" on="1"/>
        <pt x="508" y="1875" on="0"/>
      </contour>
    </TTGlyph>
    <TTGlyph name="A" xMin="0" yMin="-340" xMax="1999" yMax="1605">
      <contour>
        <pt x="0" y="-274" on="1"/>
        <pt x="7" y="-261" on="0"/>
        <pt x="9" y="-259" on="1"/>
        <pt x="38" y="-241" on="1"/>
        <pt x="49" y="-233" on="0"/>
        <pt x="78" y="-193" on="1"/>
        <pt x="81" y="-189" on="0"/>
        <pt x="101" y="-174" on="1"/>
        <pt x="112" y="-166" on="0"/>
        <pt x="120" y="-151" on="1"/>
        <pt x="119" y="-142" on="0"/>
        <pt x="119" y="-135" on="1"/>
        <pt x="119" y="-114" on="0"/>
        <pt x="146" y="-90" on="1"/>
        <pt x="184" y="-54" on="0"/>
        <pt x="192" y="-42" on="1"/>
        <pt x="247" y="58" on="1"/>
        <pt x="248" y="59" on="0"/>
        <pt x="266" y="64" on="1"/>
        <pt x="270" y="68" on="1"/>
        <pt x="269" y="79" on="0"/>
        <pt x="269" y="87" on="1"/>
        <pt x="269" y="99" on="0"/>
        <pt x="271" y="102" on="1"/>
        <pt x="296" y="135" on="1"/>
        <pt x="395" y="289" on="1"/>
        <pt x="397" y="299" on="1"/>
        <pt x="389" y="305" on="0"/>
        <pt x="385" y="305" on="1"/>
        <pt x="383" y="305" on="0"/>
        <pt x="374" y="303" on="1"/>
        <pt x="370" y="302" on="0"/>
        <pt x="364" y="302" on="1"/>
        <pt x="356" y="302" on="0"/>
        <pt x="345" y="303" on="1"/>
        <pt x="339" y="322" on="0"/>
        <pt x="339" y="331" on="1"/>
        <pt x="339" y="336" on="0"/>
        <pt x="352" y="354" on="1"/>
        <pt x="360" y="380" on="0"/>
        <pt x="369" y="394" on="1"/>
        <pt x="384" y="415" on="0"/>
        <pt x="393" y="428" on="1"/>
        <pt x="413" y="428" on="0"/>
        <pt x="421" y="425" on="1"/>
        <pt x="465" y="410" on="0"/>
        <pt x="465" y="410" on="1"/>
        <pt x="465" y="410" on="0"/>
        <pt x="468" y="412" on="1"/>
        <pt x="471" y="423" on="0"/>
        <pt x="471" y="428" on="1"/>
        <pt x="471" y="436" on="0"/>
        <pt x="466" y="451" on="1"/>
        <pt x="484" y="463" on="0"/>
        <pt x="486" y="468" on="1"/>
        <pt x="506" y="506" on="1"/>
        <pt x="513" y="520" on="0"/>
        <pt x="545" y="549" on="1"/>
        <pt x="548" y="573" on="0"/>
        <pt x="555" y="583" on="0"/>
        <pt x="590" y="614" on="1"/>
        <pt x="593" y="618" on="0"/>
        <pt x="613" y="668" on="1"/>
        <pt x="619" y="681" on="0"/>
        <pt x="668" y="754" on="1"/>
        <pt x="734" y="882" on="1"/>
        <pt x="761" y="911" on="1"/>
        <pt x="763" y="929" on="0"/>
        <pt x="767" y="935" on="0"/>
        <pt x="793" y="973" on="1"/>
        <pt x="795" y="976" on="0"/>
        <pt x="795" y="980" on="1"/>
        <pt x="795" y="987" on="0"/>
        <pt x="793" y="996" on="1"/>
        <pt x="802" y="1004" on="0"/>
        <pt x="812" y="1024" on="1"/>
        <pt x="821" y="1043" on="0"/>
        <pt x="831" y="1058" on="1"/>
        <pt x="851" y="1029" on="1"/>
        <pt x="856" y="1041" on="0"/>
        <pt x="856" y="1046" on="1"/>
        <pt x="856" y="1054" on="0"/>
        <pt x="848" y="1070" on="1"/>
        <pt x="858" y="1094" on="0"/>
        <pt x="863" y="1100" on="1"/>
        <pt x="882" y="1128" on="0"/>
        <pt x="882" y="1133" on="1"/>
        <pt x="883" y="1134" on="0"/>
        <pt x="883" y="1155" on="1"/>
        <pt x="883" y="1158" on="0"/>
        <pt x="894" y="1177" on="1"/>
        <pt x="898" y="1183" on="0"/>
        <pt x="914" y="1226" on="1"/>
        <pt x="916" y="1232" on="0"/>
        <pt x="925" y="1253" on="1"/>
        <pt x="968" y="1257" on="1"/>
        <pt x="964" y="1270" on="1"/>
        <pt x="938" y="1282" on="1"/>
        <pt x="938" y="1298" on="1"/>
        <pt x="953" y="1310" on="0"/>
        <pt x="960" y="1325" on="1"/>
        <pt x="949" y="1335" on="1"/>
        <pt x="949" y="1339" on="1"/>
        <pt x="964" y="1353" on="0"/>
        <pt x="978" y="1378" on="1"/>
        <pt x="991" y="1402" on="0"/>
        <pt x="1001" y="1418" on="1"/>
        <pt x="993" y="1432" on="0"/>
        <pt x="993" y="1441" on="1"/>
        <pt x="993" y="1448" on="1"/>
        <pt x="993" y="1458" on="1"/>
        <pt x="993" y="1479" on="1"/>
        <pt x="1074" y="1535" on="1"/>
        <pt x="1093" y="1521" on="1"/>
        <pt x="1103" y="1540" on="0"/>
        <pt x="1105" y="1546" on="1"/>
        <pt x="1112" y="1563" on="0"/>
        <pt x="1119" y="1563" on="1"/>
        <pt x="1126" y="1563" on="0"/>
        <pt x="1135" y="1559" on="1"/>
        <pt x="1140" y="1580" on="0"/>
        <pt x="1155" y="1590" on="1"/>
        <pt x="1175" y="1605" on="0"/>
        <pt x="1191" y="1605" on="1"/>
        <pt x="1221" y="1605" on="0"/>
        <pt x="1224" y="1532" on="1"/>
        <pt x="1235" y="1484" on="0"/>
        <pt x="1236" y="1466" on="1"/>
        <pt x="1240" y="1435" on="0"/>
        <pt x="1262" y="1396" on="1"/>
        <pt x="1275" y="1344" on="0"/>
        <pt x="1275" y="1328" on="1"/>
        <pt x="1275" y="1317" on="0"/>
        <pt x="1275" y="1304" on="1"/>
        <pt x="1235" y="1283" on="1"/>
        <pt x="1244" y="1263" on="0"/>
        <pt x="1252" y="1258" on="1"/>
        <pt x="1257" y="1256" on="0"/>
        <pt x="1297" y="1244" on="1"/>
        <pt x="1316" y="1238" on="0"/>
        <pt x="1337" y="1185" on="1"/>
        <pt x="1352" y="1148" on="0"/>
        <pt x="1352" y="1140" on="1"/>
        <pt x="1352" y="1134" on="0"/>
        <pt x="1340" y="1115" on="1"/>
        <pt x="1356" y="1099" on="0"/>
        <pt x="1361" y="1095" on="1"/>
        <pt x="1386" y="1073" on="0"/>
        <pt x="1388" y="1068" on="1"/>
        <pt x="1400" y="1037" on="1"/>
        <pt x="1420" y="987" on="1"/>
        <pt x="1423" y="981" on="0"/>
        <pt x="1425" y="954" on="1"/>
        <pt x="1456" y="922" on="0"/>
        <pt x="1460" y="888" on="1"/>
        <pt x="1463" y="861" on="0"/>
        <pt x="1463" y="860" on="1"/>
        <pt x="1485" y="826" on="1"/>
        <pt x="1489" y="818" on="0"/>
        <pt x="1527" y="742" on="1"/>
        <pt x="1504" y="728" on="1"/>
        <pt x="1510" y="709" on="0"/>
        <pt x="1520" y="700" on="1"/>
        <pt x="1535" y="697" on="1"/>
        <pt x="1532" y="675" on="1"/>
        <pt x="1634" y="578" on="0"/>
        <pt x="1637" y="486" on="1"/>
        <pt x="1641" y="464" on="0"/>
        <pt x="1680" y="393" on="1"/>
        <pt x="1734" y="291" on="0"/>
        <pt x="1740" y="274" on="1"/>
        <pt x="1748" y="252" on="0"/>
        <pt x="1762" y="231" on="1"/>
        <pt x="1824" y="94" on="1"/>
        <pt x="1822" y="65" on="1"/>
        <pt x="1882" y="33" on="0"/>
        <pt x="1882" y="4" on="1"/>
        <pt x="1882" y="-10" on="0"/>
        <pt x="1853" y="-24" on="1"/>
        <pt x="1861" y="-41" on="0"/>
        <pt x="1869" y="-45" on="1"/>
        <pt x="1871" y="-47" on="0"/>
        <pt x="1889" y="-53" on="1"/>
        <pt x="1903" y="-58" on="0"/>
        <pt x="1919" y="-90" on="1"/>
        <pt x="1927" y="-105" on="0"/>
        <pt x="1945" y="-162" on="1"/>
        <pt x="1988" y="-228" on="0"/>
        <pt x="1999" y="-248" on="1"/>
        <pt x="1980" y="-263" on="0"/>
        <pt x="1980" y="-280" on="1"/>
        <pt x="1980" y="-286" on="0"/>
        <pt x="1981" y="-295" on="1"/>
        <pt x="1947" y="-310" on="0"/>
        <pt x="1933" y="-313" on="1"/>
        <pt x="1928" y="-315" on="0"/>
        <pt x="1898" y="-316" on="1"/>
        <pt x="1884" y="-317" on="0"/>
        <pt x="1828" y="-340" on="1"/>
        <pt x="1802" y="-281" on="0"/>
        <pt x="1797" y="-256" on="1"/>
        <pt x="1793" y="-235" on="0"/>
        <pt x="1778" y="-211" on="1"/>
        <pt x="1751" y="-137" on="0"/>
        <pt x="1751" y="-128" on="1"/>
        <pt x="1751" y="-121" on="0"/>
        <pt x="1752" y="-112" on="1"/>
        <pt x="1734" y="-95" on="0"/>
        <pt x="1731" y="-82" on="1"/>
        <pt x="1730" y="-79" on="0"/>
        <pt x="1729" y="-51" on="1"/>
        <pt x="1727" y="-40" on="0"/>
        <pt x="1727" y="-36" on="1"/>
        <pt x="1727" y="-24" on="0"/>
        <pt x="1737" y="-3" on="1"/>
        <pt x="1707" y="24" on="1"/>
        <pt x="1719" y="39" on="0"/>
        <pt x="1724" y="44" on="1"/>
        <pt x="1734" y="52" on="0"/>
        <pt x="1734" y="58" on="1"/>
        <pt x="1734" y="64" on="0"/>
        <pt x="1732" y="72" on="1"/>
        <pt x="1684" y="68" on="1"/>
        <pt x="1660" y="100" on="0"/>
        <pt x="1651" y="119" on="1"/>
        <pt x="1646" y="131" on="0"/>
        <pt x="1635" y="182" on="1"/>
        <pt x="1620" y="217" on="1"/>
        <pt x="1608" y="281" on="0"/>
        <pt x="1602" y="293" on="1"/>
        <pt x="1585" y="329" on="0"/>
        <pt x="1546" y="329" on="1"/>
        <pt x="1511" y="329" on="0"/>
        <pt x="1507" y="254" on="1"/>
        <pt x="1499" y="251" on="0"/>
        <pt x="1497" y="251" on="1"/>
        <pt x="1486" y="251" on="0"/>
        <pt x="1469" y="265" on="1"/>
        <pt x="1440" y="285" on="0"/>
        <pt x="1409" y="291" on="1"/>
        <pt x="1394" y="293" on="0"/>
        <pt x="1367" y="306" on="1"/>
        <pt x="1331" y="323" on="0"/>
        <pt x="1309" y="323" on="1"/>
        <pt x="1300" y="323" on="0"/>
        <pt x="1254" y="313" on="1"/>
        <pt x="1225" y="318" on="1"/>
        <pt x="1193" y="315" on="1"/>
        <pt x="1166" y="315" on="1"/>
        <pt x="1139" y="311" on="1"/>
        <pt x="1092" y="310" on="1"/>
        <pt x="1062" y="309" on="0"/>
        <pt x="1052" y="309" on="1"/>
        <pt x="1037" y="308" on="0"/>
        <pt x="1037" y="308" on="1"/>
        <pt x="975" y="322" on="1"/>
        <pt x="945" y="316" on="1"/>
        <pt x="913" y="325" on="0"/>
        <pt x="910" y="325" on="1"/>
        <pt x="904" y="325" on="0"/>
        <pt x="862" y="314" on="1"/>
        <pt x="831" y="307" on="0"/>
        <pt x="807" y="305" on="1"/>
        <pt x="779" y="337" on="1"/>
        <pt x="747" y="331" on="0"/>
        <pt x="715" y="314" on="1"/>
        <pt x="712" y="312" on="0"/>
        <pt x="671" y="306" on="1"/>
        <pt x="656" y="304" on="0"/>
        <pt x="655" y="304" on="1"/>
        <pt x="643" y="304" on="0"/>
        <pt x="625" y="307" on="1"/>
        <pt x="600" y="312" on="0"/>
        <pt x="581" y="312" on="1"/>
        <pt x="567" y="312" on="0"/>
        <pt x="531" y="303" on="1"/>
        <pt x="510" y="297" on="0"/>
        <pt x="487" y="295" on="1"/>
        <pt x="476" y="277" on="0"/>
        <pt x="473" y="271" on="1"/>
        <pt x="458" y="240" on="0"/>
        <pt x="434" y="211" on="1"/>
        <pt x="417" y="184" on="0"/>
        <pt x="387" y="132" on="1"/>
        <pt x="369" y="136" on="1"/>
        <pt x="361" y="128" on="0"/>
        <pt x="361" y="121" on="1"/>
        <pt x="361" y="115" on="0"/>
        <pt x="364" y="100" on="1"/>
        <pt x="365" y="94" on="0"/>
        <pt x="366" y="83" on="1"/>
        <pt x="347" y="61" on="0"/>
        <pt x="345" y="56" on="1"/>
        <pt x="297" y="-41" on="1"/>
        <pt x="284" y="-62" on="0"/>
        <pt x="269" y="-87" on="1"/>
        <pt x="260" y="-101" on="1"/>
        <pt x="205" y="-136" on="1"/>
        <pt x="201" y="-139" on="0"/>
        <pt x="201" y="-147" on="1"/>
        <pt x="201" y="-158" on="0"/>
        <pt x="224" y="-177" on="1"/>
        <pt x="209" y="-224" on="1"/>
        <pt x="185" y="-233" on="0"/>
        <pt x="176" y="-240" on="1"/>
        <pt x="162" y="-250" on="0"/>
        <pt x="147" y="-284" on="1"/>
        <pt x="118" y="-296" on="0"/>
        <pt x="110" y="-302" on="1"/>
        <pt x="96" y="-312" on="0"/>
        <pt x="89" y="-312" on="1"/>
        <pt x="86" y="-312" on="0"/>
        <pt x="69" y="-302" on="1"/>
        <pt x="65" y="-299" on="0"/>
        <pt x="56" y="-299" on="1"/>
        <pt x="50" y="-299" on="0"/>
        <pt x="42" y="-300" on="1"/>
        <pt x="23" y="-281" on="0"/>
      </contour>
      <contour>
        <pt x="552" y="418" on="1"/>
        <pt x="574" y="430" on="0"/>
        <pt x="579" y="430" on="1"/>
        <pt x="586" y="430" on="0"/>
        <pt x="600" y="417" on="1"/>
        <pt x="631" y="421" on="1"/>
        <pt x="643" y="400" on="1"/>
        <pt x="664" y="407" on="0"/>
        <pt x="700" y="407" on="1"/>
        <pt x="789" y="407" on="1"/>
        <pt x="814" y="406" on="0"/>
        <pt x="856" y="392" on="1"/>
        <pt x="900" y="389" on="0"/>
        <pt x="921" y="385" on="1"/>
        <pt x="942" y="354" on="0"/>
        <pt x="970" y="354" on="1"/>
        <pt x="1033" y="385" on="1"/>
        <pt x="1033" y="385" on="1"/>
        <pt x="1067" y="378" on="1"/>
        <pt x="1124" y="378" on="1"/>
        <pt x="1146" y="372" on="1"/>
        <pt x="1175" y="376" on="1"/>
        <pt x="1202" y="373" on="1"/>
        <pt x="1229" y="375" on="1"/>
        <pt x="1254" y="368" on="1"/>
        <pt x="1313" y="378" on="1"/>
        <pt x="1359" y="381" on="1"/>
        <pt x="1448" y="390" on="1"/>
        <pt x="1522" y="384" on="1"/>
        <pt x="1538" y="384" on="0"/>
        <pt x="1538" y="396" on="1"/>
        <pt x="1538" y="401" on="0"/>
        <pt x="1529" y="430" on="1"/>
        <pt x="1527" y="438" on="0"/>
        <pt x="1526" y="454" on="1"/>
        <pt x="1507" y="467" on="0"/>
        <pt x="1498" y="484" on="1"/>
        <pt x="1463" y="555" on="0"/>
        <pt x="1458" y="555" on="1"/>
        <pt x="1448" y="569" on="0"/>
        <pt x="1443" y="588" on="1"/>
        <pt x="1439" y="605" on="0"/>
        <pt x="1427" y="624" on="1"/>
        <pt x="1432" y="650" on="0"/>
        <pt x="1432" y="668" on="1"/>
        <pt x="1432" y="678" on="0"/>
        <pt x="1424" y="701" on="1"/>
        <pt x="1389" y="696" on="1"/>
        <pt x="1378" y="719" on="0"/>
        <pt x="1376" y="726" on="1"/>
        <pt x="1369" y="751" on="1"/>
        <pt x="1347" y="782" on="1"/>
        <pt x="1322" y="826" on="1"/>
        <pt x="1311" y="845" on="1"/>
        <pt x="1304" y="886" on="0"/>
        <pt x="1285" y="919" on="1"/>
        <pt x="1271" y="944" on="0"/>
        <pt x="1272" y="963" on="1"/>
        <pt x="1292" y="972" on="1"/>
        <pt x="1282" y="988" on="0"/>
        <pt x="1267" y="988" on="1"/>
        <pt x="1261" y="988" on="0"/>
        <pt x="1253" y="987" on="1"/>
        <pt x="1243" y="1008" on="0"/>
        <pt x="1239" y="1014" on="1"/>
        <pt x="1216" y="1048" on="0"/>
        <pt x="1215" y="1051" on="1"/>
        <pt x="1209" y="1090" on="1"/>
        <pt x="1194" y="1116" on="1"/>
        <pt x="1179" y="1151" on="1"/>
        <pt x="1146" y="1192" on="1"/>
        <pt x="1128" y="1250" on="1"/>
        <pt x="1111" y="1280" on="1"/>
        <pt x="1098" y="1307" on="0"/>
        <pt x="1082" y="1330" on="1"/>
        <pt x="1057" y="1315" on="0"/>
        <pt x="1048" y="1298" on="1"/>
        <pt x="1031" y="1265" on="0"/>
        <pt x="1032" y="1238" on="1"/>
        <pt x="1026" y="1238" on="1"/>
        <pt x="1009" y="1209" on="0"/>
        <pt x="982" y="1171" on="1"/>
        <pt x="924" y="1061" on="1"/>
        <pt x="908" y="1033" on="0"/>
        <pt x="903" y="1013" on="1"/>
        <pt x="885" y="1002" on="0"/>
        <pt x="880" y="985" on="1"/>
        <pt x="861" y="942" on="0"/>
        <pt x="826" y="930" on="1"/>
        <pt x="831" y="902" on="1"/>
        <pt x="816" y="895" on="1"/>
        <pt x="815" y="895" on="1"/>
        <pt x="796" y="897" on="0"/>
        <pt x="782" y="898" on="1"/>
        <pt x="774" y="885" on="1"/>
        <pt x="800" y="869" on="1"/>
        <pt x="788" y="830" on="0"/>
        <pt x="765" y="790" on="1"/>
        <pt x="718" y="700" on="0"/>
        <pt x="676" y="674" on="1"/>
        <pt x="666" y="668" on="0"/>
        <pt x="664" y="642" on="1"/>
        <pt x="663" y="623" on="0"/>
        <pt x="655" y="606" on="1"/>
        <pt x="655" y="606" on="0"/>
        <pt x="628" y="556" on="1"/>
        <pt x="605" y="531" on="1"/>
        <pt x="593" y="503" on="1"/>
        <pt x="570" y="466" on="0"/>
        <pt x="565" y="453" on="1"/>
        <pt x="559" y="435" on="0"/>
      </contour>
    </TTGlyph>
    <TTGlyph name="AE" xMin="-5" yMin="-326" xMax="3141" yMax="1583">
      <contour>
        <pt x="-5" y="-295" on="1"/>
        <pt x="-5" y="-284" on="1"/>
        <pt x="13" y="-273" on="0"/>
        <pt x="19" y="-270" on="1"/>
        <pt x="49" y="-255" on="0"/>
        <pt x="56" y="-247" on="1"/>
        <pt x="90" y="-207" on="1"/>
        <pt x="92" y="-204" on="0"/>
        <pt x="106" y="-204" on="1"/>
        <pt x="110" y="-204" on="0"/>
        <pt x="115" y="-204" on="1"/>
        <pt x="121" y="-178" on="0"/>
        <pt x="124" y="-177" on="1"/>
        <pt x="130" y="-163" on="0"/>
        <pt x="159" y="-141" on="1"/>
        <pt x="230" y="-86" on="0"/>
        <pt x="237" y="-70" on="1"/>
        <pt x="295" y="11" on="0"/>
        <pt x="306" y="19" on="1"/>
        <pt x="310" y="21" on="0"/>
        <pt x="330" y="28" on="1"/>
        <pt x="334" y="52" on="0"/>
        <pt x="340" y="63" on="1"/>
        <pt x="341" y="65" on="0"/>
        <pt x="380" y="105" on="1"/>
        <pt x="477" y="219" on="1"/>
        <pt x="528" y="274" on="0"/>
        <pt x="538" y="293" on="1"/>
        <pt x="533" y="297" on="1"/>
        <pt x="511" y="296" on="0"/>
        <pt x="504" y="295" on="1"/>
        <pt x="490" y="293" on="0"/>
        <pt x="481" y="293" on="1"/>
        <pt x="472" y="293" on="0"/>
        <pt x="464" y="300" on="1"/>
        <pt x="464" y="332" on="1"/>
        <pt x="474" y="343" on="0"/>
        <pt x="476" y="359" on="1"/>
        <pt x="513" y="415" on="0"/>
        <pt x="516" y="420" on="1"/>
        <pt x="539" y="418" on="0"/>
        <pt x="544" y="416" on="1"/>
        <pt x="588" y="398" on="1"/>
        <pt x="595" y="395" on="0"/>
        <pt x="604" y="395" on="1"/>
        <pt x="616" y="395" on="0"/>
        <pt x="636" y="404" on="1"/>
        <pt x="636" y="428" on="1"/>
        <pt x="650" y="441" on="0"/>
        <pt x="656" y="446" on="1"/>
        <pt x="666" y="455" on="0"/>
        <pt x="698" y="495" on="1"/>
        <pt x="748" y="542" on="1"/>
        <pt x="768" y="574" on="1"/>
        <pt x="813" y="608" on="1"/>
        <pt x="829" y="634" on="1"/>
        <pt x="841" y="650" on="1"/>
        <pt x="860" y="681" on="0"/>
        <pt x="901" y="723" on="1"/>
        <pt x="919" y="742" on="0"/>
        <pt x="942" y="772" on="1"/>
        <pt x="960" y="796" on="0"/>
        <pt x="1012" y="863" on="1"/>
        <pt x="1020" y="873" on="0"/>
        <pt x="1023" y="875" on="1"/>
        <pt x="1038" y="894" on="0"/>
        <pt x="1067" y="922" on="1"/>
        <pt x="1079" y="948" on="0"/>
        <pt x="1090" y="959" on="1"/>
        <pt x="1117" y="984" on="0"/>
        <pt x="1120" y="991" on="1"/>
        <pt x="1120" y="993" on="0"/>
        <pt x="1126" y="1013" on="1"/>
        <pt x="1126" y="1014" on="0"/>
        <pt x="1137" y="1024" on="1"/>
        <pt x="1141" y="1028" on="0"/>
        <pt x="1162" y="1057" on="1"/>
        <pt x="1166" y="1062" on="0"/>
        <pt x="1180" y="1078" on="1"/>
        <pt x="1184" y="1076" on="1"/>
        <pt x="1189" y="1051" on="1"/>
        <pt x="1193" y="1051" on="1"/>
        <pt x="1205" y="1069" on="0"/>
        <pt x="1205" y="1078" on="1"/>
        <pt x="1205" y="1085" on="0"/>
        <pt x="1203" y="1095" on="1"/>
        <pt x="1215" y="1109" on="0"/>
        <pt x="1238" y="1141" on="1"/>
        <pt x="1259" y="1167" on="1"/>
        <pt x="1261" y="1168" on="0"/>
        <pt x="1262" y="1186" on="1"/>
        <pt x="1286" y="1211" on="0"/>
        <pt x="1331" y="1286" on="1"/>
        <pt x="1374" y="1293" on="1"/>
        <pt x="1374" y="1304" on="1"/>
        <pt x="1355" y="1324" on="1"/>
        <pt x="1366" y="1345" on="0"/>
        <pt x="1407" y="1397" on="1"/>
        <pt x="1424" y="1425" on="0"/>
        <pt x="1438" y="1436" on="1"/>
        <pt x="1438" y="1453" on="1"/>
        <pt x="1452" y="1462" on="1"/>
        <pt x="1452" y="1478" on="1"/>
        <pt x="1438" y="1477" on="0"/>
        <pt x="1427" y="1477" on="1"/>
        <pt x="1398" y="1477" on="0"/>
        <pt x="1398" y="1490" on="1"/>
        <pt x="1398" y="1527" on="0"/>
        <pt x="1432" y="1527" on="1"/>
        <pt x="1445" y="1544" on="0"/>
        <pt x="1469" y="1561" on="1"/>
        <pt x="1492" y="1577" on="0"/>
        <pt x="1499" y="1577" on="1"/>
        <pt x="1501" y="1577" on="0"/>
        <pt x="1502" y="1577" on="1"/>
        <pt x="1510" y="1576" on="0"/>
        <pt x="1510" y="1576" on="1"/>
        <pt x="1510" y="1576" on="0"/>
        <pt x="1511" y="1576" on="1"/>
        <pt x="1517" y="1577" on="0"/>
        <pt x="1581" y="1580" on="1"/>
        <pt x="1587" y="1580" on="0"/>
        <pt x="1658" y="1574" on="1"/>
        <pt x="1671" y="1573" on="0"/>
        <pt x="1701" y="1573" on="1"/>
        <pt x="1710" y="1573" on="0"/>
        <pt x="1726" y="1573" on="1"/>
        <pt x="1752" y="1513" on="1"/>
        <pt x="1767" y="1552" on="1"/>
        <pt x="1796" y="1548" on="1"/>
        <pt x="1798" y="1548" on="0"/>
        <pt x="1818" y="1559" on="1"/>
        <pt x="1828" y="1565" on="0"/>
        <pt x="1840" y="1565" on="1"/>
        <pt x="1850" y="1565" on="0"/>
        <pt x="1901" y="1547" on="1"/>
        <pt x="1953" y="1539" on="1"/>
        <pt x="1988" y="1529" on="1"/>
        <pt x="1991" y="1529" on="0"/>
        <pt x="2002" y="1534" on="1"/>
        <pt x="2014" y="1539" on="0"/>
        <pt x="2022" y="1539" on="1"/>
        <pt x="2148" y="1536" on="1"/>
        <pt x="2181" y="1539" on="0"/>
        <pt x="2185" y="1539" on="1"/>
        <pt x="2198" y="1539" on="0"/>
        <pt x="2207" y="1525" on="1"/>
        <pt x="2261" y="1518" on="1"/>
        <pt x="2278" y="1539" on="1"/>
        <pt x="2298" y="1538" on="0"/>
        <pt x="2307" y="1538" on="1"/>
        <pt x="2314" y="1538" on="0"/>
        <pt x="2384" y="1548" on="1"/>
        <pt x="2457" y="1543" on="1"/>
        <pt x="2464" y="1543" on="0"/>
        <pt x="2495" y="1551" on="1"/>
        <pt x="2515" y="1556" on="0"/>
        <pt x="2532" y="1559" on="1"/>
        <pt x="2632" y="1575" on="1"/>
        <pt x="2681" y="1583" on="0"/>
        <pt x="2689" y="1583" on="1"/>
        <pt x="2704" y="1583" on="0"/>
        <pt x="2726" y="1573" on="1"/>
        <pt x="2714" y="1543" on="0"/>
        <pt x="2701" y="1530" on="0"/>
        <pt x="2651" y="1501" on="1"/>
        <pt x="2634" y="1485" on="0"/>
        <pt x="2591" y="1459" on="0"/>
        <pt x="2582" y="1459" on="1"/>
        <pt x="2581" y="1459" on="0"/>
        <pt x="2563" y="1462" on="1"/>
        <pt x="2527" y="1467" on="1"/>
        <pt x="2508" y="1480" on="0"/>
        <pt x="2479" y="1480" on="1"/>
        <pt x="2464" y="1480" on="1"/>
        <pt x="2451" y="1480" on="1"/>
        <pt x="2367" y="1485" on="0"/>
        <pt x="2361" y="1485" on="1"/>
        <pt x="2344" y="1485" on="0"/>
        <pt x="2271" y="1468" on="1"/>
        <pt x="2181" y="1476" on="1"/>
        <pt x="2156" y="1474" on="1"/>
        <pt x="2127" y="1479" on="1"/>
        <pt x="2082" y="1471" on="1"/>
        <pt x="2051" y="1471" on="1"/>
        <pt x="2026" y="1466" on="1"/>
        <pt x="1911" y="1471" on="1"/>
        <pt x="1882" y="1467" on="1"/>
        <pt x="1874" y="1470" on="0"/>
        <pt x="1857" y="1504" on="1"/>
        <pt x="1846" y="1526" on="0"/>
        <pt x="1834" y="1526" on="1"/>
        <pt x="1829" y="1526" on="0"/>
        <pt x="1820" y="1516" on="1"/>
        <pt x="1788" y="1480" on="0"/>
        <pt x="1781" y="1478" on="1"/>
        <pt x="1778" y="1478" on="1"/>
        <pt x="1777" y="1478" on="0"/>
        <pt x="1772" y="1479" on="1"/>
        <pt x="1745" y="1481" on="1"/>
        <pt x="1720" y="1475" on="1"/>
        <pt x="1687" y="1476" on="1"/>
        <pt x="1679" y="1476" on="0"/>
        <pt x="1659" y="1465" on="1"/>
        <pt x="1673" y="1441" on="0"/>
        <pt x="1674" y="1434" on="1"/>
        <pt x="1676" y="1383" on="0"/>
        <pt x="1680" y="1364" on="1"/>
        <pt x="1652" y="1342" on="1"/>
        <pt x="1630" y="1345" on="1"/>
        <pt x="1626" y="1332" on="0"/>
        <pt x="1626" y="1321" on="1"/>
        <pt x="1626" y="1308" on="0"/>
        <pt x="1649" y="1299" on="1"/>
        <pt x="1652" y="1288" on="1"/>
        <pt x="1671" y="1283" on="0"/>
        <pt x="1671" y="1273" on="1"/>
        <pt x="1671" y="1271" on="0"/>
        <pt x="1665" y="1247" on="1"/>
        <pt x="1664" y="1244" on="0"/>
        <pt x="1664" y="1240" on="1"/>
        <pt x="1664" y="1236" on="0"/>
        <pt x="1669" y="1215" on="1"/>
        <pt x="1674" y="1196" on="0"/>
        <pt x="1676" y="1175" on="1"/>
        <pt x="1698" y="1171" on="0"/>
        <pt x="1752" y="1168" on="1"/>
        <pt x="1818" y="1156" on="1"/>
        <pt x="1865" y="1154" on="1"/>
        <pt x="1906" y="1149" on="1"/>
        <pt x="1938" y="1149" on="1"/>
        <pt x="1992" y="1142" on="1"/>
        <pt x="2059" y="1141" on="1"/>
        <pt x="2110" y="1137" on="1"/>
        <pt x="2158" y="1143" on="1"/>
        <pt x="2211" y="1133" on="1"/>
        <pt x="2235" y="1137" on="1"/>
        <pt x="2286" y="1145" on="1"/>
        <pt x="2321" y="1157" on="0"/>
        <pt x="2332" y="1157" on="1"/>
        <pt x="2346" y="1157" on="0"/>
        <pt x="2371" y="1148" on="1"/>
        <pt x="2397" y="1174" on="0"/>
        <pt x="2432" y="1174" on="1"/>
        <pt x="2460" y="1172" on="1"/>
        <pt x="2460" y="1172" on="1"/>
        <pt x="2462" y="1172" on="0"/>
        <pt x="2514" y="1186" on="1"/>
        <pt x="2530" y="1191" on="0"/>
        <pt x="2545" y="1191" on="1"/>
        <pt x="2556" y="1191" on="0"/>
        <pt x="2570" y="1190" on="1"/>
        <pt x="2562" y="1147" on="1"/>
        <pt x="2539" y="1132" on="1"/>
        <pt x="2534" y="1099" on="1"/>
        <pt x="2512" y="1091" on="0"/>
        <pt x="2500" y="1071" on="1"/>
        <pt x="2466" y="1067" on="0"/>
        <pt x="2461" y="1067" on="1"/>
        <pt x="2441" y="1067" on="0"/>
        <pt x="2431" y="1082" on="1"/>
        <pt x="2405" y="1119" on="1"/>
        <pt x="2368" y="1070" on="0"/>
        <pt x="2364" y="1070" on="1"/>
        <pt x="2356" y="1070" on="0"/>
        <pt x="2329" y="1083" on="1"/>
        <pt x="2300" y="1070" on="0"/>
        <pt x="2226" y="1070" on="1"/>
        <pt x="2204" y="1070" on="0"/>
        <pt x="2152" y="1081" on="1"/>
        <pt x="1991" y="1081" on="1"/>
        <pt x="1947" y="1079" on="1"/>
        <pt x="1939" y="1079" on="0"/>
        <pt x="1892" y="1085" on="1"/>
        <pt x="1865" y="1088" on="0"/>
        <pt x="1812" y="1088" on="1"/>
        <pt x="1806" y="1088" on="0"/>
        <pt x="1779" y="1079" on="1"/>
        <pt x="1768" y="1076" on="0"/>
        <pt x="1747" y="1076" on="1"/>
        <pt x="1725" y="1076" on="0"/>
        <pt x="1681" y="1079" on="1"/>
        <pt x="1676" y="1074" on="1"/>
        <pt x="1689" y="1046" on="0"/>
        <pt x="1691" y="1004" on="1"/>
        <pt x="1691" y="998" on="0"/>
        <pt x="1692" y="984" on="1"/>
        <pt x="1694" y="963" on="0"/>
        <pt x="1694" y="950" on="1"/>
        <pt x="1694" y="946" on="0"/>
        <pt x="1693" y="913" on="1"/>
        <pt x="1693" y="905" on="1"/>
        <pt x="1693" y="891" on="0"/>
        <pt x="1696" y="874" on="1"/>
        <pt x="1699" y="856" on="0"/>
        <pt x="1699" y="847" on="1"/>
        <pt x="1699" y="821" on="0"/>
        <pt x="1668" y="813" on="1"/>
        <pt x="1665" y="816" on="1"/>
        <pt x="1657" y="797" on="0"/>
        <pt x="1657" y="788" on="1"/>
        <pt x="1657" y="780" on="0"/>
        <pt x="1659" y="769" on="1"/>
        <pt x="1663" y="769" on="1"/>
        <pt x="1667" y="773" on="1"/>
        <pt x="1693" y="755" on="1"/>
        <pt x="1693" y="706" on="1"/>
        <pt x="1674" y="687" on="1"/>
        <pt x="1679" y="663" on="0"/>
        <pt x="1695" y="618" on="1"/>
        <pt x="1696" y="615" on="0"/>
        <pt x="1696" y="605" on="1"/>
        <pt x="1696" y="594" on="0"/>
        <pt x="1694" y="577" on="1"/>
        <pt x="1672" y="567" on="1"/>
        <pt x="1669" y="554" on="0"/>
        <pt x="1669" y="545" on="1"/>
        <pt x="1669" y="527" on="0"/>
        <pt x="1701" y="509" on="1"/>
        <pt x="1694" y="482" on="0"/>
        <pt x="1694" y="472" on="1"/>
        <pt x="1705" y="435" on="1"/>
        <pt x="1705" y="424" on="1"/>
        <pt x="1705" y="414" on="1"/>
        <pt x="1705" y="381" on="0"/>
        <pt x="1708" y="381" on="1"/>
        <pt x="1708" y="380" on="0"/>
        <pt x="1708" y="380" on="1"/>
        <pt x="1707" y="372" on="0"/>
        <pt x="1685" y="354" on="1"/>
        <pt x="1671" y="343" on="0"/>
        <pt x="1655" y="295" on="1"/>
        <pt x="1648" y="273" on="0"/>
        <pt x="1630" y="244" on="1"/>
        <pt x="1621" y="230" on="0"/>
        <pt x="1621" y="224" on="1"/>
        <pt x="1621" y="190" on="0"/>
        <pt x="1702" y="183" on="1"/>
        <pt x="1664" y="161" on="1"/>
        <pt x="1663" y="155" on="0"/>
        <pt x="1663" y="154" on="1"/>
        <pt x="1663" y="139" on="0"/>
        <pt x="1675" y="118" on="1"/>
        <pt x="1681" y="118" on="1"/>
        <pt x="1693" y="127" on="0"/>
        <pt x="1699" y="127" on="1"/>
        <pt x="1706" y="127" on="0"/>
        <pt x="1720" y="114" on="1"/>
        <pt x="1707" y="82" on="0"/>
        <pt x="1707" y="70" on="1"/>
        <pt x="1707" y="65" on="0"/>
        <pt x="1715" y="33" on="1"/>
        <pt x="1716" y="-43" on="1"/>
        <pt x="1723" y="-118" on="1"/>
        <pt x="1723" y="-131" on="0"/>
        <pt x="1692" y="-184" on="1"/>
        <pt x="1673" y="-190" on="0"/>
        <pt x="1673" y="-195" on="1"/>
        <pt x="1670" y="-195" on="0"/>
        <pt x="1669" y="-212" on="1"/>
        <pt x="1678" y="-217" on="0"/>
        <pt x="1687" y="-219" on="1"/>
        <pt x="1699" y="-221" on="0"/>
        <pt x="1717" y="-228" on="1"/>
        <pt x="1757" y="-218" on="1"/>
        <pt x="1950" y="-218" on="1"/>
        <pt x="1964" y="-219" on="0"/>
        <pt x="1998" y="-237" on="1"/>
        <pt x="2000" y="-238" on="0"/>
        <pt x="2010" y="-238" on="1"/>
        <pt x="2026" y="-238" on="0"/>
        <pt x="2049" y="-220" on="1"/>
        <pt x="2051" y="-218" on="0"/>
        <pt x="2111" y="-213" on="1"/>
        <pt x="2126" y="-212" on="0"/>
        <pt x="2142" y="-212" on="1"/>
        <pt x="2174" y="-212" on="0"/>
        <pt x="2227" y="-220" on="1"/>
        <pt x="2260" y="-219" on="1"/>
        <pt x="2313" y="-222" on="1"/>
        <pt x="2356" y="-214" on="1"/>
        <pt x="2403" y="-218" on="0"/>
        <pt x="2408" y="-218" on="1"/>
        <pt x="2445" y="-218" on="0"/>
        <pt x="2489" y="-212" on="1"/>
        <pt x="2507" y="-210" on="0"/>
        <pt x="2520" y="-210" on="1"/>
        <pt x="2536" y="-210" on="0"/>
        <pt x="2545" y="-219" on="1"/>
        <pt x="2583" y="-256" on="1"/>
        <pt x="2585" y="-254" on="1"/>
        <pt x="2609" y="-209" on="1"/>
        <pt x="2643" y="-218" on="0"/>
        <pt x="2648" y="-218" on="1"/>
        <pt x="2656" y="-218" on="0"/>
        <pt x="2668" y="-217" on="1"/>
        <pt x="2673" y="-251" on="1"/>
        <pt x="2706" y="-259" on="1"/>
        <pt x="2706" y="-223" on="1"/>
        <pt x="2718" y="-217" on="0"/>
        <pt x="2725" y="-217" on="1"/>
        <pt x="2728" y="-217" on="0"/>
        <pt x="2737" y="-220" on="1"/>
        <pt x="2747" y="-223" on="0"/>
        <pt x="2755" y="-223" on="1"/>
        <pt x="2761" y="-223" on="0"/>
        <pt x="2816" y="-210" on="1"/>
        <pt x="2824" y="-208" on="0"/>
        <pt x="2831" y="-208" on="1"/>
        <pt x="2842" y="-208" on="0"/>
        <pt x="2860" y="-224" on="1"/>
        <pt x="2918" y="-214" on="1"/>
        <pt x="2922" y="-194" on="1"/>
        <pt x="2946" y="-185" on="0"/>
        <pt x="2954" y="-183" on="1"/>
        <pt x="2957" y="-182" on="0"/>
        <pt x="2995" y="-180" on="1"/>
        <pt x="3027" y="-172" on="1"/>
        <pt x="3046" y="-171" on="1"/>
        <pt x="3071" y="-164" on="1"/>
        <pt x="3090" y="-160" on="1"/>
        <pt x="3118" y="-146" on="0"/>
        <pt x="3123" y="-146" on="1"/>
        <pt x="3141" y="-146" on="0"/>
        <pt x="3141" y="-171" on="1"/>
        <pt x="3141" y="-180" on="0"/>
        <pt x="3132" y="-195" on="1"/>
        <pt x="3126" y="-208" on="0"/>
        <pt x="3121" y="-227" on="1"/>
        <pt x="3101" y="-244" on="1"/>
        <pt x="3091" y="-275" on="1"/>
        <pt x="3057" y="-291" on="0"/>
        <pt x="3041" y="-296" on="1"/>
        <pt x="3031" y="-299" on="0"/>
        <pt x="2990" y="-300" on="1"/>
        <pt x="2958" y="-306" on="1"/>
        <pt x="2897" y="-305" on="1"/>
        <pt x="2845" y="-314" on="1"/>
        <pt x="2793" y="-287" on="1"/>
        <pt x="2742" y="-281" on="1"/>
        <pt x="2705" y="-264" on="1"/>
        <pt x="2631" y="-254" on="0"/>
        <pt x="2619" y="-250" on="1"/>
        <pt x="2614" y="-248" on="0"/>
        <pt x="2612" y="-248" on="1"/>
        <pt x="2606" y="-248" on="0"/>
        <pt x="2591" y="-295" on="1"/>
        <pt x="2570" y="-282" on="1"/>
        <pt x="2553" y="-301" on="0"/>
        <pt x="2539" y="-301" on="1"/>
        <pt x="2532" y="-301" on="0"/>
        <pt x="2455" y="-283" on="1"/>
        <pt x="2447" y="-281" on="0"/>
        <pt x="2441" y="-281" on="1"/>
        <pt x="2435" y="-281" on="0"/>
        <pt x="2396" y="-292" on="1"/>
        <pt x="2320" y="-276" on="1"/>
        <pt x="2319" y="-276" on="1"/>
        <pt x="2289" y="-279" on="1"/>
        <pt x="2286" y="-279" on="1"/>
        <pt x="2272" y="-277" on="1"/>
        <pt x="2255" y="-294" on="1"/>
        <pt x="2229" y="-290" on="0"/>
        <pt x="2209" y="-290" on="1"/>
        <pt x="2205" y="-290" on="0"/>
        <pt x="2187" y="-294" on="1"/>
        <pt x="2115" y="-251" on="1"/>
        <pt x="2094" y="-276" on="1"/>
        <pt x="2077" y="-297" on="0"/>
        <pt x="2067" y="-297" on="1"/>
        <pt x="2054" y="-297" on="0"/>
        <pt x="2037" y="-292" on="1"/>
        <pt x="2041" y="-275" on="1"/>
        <pt x="2030" y="-277" on="0"/>
        <pt x="2024" y="-277" on="1"/>
        <pt x="2015" y="-277" on="0"/>
        <pt x="1996" y="-282" on="1"/>
        <pt x="1992" y="-307" on="1"/>
        <pt x="1977" y="-310" on="0"/>
        <pt x="1967" y="-310" on="1"/>
        <pt x="1962" y="-310" on="0"/>
        <pt x="1918" y="-301" on="1"/>
        <pt x="1882" y="-303" on="1"/>
        <pt x="1855" y="-298" on="0"/>
        <pt x="1848" y="-298" on="1"/>
        <pt x="1843" y="-298" on="0"/>
        <pt x="1825" y="-299" on="1"/>
        <pt x="1794" y="-301" on="1"/>
        <pt x="1753" y="-309" on="0"/>
        <pt x="1741" y="-309" on="1"/>
        <pt x="1727" y="-309" on="0"/>
        <pt x="1686" y="-298" on="1"/>
        <pt x="1680" y="-297" on="0"/>
        <pt x="1673" y="-297" on="1"/>
        <pt x="1667" y="-297" on="0"/>
        <pt x="1610" y="-307" on="1"/>
        <pt x="1548" y="-309" on="0"/>
        <pt x="1532" y="-311" on="1"/>
        <pt x="1519" y="-314" on="0"/>
        <pt x="1503" y="-320" on="1"/>
        <pt x="1484" y="-324" on="1"/>
        <pt x="1482" y="-324" on="1"/>
        <pt x="1477" y="-324" on="0"/>
        <pt x="1447" y="-316" on="1"/>
        <pt x="1447" y="-308" on="0"/>
        <pt x="1447" y="-301" on="1"/>
        <pt x="1447" y="-288" on="0"/>
        <pt x="1454" y="-272" on="1"/>
        <pt x="1470" y="-272" on="0"/>
        <pt x="1477" y="-267" on="1"/>
        <pt x="1487" y="-260" on="0"/>
        <pt x="1500" y="-231" on="1"/>
        <pt x="1521" y="-188" on="0"/>
        <pt x="1520" y="-182" on="1"/>
        <pt x="1520" y="-136" on="1"/>
        <pt x="1520" y="-134" on="0"/>
        <pt x="1523" y="-129" on="1"/>
        <pt x="1539" y="-108" on="0"/>
        <pt x="1539" y="-105" on="1"/>
        <pt x="1532" y="-77" on="1"/>
        <pt x="1538" y="-26" on="1"/>
        <pt x="1538" y="73" on="0"/>
        <pt x="1542" y="93" on="1"/>
        <pt x="1545" y="110" on="0"/>
        <pt x="1555" y="141" on="1"/>
        <pt x="1583" y="154" on="0"/>
        <pt x="1583" y="181" on="1"/>
        <pt x="1583" y="186" on="0"/>
        <pt x="1581" y="195" on="1"/>
        <pt x="1569" y="174" on="0"/>
        <pt x="1557" y="174" on="1"/>
        <pt x="1550" y="194" on="0"/>
        <pt x="1547" y="201" on="1"/>
        <pt x="1539" y="220" on="0"/>
        <pt x="1539" y="232" on="1"/>
        <pt x="1539" y="240" on="0"/>
        <pt x="1552" y="274" on="1"/>
        <pt x="1540" y="284" on="0"/>
        <pt x="1520" y="286" on="1"/>
        <pt x="1481" y="289" on="0"/>
        <pt x="1472" y="294" on="1"/>
        <pt x="1419" y="318" on="1"/>
        <pt x="1407" y="324" on="0"/>
        <pt x="1387" y="324" on="1"/>
        <pt x="1378" y="324" on="0"/>
        <pt x="1331" y="314" on="1"/>
        <pt x="1293" y="318" on="1"/>
        <pt x="1271" y="316" on="1"/>
        <pt x="1244" y="316" on="1"/>
        <pt x="1214" y="312" on="1"/>
        <pt x="1136" y="310" on="1"/>
        <pt x="1109" y="308" on="1"/>
        <pt x="1060" y="319" on="1"/>
        <pt x="1024" y="319" on="1"/>
        <pt x="994" y="368" on="1"/>
        <pt x="921" y="316" on="0"/>
        <pt x="911" y="310" on="0"/>
        <pt x="892" y="306" on="1"/>
        <pt x="872" y="339" on="1"/>
        <pt x="845" y="335" on="0"/>
        <pt x="819" y="324" on="1"/>
        <pt x="798" y="315" on="0"/>
        <pt x="737" y="305" on="1"/>
        <pt x="667" y="305" on="0"/>
        <pt x="661" y="304" on="1"/>
        <pt x="653" y="302" on="0"/>
        <pt x="646" y="284" on="1"/>
        <pt x="639" y="284" on="1"/>
        <pt x="627" y="269" on="0"/>
        <pt x="623" y="264" on="1"/>
        <pt x="591" y="222" on="0"/>
        <pt x="554" y="186" on="1"/>
        <pt x="529" y="160" on="0"/>
        <pt x="495" y="112" on="1"/>
        <pt x="474" y="109" on="1"/>
        <pt x="455" y="80" on="1"/>
        <pt x="457" y="61" on="1"/>
        <pt x="424" y="32" on="0"/>
        <pt x="397" y="-8" on="1"/>
        <pt x="358" y="-66" on="0"/>
        <pt x="331" y="-97" on="1"/>
        <pt x="298" y="-136" on="0"/>
        <pt x="296" y="-138" on="0"/>
        <pt x="274" y="-152" on="1"/>
        <pt x="246" y="-168" on="0"/>
        <pt x="222" y="-185" on="1"/>
        <pt x="236" y="-204" on="0"/>
        <pt x="236" y="-218" on="1"/>
        <pt x="236" y="-219" on="0"/>
        <pt x="206" y="-272" on="1"/>
        <pt x="176" y="-283" on="0"/>
        <pt x="160" y="-297" on="1"/>
        <pt x="143" y="-311" on="0"/>
        <pt x="129" y="-322" on="1"/>
        <pt x="116" y="-315" on="0"/>
        <pt x="110" y="-315" on="1"/>
        <pt x="104" y="-315" on="0"/>
        <pt x="98" y="-319" on="1"/>
        <pt x="84" y="-326" on="0"/>
        <pt x="80" y="-326" on="1"/>
        <pt x="73" y="-326" on="0"/>
        <pt x="60" y="-314" on="1"/>
        <pt x="30" y="-318" on="1"/>
        <pt x="14" y="-298" on="1"/>
      </contour>
      <contour>
        <pt x="751" y="409" on="1"/>
        <pt x="771" y="405" on="0"/>
        <pt x="776" y="405" on="1"/>
        <pt x="832" y="409" on="0"/>
        <pt x="847" y="409" on="1"/>
        <pt x="918" y="409" on="0"/>
        <pt x="935" y="403" on="1"/>
        <pt x="967" y="393" on="1"/>
        <pt x="1012" y="389" on="0"/>
        <pt x="1032" y="385" on="1"/>
        <pt x="1038" y="363" on="1"/>
        <pt x="1058" y="354" on="0"/>
        <pt x="1071" y="354" on="1"/>
        <pt x="1076" y="354" on="0"/>
        <pt x="1136" y="386" on="1"/>
        <pt x="1168" y="380" on="1"/>
        <pt x="1222" y="379" on="1"/>
        <pt x="1246" y="373" on="1"/>
        <pt x="1276" y="377" on="1"/>
        <pt x="1295" y="375" on="1"/>
        <pt x="1329" y="375" on="1"/>
        <pt x="1354" y="369" on="1"/>
        <pt x="1412" y="379" on="1"/>
        <pt x="1451" y="381" on="1"/>
        <pt x="1519" y="389" on="0"/>
        <pt x="1551" y="389" on="1"/>
        <pt x="1551" y="404" on="1"/>
        <pt x="1583" y="418" on="0"/>
        <pt x="1583" y="432" on="1"/>
        <pt x="1583" y="436" on="0"/>
        <pt x="1561" y="449" on="1"/>
        <pt x="1558" y="463" on="0"/>
        <pt x="1546" y="474" on="1"/>
        <pt x="1546" y="497" on="0"/>
        <pt x="1551" y="528" on="1"/>
        <pt x="1538" y="643" on="1"/>
        <pt x="1540" y="714" on="0"/>
        <pt x="1540" y="718" on="1"/>
        <pt x="1540" y="727" on="0"/>
        <pt x="1539" y="742" on="1"/>
        <pt x="1539" y="745" on="0"/>
        <pt x="1539" y="746" on="1"/>
        <pt x="1539" y="762" on="0"/>
        <pt x="1547" y="768" on="1"/>
        <pt x="1601" y="805" on="1"/>
        <pt x="1537" y="822" on="1"/>
        <pt x="1561" y="835" on="1"/>
        <pt x="1566" y="889" on="1"/>
        <pt x="1554" y="895" on="0"/>
        <pt x="1547" y="904" on="1"/>
        <pt x="1542" y="910" on="0"/>
        <pt x="1534" y="917" on="1"/>
        <pt x="1530" y="949" on="0"/>
        <pt x="1530" y="959" on="1"/>
        <pt x="1528" y="994" on="0"/>
        <pt x="1527" y="998" on="1"/>
        <pt x="1526" y="1010" on="0"/>
        <pt x="1526" y="1017" on="1"/>
        <pt x="1526" y="1027" on="0"/>
        <pt x="1541" y="1041" on="1"/>
        <pt x="1535" y="1051" on="1"/>
        <pt x="1516" y="1055" on="1"/>
        <pt x="1516" y="1102" on="1"/>
        <pt x="1530" y="1118" on="1"/>
        <pt x="1518" y="1136" on="0"/>
        <pt x="1512" y="1142" on="1"/>
        <pt x="1508" y="1147" on="0"/>
        <pt x="1508" y="1147" on="1"/>
        <pt x="1591" y="1247" on="1"/>
        <pt x="1563" y="1321" on="0"/>
        <pt x="1559" y="1329" on="1"/>
        <pt x="1549" y="1349" on="0"/>
        <pt x="1500" y="1352" on="1"/>
        <pt x="1487" y="1339" on="0"/>
        <pt x="1481" y="1334" on="1"/>
        <pt x="1460" y="1313" on="0"/>
        <pt x="1453" y="1286" on="1"/>
        <pt x="1453" y="1286" on="0"/>
        <pt x="1437" y="1273" on="1"/>
        <pt x="1434" y="1270" on="0"/>
        <pt x="1420" y="1251" on="1"/>
        <pt x="1419" y="1248" on="0"/>
        <pt x="1403" y="1231" on="1"/>
        <pt x="1391" y="1217" on="0"/>
        <pt x="1370" y="1190" on="1"/>
        <pt x="1356" y="1174" on="1"/>
        <pt x="1342" y="1150" on="1"/>
        <pt x="1281" y="1070" on="1"/>
        <pt x="1265" y="1045" on="1"/>
        <pt x="1242" y="1028" on="0"/>
        <pt x="1220" y="996" on="1"/>
        <pt x="1199" y="968" on="0"/>
        <pt x="1164" y="953" on="1"/>
        <pt x="1164" y="915" on="0"/>
        <pt x="1131" y="915" on="1"/>
        <pt x="1121" y="915" on="0"/>
        <pt x="1108" y="917" on="1"/>
        <pt x="1100" y="911" on="0"/>
        <pt x="1100" y="906" on="1"/>
        <pt x="1100" y="897" on="0"/>
        <pt x="1119" y="884" on="1"/>
        <pt x="1102" y="853" on="0"/>
        <pt x="1061" y="803" on="1"/>
        <pt x="1031" y="764" on="1"/>
        <pt x="982" y="711" on="0"/>
        <pt x="978" y="706" on="0"/>
        <pt x="941" y="682" on="1"/>
        <pt x="920" y="664" on="0"/>
        <pt x="915" y="632" on="1"/>
        <pt x="909" y="621" on="0"/>
        <pt x="852" y="551" on="1"/>
        <pt x="829" y="531" on="1"/>
        <pt x="807" y="499" on="1"/>
        <pt x="777" y="465" on="1"/>
        <pt x="749" y="424" on="0"/>
        <pt x="749" y="419" on="1"/>
        <pt x="749" y="417" on="0"/>
        <pt x="750" y="413" on="1"/>
      </contour>
    </TTGlyph>
    <TTGlyph name="Aacute" xMin="0" yMin="-340" xMax="1999" yMax="2051">
      <component glyphName="A" x="0" y="0" flags="0x4"/>
      <component glyphName=".notdef#8" x="600" y="0" flags="0x4"/>
    </TTGlyph>
    <TTGlyph name="Acircumflex" xMin="0" yMin="-340" xMax="1999" yMax="2155">
      <component glyphName="A" x="0" y="0" flags="0x4"/>
      <component glyphName=".notdef#11" x="707" y="0" flags="0x4"/>
    </TTGlyph>
    <TTGlyph name="Adieresis" xMin="0" yMin="-340" xMax="1999" yMax="1973">
      <component glyphName="A" x="0" y="0" flags="0x4"/>
      <component glyphName=".notdef#9" x="649" y="0" flags="0x4"/>
    </TTGlyph>
    <TTGlyph name="Agrave" xMin="0" yMin="-340" xMax="1999" yMax="2040">
      <component glyphName="A" x="0" y="0" flags="0x4"/>
      <component glyphName=".notdef#7" x="684" y="0" flags="0x4"/>
    </TTGlyph>
    <TTGlyph name="Aring" xMin="0" yMin="-340" xMax="1999" yMax="1994">
      <component glyphName="A" x="0" y="0" flags="0x4"/>
      <component glyphName=".notdef#10" x="646" y="0" flags="0x4"/>
    </TTGlyph>
    <TTGlyph name="Atilde" xMin="0" yMin="-340" xMax="1999" yMax="1982">
      <component glyphName="A" x="0" y="0" flags="0x4"/>
      <component glyphName=".notdef#12" x="685" y="0" flags="0x4"/>
    </TTGlyph>
    <TTGlyph name="B" xMin="93" yMin="-353" xMax="1903" yMax="1639">
      <contour>
        <pt x="262" y="217" on="1"/>
        <pt x="278" y="219" on="0"/>
        <pt x="285" y="222" on="1"/>
        <pt x="285" y="240" on="1"/>
        <pt x="268" y="254" on="1"/>
        <pt x="266" y="276" on="0"/>
        <pt x="262" y="304" on="1"/>
        <pt x="261" y="310" on="0"/>
        <pt x="261" y="316" on="1"/>
        <pt x="261" y="335" on="0"/>
        <pt x="283" y="360" on="1"/>
        <pt x="280" y="363" on="1"/>
        <pt x="278" y="380" on="0"/>
        <pt x="269" y="390" on="1"/>
        <pt x="263" y="397" on="0"/>
        <pt x="259" y="414" on="1"/>
        <pt x="252" y="445" on="0"/>
        <pt x="252" y="461" on="1"/>
        <pt x="259" y="540" on="1"/>
        <pt x="259" y="585" on="1"/>
        <pt x="259" y="609" on="1"/>
        <pt x="273" y="625" on="1"/>
        <pt x="252" y="632" on="0"/>
        <pt x="252" y="635" on="1"/>
        <pt x="258" y="711" on="0"/>
        <pt x="258" y="712" on="1"/>
        <pt x="258" y="726" on="0"/>
        <pt x="251" y="779" on="1"/>
        <pt x="255" y="783" on="1"/>
        <pt x="252" y="833" on="1"/>
        <pt x="264" y="840" on="0"/>
        <pt x="279" y="843" on="1"/>
        <pt x="287" y="845" on="0"/>
        <pt x="296" y="851" on="1"/>
        <pt x="292" y="867" on="0"/>
        <pt x="278" y="879" on="1"/>
        <pt x="280" y="888" on="0"/>
        <pt x="280" y="892" on="1"/>
        <pt x="280" y="903" on="0"/>
        <pt x="271" y="921" on="1"/>
        <pt x="251" y="908" on="1"/>
        <pt x="236" y="942" on="0"/>
        <pt x="236" y="961" on="1"/>
        <pt x="236" y="968" on="0"/>
        <pt x="241" y="990" on="1"/>
        <pt x="239" y="1046" on="1"/>
        <pt x="239" y="1075" on="1"/>
        <pt x="235" y="1095" on="1"/>
        <pt x="238" y="1137" on="1"/>
        <pt x="223" y="1230" on="0"/>
        <pt x="223" y="1239" on="1"/>
        <pt x="223" y="1253" on="0"/>
        <pt x="231" y="1268" on="1"/>
        <pt x="235" y="1276" on="0"/>
        <pt x="236" y="1293" on="1"/>
        <pt x="246" y="1302" on="0"/>
        <pt x="246" y="1310" on="1"/>
        <pt x="246" y="1312" on="1"/>
        <pt x="246" y="1316" on="1"/>
        <pt x="250" y="1342" on="1"/>
        <pt x="221" y="1339" on="1"/>
        <pt x="221" y="1360" on="0"/>
        <pt x="214" y="1387" on="1"/>
        <pt x="210" y="1414" on="1"/>
        <pt x="200" y="1471" on="0"/>
        <pt x="200" y="1502" on="1"/>
        <pt x="200" y="1523" on="0"/>
        <pt x="206" y="1548" on="1"/>
        <pt x="195" y="1545" on="0"/>
        <pt x="163" y="1544" on="1"/>
        <pt x="111" y="1533" on="1"/>
        <pt x="108" y="1533" on="0"/>
        <pt x="99" y="1536" on="1"/>
        <pt x="114" y="1576" on="0"/>
        <pt x="116" y="1576" on="1"/>
        <pt x="138" y="1588" on="0"/>
        <pt x="147" y="1596" on="1"/>
        <pt x="147" y="1601" on="1"/>
        <pt x="167" y="1605" on="0"/>
        <pt x="173" y="1607" on="1"/>
        <pt x="198" y="1614" on="0"/>
        <pt x="204" y="1614" on="1"/>
        <pt x="206" y="1614" on="0"/>
        <pt x="232" y="1609" on="1"/>
        <pt x="240" y="1607" on="0"/>
        <pt x="248" y="1607" on="1"/>
        <pt x="261" y="1607" on="0"/>
        <pt x="310" y="1629" on="1"/>
        <pt x="314" y="1630" on="0"/>
        <pt x="354" y="1630" on="1"/>
        <pt x="362" y="1630" on="0"/>
        <pt x="423" y="1638" on="1"/>
        <pt x="428" y="1639" on="0"/>
        <pt x="430" y="1639" on="1"/>
        <pt x="444" y="1639" on="0"/>
        <pt x="476" y="1630" on="1"/>
        <pt x="492" y="1625" on="0"/>
        <pt x="506" y="1625" on="1"/>
        <pt x="514" y="1625" on="0"/>
        <pt x="544" y="1630" on="1"/>
        <pt x="558" y="1605" on="0"/>
        <pt x="568" y="1602" on="1"/>
        <pt x="577" y="1600" on="0"/>
        <pt x="602" y="1600" on="1"/>
        <pt x="609" y="1613" on="1"/>
        <pt x="634" y="1619" on="0"/>
        <pt x="653" y="1631" on="1"/>
        <pt x="703" y="1625" on="0"/>
        <pt x="743" y="1624" on="1"/>
        <pt x="794" y="1622" on="0"/>
        <pt x="863" y="1609" on="1"/>
        <pt x="900" y="1609" on="1"/>
        <pt x="962" y="1602" on="1"/>
        <pt x="985" y="1601" on="0"/>
        <pt x="989" y="1600" on="1"/>
        <pt x="1000" y="1597" on="0"/>
        <pt x="1016" y="1582" on="1"/>
        <pt x="1035" y="1585" on="0"/>
        <pt x="1044" y="1585" on="1"/>
        <pt x="1064" y="1585" on="0"/>
        <pt x="1171" y="1544" on="1"/>
        <pt x="1220" y="1529" on="0"/>
        <pt x="1227" y="1521" on="1"/>
        <pt x="1247" y="1498" on="0"/>
        <pt x="1247" y="1459" on="1"/>
        <pt x="1247" y="1412" on="0"/>
        <pt x="1194" y="1334" on="1"/>
        <pt x="1166" y="1289" on="1"/>
        <pt x="1110" y="1240" on="0"/>
        <pt x="1093" y="1217" on="1"/>
        <pt x="1050" y="1217" on="1"/>
        <pt x="1046" y="1214" on="1"/>
        <pt x="1046" y="1183" on="1"/>
        <pt x="1025" y="1171" on="0"/>
        <pt x="1019" y="1168" on="1"/>
        <pt x="968" y="1138" on="0"/>
        <pt x="931" y="1126" on="1"/>
        <pt x="895" y="1109" on="1"/>
        <pt x="856" y="1102" on="0"/>
        <pt x="848" y="1099" on="1"/>
        <pt x="840" y="1095" on="0"/>
        <pt x="829" y="1086" on="1"/>
        <pt x="849" y="1076" on="0"/>
        <pt x="860" y="1074" on="1"/>
        <pt x="862" y="1073" on="0"/>
        <pt x="927" y="1069" on="1"/>
        <pt x="955" y="1067" on="0"/>
        <pt x="995" y="1053" on="1"/>
        <pt x="1051" y="1034" on="0"/>
        <pt x="1080" y="1027" on="1"/>
        <pt x="1102" y="1023" on="0"/>
        <pt x="1123" y="1011" on="1"/>
        <pt x="1119" y="995" on="0"/>
        <pt x="1119" y="983" on="1"/>
        <pt x="1119" y="968" on="0"/>
        <pt x="1146" y="955" on="1"/>
        <pt x="1154" y="964" on="0"/>
        <pt x="1171" y="1002" on="1"/>
        <pt x="1194" y="1001" on="0"/>
        <pt x="1220" y="991" on="1"/>
        <pt x="1268" y="972" on="0"/>
        <pt x="1285" y="965" on="1"/>
        <pt x="1296" y="963" on="0"/>
        <pt x="1304" y="937" on="1"/>
        <pt x="1331" y="925" on="1"/>
        <pt x="1334" y="914" on="1"/>
        <pt x="1349" y="921" on="1"/>
        <pt x="1359" y="910" on="1"/>
        <pt x="1372" y="923" on="0"/>
        <pt x="1384" y="923" on="1"/>
        <pt x="1407" y="923" on="0"/>
        <pt x="1451" y="895" on="1"/>
        <pt x="1530" y="844" on="0"/>
        <pt x="1564" y="820" on="1"/>
        <pt x="1580" y="808" on="0"/>
        <pt x="1603" y="779" on="1"/>
        <pt x="1599" y="770" on="0"/>
        <pt x="1599" y="766" on="1"/>
        <pt x="1599" y="759" on="0"/>
        <pt x="1607" y="747" on="1"/>
        <pt x="1619" y="759" on="0"/>
        <pt x="1627" y="759" on="1"/>
        <pt x="1631" y="759" on="0"/>
        <pt x="1713" y="699" on="1"/>
        <pt x="1726" y="680" on="1"/>
        <pt x="1746" y="669" on="0"/>
        <pt x="1752" y="665" on="1"/>
        <pt x="1755" y="662" on="0"/>
        <pt x="1778" y="630" on="1"/>
        <pt x="1808" y="594" on="0"/>
        <pt x="1819" y="574" on="1"/>
        <pt x="1794" y="553" on="0"/>
        <pt x="1794" y="534" on="1"/>
        <pt x="1794" y="529" on="0"/>
        <pt x="1795" y="521" on="1"/>
        <pt x="1829" y="526" on="1"/>
        <pt x="1849" y="499" on="0"/>
        <pt x="1859" y="476" on="1"/>
        <pt x="1864" y="463" on="0"/>
        <pt x="1880" y="400" on="1"/>
        <pt x="1902" y="352" on="0"/>
        <pt x="1903" y="332" on="1"/>
        <pt x="1903" y="331" on="1"/>
        <pt x="1900" y="294" on="1"/>
        <pt x="1900" y="255" on="1"/>
        <pt x="1899" y="235" on="0"/>
        <pt x="1864" y="198" on="1"/>
        <pt x="1865" y="190" on="0"/>
        <pt x="1879" y="183" on="1"/>
        <pt x="1878" y="171" on="0"/>
        <pt x="1878" y="162" on="1"/>
        <pt x="1878" y="157" on="0"/>
        <pt x="1879" y="152" on="1"/>
        <pt x="1881" y="136" on="0"/>
        <pt x="1881" y="131" on="1"/>
        <pt x="1881" y="125" on="0"/>
        <pt x="1818" y="39" on="1"/>
        <pt x="1796" y="23" on="1"/>
        <pt x="1773" y="2" on="1"/>
        <pt x="1747" y="-15" on="0"/>
        <pt x="1742" y="-19" on="1"/>
        <pt x="1739" y="-23" on="0"/>
        <pt x="1724" y="-50" on="1"/>
        <pt x="1698" y="-85" on="0"/>
        <pt x="1619" y="-116" on="1"/>
        <pt x="1606" y="-104" on="1"/>
        <pt x="1576" y="-107" on="0"/>
        <pt x="1564" y="-112" on="1"/>
        <pt x="1552" y="-118" on="0"/>
        <pt x="1536" y="-142" on="1"/>
        <pt x="1557" y="-144" on="0"/>
        <pt x="1557" y="-159" on="1"/>
        <pt x="1557" y="-165" on="0"/>
        <pt x="1551" y="-173" on="1"/>
        <pt x="1543" y="-184" on="0"/>
        <pt x="1473" y="-197" on="1"/>
        <pt x="1452" y="-201" on="0"/>
        <pt x="1382" y="-233" on="1"/>
        <pt x="1367" y="-239" on="0"/>
        <pt x="1354" y="-244" on="1"/>
        <pt x="1313" y="-259" on="0"/>
        <pt x="1306" y="-263" on="1"/>
        <pt x="1294" y="-269" on="0"/>
        <pt x="1289" y="-269" on="1"/>
        <pt x="1283" y="-269" on="0"/>
        <pt x="1270" y="-260" on="1"/>
        <pt x="1240" y="-270" on="1"/>
        <pt x="1231" y="-285" on="1"/>
        <pt x="1211" y="-289" on="0"/>
        <pt x="1205" y="-290" on="1"/>
        <pt x="1175" y="-295" on="0"/>
        <pt x="1165" y="-300" on="1"/>
        <pt x="1139" y="-315" on="0"/>
        <pt x="1139" y="-315" on="1"/>
        <pt x="1100" y="-304" on="0"/>
        <pt x="1096" y="-304" on="1"/>
        <pt x="1091" y="-304" on="0"/>
        <pt x="1075" y="-319" on="1"/>
        <pt x="1070" y="-325" on="0"/>
        <pt x="1053" y="-327" on="1"/>
        <pt x="1011" y="-334" on="0"/>
        <pt x="988" y="-347" on="1"/>
        <pt x="963" y="-324" on="1"/>
        <pt x="957" y="-324" on="1"/>
        <pt x="945" y="-323" on="0"/>
        <pt x="932" y="-319" on="1"/>
        <pt x="912" y="-347" on="1"/>
        <pt x="716" y="-353" on="1"/>
        <pt x="673" y="-342" on="1"/>
        <pt x="680" y="-312" on="1"/>
        <pt x="652" y="-306" on="1"/>
        <pt x="641" y="-319" on="0"/>
        <pt x="622" y="-325" on="1"/>
        <pt x="590" y="-335" on="0"/>
        <pt x="585" y="-335" on="1"/>
        <pt x="584" y="-335" on="0"/>
        <pt x="510" y="-318" on="1"/>
        <pt x="493" y="-309" on="1"/>
        <pt x="459" y="-311" on="1"/>
        <pt x="435" y="-301" on="0"/>
        <pt x="415" y="-300" on="1"/>
        <pt x="402" y="-299" on="0"/>
        <pt x="362" y="-296" on="1"/>
        <pt x="335" y="-299" on="1"/>
        <pt x="296" y="-296" on="1"/>
        <pt x="205" y="-292" on="1"/>
        <pt x="200" y="-291" on="1"/>
        <pt x="154" y="-297" on="0"/>
        <pt x="145" y="-297" on="1"/>
        <pt x="93" y="-297" on="0"/>
        <pt x="93" y="-274" on="1"/>
        <pt x="93" y="-270" on="0"/>
        <pt x="98" y="-266" on="1"/>
        <pt x="117" y="-248" on="0"/>
        <pt x="137" y="-240" on="1"/>
        <pt x="214" y="-210" on="1"/>
        <pt x="224" y="-206" on="0"/>
        <pt x="234" y="-189" on="1"/>
        <pt x="242" y="-174" on="0"/>
        <pt x="242" y="-167" on="1"/>
        <pt x="240" y="-139" on="1"/>
        <pt x="328" y="-114" on="1"/>
        <pt x="255" y="-94" on="1"/>
        <pt x="239" y="-90" on="0"/>
        <pt x="239" y="-70" on="1"/>
        <pt x="239" y="-65" on="0"/>
        <pt x="252" y="-40" on="1"/>
        <pt x="253" y="17" on="1"/>
        <pt x="253" y="33" on="1"/>
        <pt x="253" y="42" on="0"/>
        <pt x="236" y="78" on="1"/>
        <pt x="332" y="119" on="1"/>
        <pt x="238" y="149" on="1"/>
        <pt x="250" y="163" on="0"/>
        <pt x="251" y="165" on="1"/>
        <pt x="254" y="168" on="0"/>
        <pt x="256" y="188" on="1"/>
        <pt x="256" y="196" on="0"/>
      </contour>
      <contour>
        <pt x="341" y="1337" on="1"/>
        <pt x="345" y="1337" on="1"/>
        <pt x="351" y="1340" on="1"/>
        <pt x="361" y="1320" on="0"/>
        <pt x="377" y="1306" on="1"/>
        <pt x="377" y="1138" on="1"/>
        <pt x="372" y="1110" on="1"/>
        <pt x="397" y="1104" on="0"/>
        <pt x="405" y="1102" on="1"/>
        <pt x="413" y="1100" on="0"/>
        <pt x="417" y="1100" on="1"/>
        <pt x="440" y="1102" on="1"/>
        <pt x="441" y="1102" on="1"/>
        <pt x="442" y="1102" on="0"/>
        <pt x="476" y="1097" on="1"/>
        <pt x="518" y="1095" on="0"/>
        <pt x="562" y="1091" on="1"/>
        <pt x="558" y="1075" on="0"/>
        <pt x="558" y="1065" on="1"/>
        <pt x="558" y="1033" on="0"/>
        <pt x="573" y="1033" on="1"/>
        <pt x="582" y="1033" on="0"/>
        <pt x="619" y="1083" on="1"/>
        <pt x="619" y="1098" on="1"/>
        <pt x="801" y="1135" on="1"/>
        <pt x="813" y="1138" on="0"/>
        <pt x="845" y="1159" on="1"/>
        <pt x="886" y="1173" on="1"/>
        <pt x="921" y="1197" on="1"/>
        <pt x="995" y="1240" on="0"/>
        <pt x="1021" y="1264" on="1"/>
        <pt x="1059" y="1301" on="0"/>
        <pt x="1061" y="1308" on="1"/>
        <pt x="1079" y="1358" on="1"/>
        <pt x="1095" y="1400" on="0"/>
        <pt x="1095" y="1405" on="1"/>
        <pt x="1095" y="1417" on="0"/>
        <pt x="1077" y="1433" on="1"/>
        <pt x="1090" y="1463" on="1"/>
        <pt x="1081" y="1467" on="0"/>
        <pt x="1077" y="1467" on="1"/>
        <pt x="1075" y="1467" on="0"/>
        <pt x="1045" y="1455" on="1"/>
        <pt x="1001" y="1503" on="1"/>
        <pt x="991" y="1502" on="0"/>
        <pt x="986" y="1502" on="1"/>
        <pt x="973" y="1502" on="0"/>
        <pt x="948" y="1508" on="1"/>
        <pt x="938" y="1524" on="0"/>
        <pt x="936" y="1525" on="1"/>
        <pt x="836" y="1544" on="1"/>
        <pt x="799" y="1556" on="1"/>
        <pt x="767" y="1551" on="1"/>
        <pt x="748" y="1553" on="1"/>
        <pt x="721" y="1553" on="1"/>
        <pt x="684" y="1562" on="1"/>
        <pt x="645" y="1564" on="1"/>
        <pt x="611" y="1566" on="1"/>
        <pt x="526" y="1554" on="1"/>
        <pt x="450" y="1547" on="1"/>
        <pt x="419" y="1540" on="0"/>
        <pt x="399" y="1540" on="1"/>
        <pt x="393" y="1540" on="0"/>
        <pt x="375" y="1540" on="1"/>
        <pt x="365" y="1518" on="0"/>
        <pt x="364" y="1515" on="1"/>
        <pt x="357" y="1399" on="1"/>
        <pt x="356" y="1383" on="0"/>
        <pt x="331" y="1363" on="1"/>
        <pt x="333" y="1360" on="1"/>
        <pt x="339" y="1350" on="0"/>
      </contour>
      <contour>
        <pt x="354" y="71" on="1"/>
        <pt x="363" y="38" on="1"/>
        <pt x="394" y="43" on="1"/>
        <pt x="406" y="15" on="0"/>
        <pt x="406" y="-6" on="1"/>
        <pt x="406" y="-11" on="1"/>
        <pt x="406" y="-23" on="0"/>
        <pt x="404" y="-39" on="1"/>
        <pt x="401" y="-54" on="0"/>
        <pt x="401" y="-55" on="1"/>
        <pt x="415" y="-129" on="0"/>
        <pt x="415" y="-133" on="1"/>
        <pt x="415" y="-154" on="0"/>
        <pt x="391" y="-178" on="1"/>
        <pt x="381" y="-175" on="0"/>
        <pt x="373" y="-175" on="1"/>
        <pt x="367" y="-175" on="0"/>
        <pt x="359" y="-185" on="1"/>
        <pt x="383" y="-201" on="0"/>
        <pt x="414" y="-206" on="1"/>
        <pt x="441" y="-209" on="0"/>
        <pt x="463" y="-221" on="1"/>
        <pt x="467" y="-241" on="1"/>
        <pt x="484" y="-238" on="0"/>
        <pt x="496" y="-222" on="1"/>
        <pt x="530" y="-238" on="0"/>
        <pt x="572" y="-246" on="1"/>
        <pt x="606" y="-260" on="1"/>
        <pt x="637" y="-264" on="1"/>
        <pt x="759" y="-282" on="0"/>
        <pt x="828" y="-282" on="1"/>
        <pt x="886" y="-282" on="0"/>
        <pt x="991" y="-260" on="1"/>
        <pt x="1011" y="-276" on="1"/>
        <pt x="1024" y="-260" on="0"/>
        <pt x="1029" y="-259" on="1"/>
        <pt x="1073" y="-253" on="1"/>
        <pt x="1084" y="-252" on="0"/>
        <pt x="1106" y="-231" on="1"/>
        <pt x="1143" y="-230" on="0"/>
        <pt x="1153" y="-227" on="1"/>
        <pt x="1209" y="-213" on="1"/>
        <pt x="1253" y="-204" on="0"/>
        <pt x="1286" y="-187" on="1"/>
        <pt x="1306" y="-177" on="0"/>
        <pt x="1316" y="-177" on="1"/>
        <pt x="1320" y="-177" on="0"/>
        <pt x="1332" y="-181" on="1"/>
        <pt x="1341" y="-170" on="0"/>
        <pt x="1358" y="-164" on="1"/>
        <pt x="1471" y="-115" on="0"/>
        <pt x="1518" y="-72" on="1"/>
        <pt x="1528" y="-64" on="0"/>
        <pt x="1606" y="-22" on="1"/>
        <pt x="1611" y="-19" on="0"/>
        <pt x="1627" y="11" on="1"/>
        <pt x="1650" y="39" on="0"/>
        <pt x="1657" y="47" on="1"/>
        <pt x="1668" y="59" on="0"/>
        <pt x="1705" y="72" on="1"/>
        <pt x="1707" y="93" on="1"/>
        <pt x="1799" y="108" on="0"/>
        <pt x="1799" y="115" on="1"/>
        <pt x="1799" y="122" on="0"/>
        <pt x="1704" y="133" on="1"/>
        <pt x="1719" y="162" on="0"/>
        <pt x="1724" y="172" on="1"/>
        <pt x="1725" y="177" on="0"/>
        <pt x="1736" y="226" on="1"/>
        <pt x="1742" y="243" on="0"/>
        <pt x="1743" y="256" on="1"/>
        <pt x="1739" y="260" on="1"/>
        <pt x="1757" y="274" on="1"/>
        <pt x="1746" y="291" on="0"/>
        <pt x="1746" y="296" on="1"/>
        <pt x="1746" y="345" on="1"/>
        <pt x="1726" y="381" on="1"/>
        <pt x="1727" y="410" on="1"/>
        <pt x="1727" y="440" on="0"/>
        <pt x="1665" y="520" on="1"/>
        <pt x="1641" y="552" on="0"/>
        <pt x="1567" y="625" on="1"/>
        <pt x="1569" y="636" on="0"/>
        <pt x="1569" y="644" on="1"/>
        <pt x="1569" y="652" on="0"/>
        <pt x="1562" y="659" on="1"/>
        <pt x="1552" y="668" on="0"/>
        <pt x="1549" y="668" on="1"/>
        <pt x="1538" y="668" on="1"/>
        <pt x="1518" y="677" on="0"/>
        <pt x="1499" y="687" on="1"/>
        <pt x="1461" y="708" on="0"/>
        <pt x="1453" y="713" on="1"/>
        <pt x="1447" y="717" on="0"/>
        <pt x="1438" y="733" on="1"/>
        <pt x="1437" y="734" on="0"/>
        <pt x="1431" y="738" on="1"/>
        <pt x="1422" y="743" on="0"/>
        <pt x="1413" y="750" on="1"/>
        <pt x="1393" y="765" on="0"/>
        <pt x="1372" y="771" on="1"/>
        <pt x="1351" y="784" on="1"/>
        <pt x="1334" y="793" on="0"/>
        <pt x="1331" y="796" on="1"/>
        <pt x="1329" y="798" on="0"/>
        <pt x="1314" y="832" on="1"/>
        <pt x="1312" y="836" on="0"/>
        <pt x="1306" y="836" on="1"/>
        <pt x="1303" y="836" on="0"/>
        <pt x="1271" y="822" on="1"/>
        <pt x="1268" y="821" on="0"/>
        <pt x="1266" y="821" on="1"/>
        <pt x="1253" y="821" on="0"/>
        <pt x="1237" y="830" on="1"/>
        <pt x="1217" y="843" on="0"/>
        <pt x="1189" y="853" on="1"/>
        <pt x="1169" y="863" on="1"/>
        <pt x="1079" y="890" on="1"/>
        <pt x="1017" y="923" on="1"/>
        <pt x="989" y="934" on="0"/>
        <pt x="973" y="947" on="1"/>
        <pt x="939" y="931" on="0"/>
        <pt x="933" y="931" on="1"/>
        <pt x="933" y="931" on="0"/>
        <pt x="877" y="949" on="1"/>
        <pt x="841" y="963" on="1"/>
        <pt x="800" y="969" on="1"/>
        <pt x="767" y="977" on="1"/>
        <pt x="748" y="980" on="1"/>
        <pt x="711" y="988" on="1"/>
        <pt x="626" y="996" on="0"/>
        <pt x="623" y="996" on="1"/>
        <pt x="570" y="994" on="1"/>
        <pt x="488" y="997" on="1"/>
        <pt x="443" y="997" on="0"/>
        <pt x="397" y="955" on="1"/>
        <pt x="400" y="931" on="0"/>
        <pt x="410" y="881" on="1"/>
        <pt x="411" y="877" on="0"/>
        <pt x="411" y="872" on="1"/>
        <pt x="411" y="861" on="0"/>
        <pt x="402" y="835" on="1"/>
        <pt x="400" y="835" on="1"/>
        <pt x="376" y="835" on="0"/>
        <pt x="367" y="828" on="1"/>
        <pt x="372" y="793" on="0"/>
        <pt x="374" y="787" on="1"/>
        <pt x="376" y="782" on="0"/>
        <pt x="395" y="761" on="1"/>
        <pt x="391" y="746" on="0"/>
        <pt x="390" y="728" on="1"/>
        <pt x="390" y="726" on="1"/>
        <pt x="390" y="705" on="0"/>
        <pt x="390" y="698" on="1"/>
        <pt x="390" y="691" on="0"/>
        <pt x="390" y="690" on="1"/>
        <pt x="390" y="679" on="0"/>
        <pt x="397" y="636" on="1"/>
        <pt x="399" y="619" on="0"/>
        <pt x="399" y="604" on="1"/>
        <pt x="399" y="591" on="0"/>
        <pt x="397" y="567" on="1"/>
        <pt x="392" y="508" on="1"/>
        <pt x="390" y="487" on="1"/>
        <pt x="400" y="449" on="1"/>
        <pt x="402" y="400" on="1"/>
        <pt x="409" y="359" on="0"/>
        <pt x="409" y="346" on="1"/>
        <pt x="409" y="327" on="0"/>
        <pt x="400" y="281" on="1"/>
        <pt x="384" y="281" on="1"/>
        <pt x="389" y="231" on="1"/>
        <pt x="415" y="211" on="0"/>
        <pt x="415" y="191" on="1"/>
        <pt x="414" y="124" on="1"/>
        <pt x="414" y="115" on="0"/>
        <pt x="415" y="95" on="1"/>
        <pt x="409" y="89" on="1"/>
        <pt x="404" y="89" on="1"/>
        <pt x="400" y="85" on="1"/>
        <pt x="400" y="79" on="1"/>
        <pt x="385" y="80" on="0"/>
        <pt x="375" y="80" on="1"/>
        <pt x="360" y="80" on="0"/>
      </contour>
    </TTGlyph>
    <TTGlyph name="C" xMin="123" yMin="-336" xMax="1999" yMax="1665">
      <contour>
        <pt x="146" y="643" on="1"/>
        <pt x="131" y="652" on="0"/>
        <pt x="131" y="664" on="1"/>
        <pt x="131" y="669" on="0"/>
        <pt x="143" y="714" on="1"/>
        <pt x="147" y="741" on="0"/>
        <pt x="168" y="813" on="1"/>
        <pt x="211" y="816" on="1"/>
        <pt x="210" y="828" on="0"/>
        <pt x="197" y="855" on="1"/>
        <pt x="194" y="861" on="0"/>
        <pt x="194" y="870" on="1"/>
        <pt x="194" y="882" on="0"/>
        <pt x="219" y="951" on="1"/>
        <pt x="227" y="992" on="0"/>
        <pt x="244" y="1026" on="1"/>
        <pt x="256" y="1046" on="0"/>
        <pt x="277" y="1081" on="1"/>
        <pt x="291" y="1079" on="0"/>
        <pt x="295" y="1077" on="1"/>
        <pt x="310" y="1072" on="0"/>
        <pt x="312" y="1072" on="1"/>
        <pt x="319" y="1072" on="0"/>
        <pt x="332" y="1083" on="1"/>
        <pt x="345" y="1085" on="0"/>
        <pt x="353" y="1093" on="0"/>
        <pt x="356" y="1105" on="1"/>
        <pt x="332" y="1108" on="1"/>
        <pt x="322" y="1144" on="1"/>
        <pt x="322" y="1144" on="1"/>
        <pt x="322" y="1154" on="0"/>
        <pt x="352" y="1184" on="1"/>
        <pt x="359" y="1191" on="0"/>
        <pt x="368" y="1204" on="1"/>
        <pt x="381" y="1226" on="0"/>
        <pt x="386" y="1231" on="1"/>
        <pt x="403" y="1248" on="0"/>
        <pt x="410" y="1267" on="1"/>
        <pt x="417" y="1274" on="1"/>
        <pt x="435" y="1300" on="0"/>
        <pt x="446" y="1308" on="1"/>
        <pt x="452" y="1313" on="0"/>
        <pt x="487" y="1336" on="1"/>
        <pt x="490" y="1333" on="1"/>
        <pt x="518" y="1347" on="1"/>
        <pt x="520" y="1370" on="1"/>
        <pt x="649" y="1473" on="1"/>
        <pt x="656" y="1479" on="0"/>
        <pt x="679" y="1491" on="1"/>
        <pt x="706" y="1509" on="1"/>
        <pt x="731" y="1516" on="1"/>
        <pt x="770" y="1543" on="0"/>
        <pt x="775" y="1543" on="1"/>
        <pt x="784" y="1543" on="0"/>
        <pt x="804" y="1533" on="1"/>
        <pt x="818" y="1570" on="1"/>
        <pt x="859" y="1562" on="1"/>
        <pt x="862" y="1581" on="1"/>
        <pt x="895" y="1591" on="0"/>
        <pt x="906" y="1595" on="1"/>
        <pt x="942" y="1609" on="0"/>
        <pt x="978" y="1612" on="1"/>
        <pt x="1008" y="1621" on="1"/>
        <pt x="1043" y="1628" on="0"/>
        <pt x="1047" y="1630" on="1"/>
        <pt x="1056" y="1634" on="0"/>
        <pt x="1071" y="1648" on="1"/>
        <pt x="1085" y="1647" on="0"/>
        <pt x="1095" y="1647" on="1"/>
        <pt x="1107" y="1647" on="0"/>
        <pt x="1145" y="1660" on="1"/>
        <pt x="1160" y="1665" on="0"/>
        <pt x="1178" y="1665" on="1"/>
        <pt x="1193" y="1665" on="0"/>
        <pt x="1207" y="1661" on="1"/>
        <pt x="1218" y="1658" on="0"/>
        <pt x="1221" y="1659" on="1"/>
        <pt x="1354" y="1663" on="1"/>
        <pt x="1392" y="1661" on="0"/>
        <pt x="1424" y="1626" on="1"/>
        <pt x="1446" y="1602" on="0"/>
        <pt x="1451" y="1602" on="1"/>
        <pt x="1469" y="1602" on="0"/>
        <pt x="1485" y="1644" on="1"/>
        <pt x="1517" y="1623" on="0"/>
        <pt x="1539" y="1623" on="1"/>
        <pt x="1546" y="1623" on="0"/>
        <pt x="1553" y="1624" on="1"/>
        <pt x="1580" y="1630" on="0"/>
        <pt x="1580" y="1630" on="1"/>
        <pt x="1612" y="1619" on="1"/>
        <pt x="1744" y="1585" on="0"/>
        <pt x="1782" y="1568" on="1"/>
        <pt x="1782" y="1538" on="1"/>
        <pt x="1781" y="1538" on="1"/>
        <pt x="1765" y="1522" on="0"/>
        <pt x="1761" y="1517" on="1"/>
        <pt x="1724" y="1478" on="0"/>
        <pt x="1712" y="1478" on="1"/>
        <pt x="1702" y="1478" on="0"/>
        <pt x="1679" y="1491" on="1"/>
        <pt x="1622" y="1514" on="0"/>
        <pt x="1548" y="1541" on="1"/>
        <pt x="1535" y="1574" on="1"/>
        <pt x="1515" y="1570" on="0"/>
        <pt x="1509" y="1568" on="1"/>
        <pt x="1493" y="1563" on="0"/>
        <pt x="1490" y="1563" on="1"/>
        <pt x="1486" y="1563" on="0"/>
        <pt x="1425" y="1584" on="1"/>
        <pt x="1407" y="1591" on="0"/>
        <pt x="1402" y="1598" on="1"/>
        <pt x="1397" y="1605" on="0"/>
        <pt x="1393" y="1612" on="1"/>
        <pt x="1360" y="1599" on="0"/>
        <pt x="1351" y="1599" on="1"/>
        <pt x="1294" y="1599" on="1"/>
        <pt x="1214" y="1599" on="1"/>
        <pt x="1189" y="1602" on="1"/>
        <pt x="1144" y="1595" on="0"/>
        <pt x="1120" y="1585" on="1"/>
        <pt x="1059" y="1578" on="1"/>
        <pt x="1020" y="1570" on="0"/>
        <pt x="998" y="1566" on="1"/>
        <pt x="986" y="1564" on="0"/>
        <pt x="959" y="1549" on="1"/>
        <pt x="909" y="1526" on="1"/>
        <pt x="873" y="1501" on="1"/>
        <pt x="764" y="1456" on="0"/>
        <pt x="726" y="1405" on="1"/>
        <pt x="701" y="1398" on="0"/>
        <pt x="667" y="1377" on="1"/>
        <pt x="667" y="1365" on="0"/>
        <pt x="663" y="1354" on="1"/>
        <pt x="643" y="1344" on="0"/>
        <pt x="610" y="1311" on="1"/>
        <pt x="586" y="1289" on="1"/>
        <pt x="556" y="1248" on="0"/>
        <pt x="547" y="1243" on="1"/>
        <pt x="538" y="1237" on="0"/>
        <pt x="530" y="1237" on="1"/>
        <pt x="526" y="1237" on="0"/>
        <pt x="518" y="1238" on="1"/>
        <pt x="524" y="1227" on="0"/>
        <pt x="524" y="1224" on="1"/>
        <pt x="524" y="1221" on="0"/>
        <pt x="475" y="1141" on="1"/>
        <pt x="437" y="1101" on="0"/>
        <pt x="431" y="1092" on="1"/>
        <pt x="428" y="1086" on="0"/>
        <pt x="408" y="1039" on="1"/>
        <pt x="387" y="989" on="1"/>
        <pt x="378" y="960" on="1"/>
        <pt x="350" y="911" on="0"/>
        <pt x="343" y="887" on="1"/>
        <pt x="339" y="871" on="0"/>
        <pt x="330" y="827" on="1"/>
        <pt x="315" y="768" on="0"/>
        <pt x="313" y="762" on="1"/>
        <pt x="310" y="748" on="0"/>
        <pt x="280" y="742" on="1"/>
        <pt x="283" y="716" on="0"/>
        <pt x="303" y="699" on="1"/>
        <pt x="293" y="673" on="0"/>
        <pt x="293" y="665" on="1"/>
        <pt x="293" y="643" on="0"/>
        <pt x="301" y="610" on="1"/>
        <pt x="302" y="607" on="0"/>
        <pt x="302" y="606" on="1"/>
        <pt x="302" y="597" on="0"/>
        <pt x="293" y="593" on="1"/>
        <pt x="214" y="563" on="1"/>
        <pt x="205" y="560" on="0"/>
        <pt x="205" y="552" on="1"/>
        <pt x="205" y="548" on="0"/>
        <pt x="210" y="541" on="1"/>
        <pt x="225" y="518" on="0"/>
        <pt x="229" y="507" on="1"/>
        <pt x="237" y="486" on="0"/>
        <pt x="239" y="485" on="1"/>
        <pt x="261" y="467" on="0"/>
        <pt x="284" y="448" on="1"/>
        <pt x="301" y="402" on="1"/>
        <pt x="308" y="387" on="0"/>
        <pt x="310" y="366" on="1"/>
        <pt x="304" y="366" on="1"/>
        <pt x="310" y="332" on="1"/>
        <pt x="324" y="328" on="1"/>
        <pt x="335" y="309" on="0"/>
        <pt x="335" y="297" on="1"/>
        <pt x="338" y="297" on="1"/>
        <pt x="341" y="277" on="0"/>
        <pt x="342" y="271" on="1"/>
        <pt x="347" y="240" on="0"/>
        <pt x="351" y="233" on="1"/>
        <pt x="369" y="197" on="1"/>
        <pt x="397" y="124" on="0"/>
        <pt x="397" y="111" on="1"/>
        <pt x="397" y="101" on="0"/>
        <pt x="377" y="101" on="1"/>
        <pt x="387" y="76" on="1"/>
        <pt x="407" y="77" on="0"/>
        <pt x="418" y="73" on="1"/>
        <pt x="428" y="69" on="0"/>
        <pt x="437" y="63" on="1"/>
        <pt x="457" y="40" on="0"/>
        <pt x="475" y="16" on="1"/>
        <pt x="505" y="-11" on="1"/>
        <pt x="528" y="-40" on="1"/>
        <pt x="568" y="-62" on="0"/>
        <pt x="583" y="-74" on="1"/>
        <pt x="584" y="-98" on="0"/>
        <pt x="599" y="-109" on="1"/>
        <pt x="618" y="-123" on="0"/>
        <pt x="647" y="-133" on="1"/>
        <pt x="692" y="-160" on="1"/>
        <pt x="726" y="-176" on="1"/>
        <pt x="757" y="-192" on="1"/>
        <pt x="790" y="-205" on="1"/>
        <pt x="813" y="-222" on="1"/>
        <pt x="823" y="-227" on="0"/>
        <pt x="833" y="-239" on="1"/>
        <pt x="847" y="-225" on="0"/>
        <pt x="860" y="-225" on="1"/>
        <pt x="862" y="-225" on="0"/>
        <pt x="976" y="-256" on="1"/>
        <pt x="1100" y="-257" on="0"/>
        <pt x="1113" y="-257" on="0"/>
        <pt x="1122" y="-263" on="1"/>
        <pt x="1139" y="-272" on="0"/>
        <pt x="1151" y="-274" on="1"/>
        <pt x="1165" y="-266" on="0"/>
        <pt x="1168" y="-261" on="1"/>
        <pt x="1176" y="-254" on="0"/>
        <pt x="1180" y="-254" on="1"/>
        <pt x="1192" y="-255" on="1"/>
        <pt x="1199" y="-256" on="1"/>
        <pt x="1280" y="-245" on="1"/>
        <pt x="1299" y="-244" on="0"/>
        <pt x="1370" y="-225" on="1"/>
        <pt x="1407" y="-236" on="0"/>
        <pt x="1414" y="-236" on="1"/>
        <pt x="1429" y="-236" on="0"/>
        <pt x="1464" y="-213" on="1"/>
        <pt x="1511" y="-202" on="1"/>
        <pt x="1554" y="-188" on="0"/>
        <pt x="1568" y="-180" on="1"/>
        <pt x="1591" y="-185" on="1"/>
        <pt x="1604" y="-187" on="0"/>
        <pt x="1676" y="-163" on="1"/>
        <pt x="1759" y="-135" on="0"/>
        <pt x="1763" y="-133" on="1"/>
        <pt x="1766" y="-131" on="0"/>
        <pt x="1779" y="-114" on="1"/>
        <pt x="1817" y="-95" on="1"/>
        <pt x="1848" y="-77" on="0"/>
        <pt x="1875" y="-77" on="1"/>
        <pt x="1881" y="-77" on="0"/>
        <pt x="1899" y="-83" on="1"/>
        <pt x="1900" y="-57" on="0"/>
        <pt x="1908" y="-51" on="1"/>
        <pt x="1913" y="-46" on="0"/>
        <pt x="1942" y="-34" on="1"/>
        <pt x="1974" y="-15" on="0"/>
        <pt x="1978" y="-15" on="1"/>
        <pt x="1985" y="-15" on="0"/>
        <pt x="1999" y="-24" on="1"/>
        <pt x="1995" y="-77" on="0"/>
        <pt x="1978" y="-106" on="1"/>
        <pt x="1969" y="-121" on="0"/>
        <pt x="1964" y="-145" on="1"/>
        <pt x="1961" y="-154" on="0"/>
        <pt x="1952" y="-160" on="1"/>
        <pt x="1944" y="-165" on="0"/>
        <pt x="1868" y="-178" on="1"/>
        <pt x="1833" y="-193" on="0"/>
        <pt x="1821" y="-195" on="1"/>
        <pt x="1814" y="-197" on="0"/>
        <pt x="1767" y="-208" on="1"/>
        <pt x="1723" y="-217" on="1"/>
        <pt x="1676" y="-230" on="1"/>
        <pt x="1634" y="-236" on="1"/>
        <pt x="1572" y="-255" on="0"/>
        <pt x="1562" y="-255" on="1"/>
        <pt x="1551" y="-255" on="0"/>
        <pt x="1531" y="-254" on="1"/>
        <pt x="1517" y="-254" on="0"/>
        <pt x="1490" y="-253" on="1"/>
        <pt x="1490" y="-259" on="1"/>
        <pt x="1490" y="-278" on="0"/>
        <pt x="1466" y="-278" on="1"/>
        <pt x="1462" y="-278" on="0"/>
        <pt x="1458" y="-277" on="1"/>
        <pt x="1439" y="-275" on="0"/>
        <pt x="1438" y="-275" on="1"/>
        <pt x="1437" y="-275" on="0"/>
        <pt x="1427" y="-277" on="1"/>
        <pt x="1304" y="-305" on="1"/>
        <pt x="1265" y="-313" on="0"/>
        <pt x="1214" y="-315" on="1"/>
        <pt x="1138" y="-319" on="1"/>
        <pt x="1138" y="-319" on="0"/>
        <pt x="1134" y="-319" on="1"/>
        <pt x="1125" y="-333" on="0"/>
        <pt x="1109" y="-334" on="1"/>
        <pt x="1063" y="-336" on="0"/>
        <pt x="1030" y="-336" on="1"/>
        <pt x="1009" y="-336" on="0"/>
        <pt x="963" y="-318" on="1"/>
        <pt x="953" y="-314" on="0"/>
        <pt x="938" y="-314" on="1"/>
        <pt x="925" y="-314" on="0"/>
        <pt x="911" y="-332" on="1"/>
        <pt x="862" y="-330" on="1"/>
        <pt x="844" y="-302" on="0"/>
        <pt x="828" y="-302" on="1"/>
        <pt x="825" y="-302" on="1"/>
        <pt x="804" y="-302" on="0"/>
        <pt x="788" y="-303" on="1"/>
        <pt x="772" y="-305" on="0"/>
        <pt x="770" y="-305" on="1"/>
        <pt x="732" y="-305" on="0"/>
        <pt x="675" y="-274" on="1"/>
        <pt x="632" y="-250" on="0"/>
        <pt x="579" y="-228" on="1"/>
        <pt x="496" y="-176" on="0"/>
        <pt x="469" y="-163" on="1"/>
        <pt x="462" y="-145" on="1"/>
        <pt x="484" y="-145" on="1"/>
        <pt x="484" y="-137" on="0"/>
        <pt x="484" y="-131" on="1"/>
        <pt x="484" y="-98" on="0"/>
        <pt x="459" y="-95" on="1"/>
        <pt x="444" y="-112" on="0"/>
        <pt x="434" y="-112" on="1"/>
        <pt x="429" y="-112" on="0"/>
        <pt x="399" y="-87" on="1"/>
        <pt x="331" y="-40" on="1"/>
        <pt x="310" y="-11" on="1"/>
        <pt x="300" y="0" on="1"/>
        <pt x="265" y="52" on="1"/>
        <pt x="187" y="158" on="0"/>
        <pt x="161" y="290" on="1"/>
        <pt x="181" y="302" on="1"/>
        <pt x="181" y="321" on="1"/>
        <pt x="159" y="336" on="1"/>
        <pt x="159" y="359" on="0"/>
        <pt x="150" y="379" on="1"/>
        <pt x="144" y="400" on="1"/>
        <pt x="133" y="417" on="0"/>
        <pt x="132" y="422" on="1"/>
        <pt x="131" y="426" on="0"/>
        <pt x="131" y="460" on="1"/>
        <pt x="127" y="504" on="1"/>
        <pt x="133" y="524" on="1"/>
        <pt x="123" y="553" on="0"/>
        <pt x="123" y="562" on="1"/>
        <pt x="123" y="585" on="0"/>
        <pt x="138" y="606" on="1"/>
        <pt x="140" y="608" on="0"/>
      </contour>
    </TTGlyph>
    <TTGlyph name="Ccedilla" xMin="123" yMin="-680" xMax="1999" yMax="1665">
      <contour>
        <pt x="146" y="643" on="1"/>
        <pt x="131" y="652" on="0"/>
        <pt x="131" y="664" on="1"/>
        <pt x="131" y="669" on="0"/>
        <pt x="143" y="714" on="1"/>
        <pt x="147" y="741" on="0"/>
        <pt x="168" y="813" on="1"/>
        <pt x="211" y="816" on="1"/>
        <pt x="210" y="828" on="0"/>
        <pt x="197" y="855" on="1"/>
        <pt x="194" y="861" on="0"/>
        <pt x="194" y="870" on="1"/>
        <pt x="194" y="882" on="0"/>
        <pt x="219" y="951" on="1"/>
        <pt x="227" y="992" on="0"/>
        <pt x="245" y="1026" on="1"/>
        <pt x="256" y="1046" on="0"/>
        <pt x="277" y="1081" on="1"/>
        <pt x="291" y="1079" on="0"/>
        <pt x="295" y="1077" on="1"/>
        <pt x="310" y="1072" on="0"/>
        <pt x="312" y="1072" on="1"/>
        <pt x="319" y="1072" on="0"/>
        <pt x="332" y="1083" on="1"/>
        <pt x="345" y="1085" on="0"/>
        <pt x="353" y="1093" on="0"/>
        <pt x="356" y="1105" on="1"/>
        <pt x="332" y="1108" on="1"/>
        <pt x="322" y="1144" on="1"/>
        <pt x="322" y="1144" on="1"/>
        <pt x="322" y="1154" on="0"/>
        <pt x="352" y="1184" on="1"/>
        <pt x="359" y="1191" on="0"/>
        <pt x="368" y="1204" on="1"/>
        <pt x="381" y="1226" on="0"/>
        <pt x="386" y="1231" on="1"/>
        <pt x="403" y="1248" on="0"/>
        <pt x="410" y="1267" on="1"/>
        <pt x="417" y="1274" on="1"/>
        <pt x="436" y="1300" on="0"/>
        <pt x="446" y="1308" on="1"/>
        <pt x="453" y="1313" on="0"/>
        <pt x="487" y="1336" on="1"/>
        <pt x="490" y="1333" on="1"/>
        <pt x="518" y="1347" on="1"/>
        <pt x="520" y="1370" on="1"/>
        <pt x="649" y="1473" on="1"/>
        <pt x="656" y="1479" on="0"/>
        <pt x="679" y="1491" on="1"/>
        <pt x="707" y="1509" on="1"/>
        <pt x="731" y="1516" on="1"/>
        <pt x="770" y="1543" on="0"/>
        <pt x="775" y="1543" on="1"/>
        <pt x="785" y="1543" on="0"/>
        <pt x="804" y="1533" on="1"/>
        <pt x="818" y="1570" on="1"/>
        <pt x="859" y="1562" on="1"/>
        <pt x="863" y="1581" on="1"/>
        <pt x="896" y="1591" on="0"/>
        <pt x="906" y="1595" on="1"/>
        <pt x="942" y="1609" on="0"/>
        <pt x="978" y="1612" on="1"/>
        <pt x="1008" y="1621" on="1"/>
        <pt x="1043" y="1628" on="0"/>
        <pt x="1047" y="1630" on="1"/>
        <pt x="1057" y="1634" on="0"/>
        <pt x="1071" y="1648" on="1"/>
        <pt x="1085" y="1647" on="0"/>
        <pt x="1096" y="1647" on="1"/>
        <pt x="1107" y="1647" on="0"/>
        <pt x="1146" y="1660" on="1"/>
        <pt x="1160" y="1665" on="0"/>
        <pt x="1179" y="1665" on="1"/>
        <pt x="1193" y="1665" on="0"/>
        <pt x="1207" y="1661" on="1"/>
        <pt x="1218" y="1658" on="0"/>
        <pt x="1222" y="1659" on="1"/>
        <pt x="1355" y="1663" on="1"/>
        <pt x="1393" y="1661" on="0"/>
        <pt x="1424" y="1626" on="1"/>
        <pt x="1446" y="1602" on="0"/>
        <pt x="1451" y="1602" on="1"/>
        <pt x="1470" y="1602" on="0"/>
        <pt x="1486" y="1644" on="1"/>
        <pt x="1517" y="1623" on="0"/>
        <pt x="1539" y="1623" on="1"/>
        <pt x="1546" y="1623" on="0"/>
        <pt x="1554" y="1624" on="1"/>
        <pt x="1580" y="1630" on="0"/>
        <pt x="1580" y="1630" on="1"/>
        <pt x="1613" y="1619" on="1"/>
        <pt x="1743" y="1585" on="0"/>
        <pt x="1782" y="1568" on="1"/>
        <pt x="1782" y="1538" on="1"/>
        <pt x="1781" y="1538" on="1"/>
        <pt x="1765" y="1522" on="0"/>
        <pt x="1761" y="1517" on="1"/>
        <pt x="1724" y="1478" on="0"/>
        <pt x="1709" y="1478" on="1"/>
        <pt x="1701" y="1478" on="0"/>
        <pt x="1672" y="1494" on="1"/>
        <pt x="1644" y="1510" on="0"/>
        <pt x="1547" y="1541" on="1"/>
        <pt x="1547" y="1550" on="1"/>
        <pt x="1538" y="1545" on="1"/>
        <pt x="1538" y="1575" on="1"/>
        <pt x="1516" y="1570" on="0"/>
        <pt x="1509" y="1568" on="1"/>
        <pt x="1494" y="1563" on="0"/>
        <pt x="1490" y="1563" on="1"/>
        <pt x="1487" y="1563" on="0"/>
        <pt x="1425" y="1584" on="1"/>
        <pt x="1407" y="1591" on="0"/>
        <pt x="1402" y="1598" on="1"/>
        <pt x="1398" y="1605" on="0"/>
        <pt x="1394" y="1612" on="1"/>
        <pt x="1360" y="1599" on="0"/>
        <pt x="1352" y="1599" on="1"/>
        <pt x="1294" y="1599" on="1"/>
        <pt x="1215" y="1599" on="1"/>
        <pt x="1190" y="1602" on="1"/>
        <pt x="1144" y="1595" on="0"/>
        <pt x="1121" y="1585" on="1"/>
        <pt x="1060" y="1578" on="1"/>
        <pt x="1021" y="1570" on="0"/>
        <pt x="999" y="1566" on="1"/>
        <pt x="987" y="1564" on="0"/>
        <pt x="960" y="1549" on="1"/>
        <pt x="909" y="1526" on="1"/>
        <pt x="874" y="1501" on="1"/>
        <pt x="764" y="1456" on="0"/>
        <pt x="726" y="1405" on="1"/>
        <pt x="701" y="1398" on="0"/>
        <pt x="667" y="1377" on="1"/>
        <pt x="667" y="1365" on="0"/>
        <pt x="663" y="1354" on="1"/>
        <pt x="643" y="1344" on="0"/>
        <pt x="610" y="1311" on="1"/>
        <pt x="586" y="1289" on="1"/>
        <pt x="556" y="1248" on="0"/>
        <pt x="548" y="1243" on="1"/>
        <pt x="538" y="1237" on="0"/>
        <pt x="530" y="1237" on="1"/>
        <pt x="526" y="1237" on="0"/>
        <pt x="518" y="1238" on="1"/>
        <pt x="525" y="1227" on="0"/>
        <pt x="525" y="1223" on="1"/>
        <pt x="525" y="1221" on="0"/>
        <pt x="476" y="1141" on="1"/>
        <pt x="438" y="1101" on="0"/>
        <pt x="432" y="1092" on="1"/>
        <pt x="429" y="1086" on="0"/>
        <pt x="408" y="1039" on="1"/>
        <pt x="387" y="989" on="1"/>
        <pt x="378" y="960" on="1"/>
        <pt x="351" y="911" on="0"/>
        <pt x="343" y="887" on="1"/>
        <pt x="339" y="871" on="0"/>
        <pt x="331" y="827" on="1"/>
        <pt x="315" y="768" on="0"/>
        <pt x="313" y="762" on="1"/>
        <pt x="310" y="748" on="0"/>
        <pt x="280" y="742" on="1"/>
        <pt x="283" y="716" on="0"/>
        <pt x="303" y="699" on="1"/>
        <pt x="293" y="673" on="0"/>
        <pt x="293" y="665" on="1"/>
        <pt x="293" y="643" on="0"/>
        <pt x="301" y="610" on="1"/>
        <pt x="302" y="607" on="0"/>
        <pt x="302" y="606" on="1"/>
        <pt x="302" y="597" on="0"/>
        <pt x="293" y="593" on="1"/>
        <pt x="214" y="563" on="1"/>
        <pt x="205" y="560" on="0"/>
        <pt x="205" y="552" on="1"/>
        <pt x="205" y="548" on="0"/>
        <pt x="210" y="541" on="1"/>
        <pt x="225" y="518" on="0"/>
        <pt x="229" y="507" on="1"/>
        <pt x="237" y="486" on="0"/>
        <pt x="239" y="485" on="1"/>
        <pt x="261" y="467" on="0"/>
        <pt x="284" y="448" on="1"/>
        <pt x="301" y="402" on="1"/>
        <pt x="308" y="387" on="0"/>
        <pt x="310" y="366" on="1"/>
        <pt x="304" y="366" on="1"/>
        <pt x="310" y="332" on="1"/>
        <pt x="324" y="328" on="1"/>
        <pt x="335" y="309" on="0"/>
        <pt x="335" y="297" on="1"/>
        <pt x="338" y="297" on="1"/>
        <pt x="341" y="277" on="0"/>
        <pt x="342" y="271" on="1"/>
        <pt x="347" y="240" on="0"/>
        <pt x="351" y="233" on="1"/>
        <pt x="369" y="197" on="1"/>
        <pt x="397" y="124" on="0"/>
        <pt x="397" y="111" on="1"/>
        <pt x="397" y="101" on="0"/>
        <pt x="377" y="101" on="1"/>
        <pt x="387" y="76" on="1"/>
        <pt x="407" y="77" on="0"/>
        <pt x="418" y="73" on="1"/>
        <pt x="428" y="69" on="0"/>
        <pt x="437" y="63" on="1"/>
        <pt x="454" y="42" on="1"/>
        <pt x="476" y="16" on="1"/>
        <pt x="505" y="-11" on="1"/>
        <pt x="528" y="-40" on="0"/>
        <pt x="529" y="-40" on="0"/>
        <pt x="542" y="-47" on="1"/>
        <pt x="562" y="-57" on="0"/>
        <pt x="584" y="-75" on="1"/>
        <pt x="585" y="-95" on="0"/>
        <pt x="590" y="-102" on="1"/>
        <pt x="623" y="-126" on="0"/>
        <pt x="647" y="-133" on="1"/>
        <pt x="688" y="-158" on="1"/>
        <pt x="718" y="-172" on="1"/>
        <pt x="757" y="-191" on="1"/>
        <pt x="792" y="-204" on="0"/>
        <pt x="803" y="-213" on="1"/>
        <pt x="809" y="-217" on="0"/>
        <pt x="833" y="-239" on="1"/>
        <pt x="850" y="-224" on="0"/>
        <pt x="859" y="-224" on="1"/>
        <pt x="863" y="-224" on="0"/>
        <pt x="976" y="-257" on="1"/>
        <pt x="1015" y="-253" on="0"/>
        <pt x="1019" y="-253" on="1"/>
        <pt x="1031" y="-253" on="0"/>
        <pt x="1050" y="-255" on="1"/>
        <pt x="1062" y="-256" on="0"/>
        <pt x="1067" y="-256" on="1"/>
        <pt x="1102" y="-257" on="0"/>
        <pt x="1111" y="-259" on="0"/>
        <pt x="1141" y="-272" on="1"/>
        <pt x="1143" y="-273" on="0"/>
        <pt x="1146" y="-273" on="1"/>
        <pt x="1156" y="-273" on="0"/>
        <pt x="1174" y="-256" on="1"/>
        <pt x="1200" y="-255" on="0"/>
        <pt x="1269" y="-244" on="1"/>
        <pt x="1313" y="-240" on="1"/>
        <pt x="1372" y="-225" on="1"/>
        <pt x="1406" y="-235" on="0"/>
        <pt x="1411" y="-235" on="1"/>
        <pt x="1430" y="-235" on="0"/>
        <pt x="1438" y="-230" on="1"/>
        <pt x="1464" y="-213" on="1"/>
        <pt x="1504" y="-204" on="1"/>
        <pt x="1574" y="-182" on="1"/>
        <pt x="1587" y="-184" on="0"/>
        <pt x="1595" y="-184" on="1"/>
        <pt x="1596" y="-184" on="1"/>
        <pt x="1606" y="-184" on="0"/>
        <pt x="1629" y="-175" on="1"/>
        <pt x="1647" y="-169" on="0"/>
        <pt x="1674" y="-163" on="1"/>
        <pt x="1742" y="-147" on="0"/>
        <pt x="1765" y="-132" on="1"/>
        <pt x="1766" y="-131" on="0"/>
        <pt x="1779" y="-114" on="1"/>
        <pt x="1817" y="-95" on="1"/>
        <pt x="1848" y="-77" on="0"/>
        <pt x="1875" y="-77" on="1"/>
        <pt x="1881" y="-77" on="0"/>
        <pt x="1899" y="-83" on="1"/>
        <pt x="1900" y="-57" on="0"/>
        <pt x="1908" y="-51" on="1"/>
        <pt x="1913" y="-46" on="0"/>
        <pt x="1942" y="-34" on="1"/>
        <pt x="1974" y="-15" on="0"/>
        <pt x="1978" y="-15" on="1"/>
        <pt x="1985" y="-15" on="0"/>
        <pt x="1999" y="-24" on="1"/>
        <pt x="1996" y="-71" on="0"/>
        <pt x="1978" y="-106" on="1"/>
        <pt x="1970" y="-121" on="0"/>
        <pt x="1962" y="-147" on="1"/>
        <pt x="1958" y="-157" on="0"/>
        <pt x="1946" y="-162" on="1"/>
        <pt x="1944" y="-164" on="0"/>
        <pt x="1865" y="-177" on="1"/>
        <pt x="1858" y="-179" on="0"/>
        <pt x="1835" y="-193" on="1"/>
        <pt x="1728" y="-214" on="1"/>
        <pt x="1683" y="-228" on="1"/>
        <pt x="1632" y="-236" on="1"/>
        <pt x="1567" y="-255" on="0"/>
        <pt x="1554" y="-255" on="1"/>
        <pt x="1545" y="-255" on="0"/>
        <pt x="1491" y="-253" on="1"/>
        <pt x="1491" y="-258" on="0"/>
        <pt x="1491" y="-261" on="1"/>
        <pt x="1491" y="-278" on="0"/>
        <pt x="1467" y="-278" on="1"/>
        <pt x="1462" y="-278" on="0"/>
        <pt x="1458" y="-277" on="1"/>
        <pt x="1441" y="-274" on="0"/>
        <pt x="1441" y="-274" on="1"/>
        <pt x="1428" y="-277" on="1"/>
        <pt x="1304" y="-305" on="1"/>
        <pt x="1253" y="-316" on="0"/>
        <pt x="1223" y="-316" on="1"/>
        <pt x="1221" y="-316" on="0"/>
        <pt x="1212" y="-316" on="1"/>
        <pt x="1199" y="-315" on="0"/>
        <pt x="1189" y="-315" on="1"/>
        <pt x="1178" y="-315" on="0"/>
        <pt x="1156" y="-317" on="1"/>
        <pt x="1144" y="-319" on="0"/>
        <pt x="1135" y="-319" on="1"/>
        <pt x="1122" y="-328" on="0"/>
        <pt x="1119" y="-332" on="1"/>
        <pt x="1117" y="-334" on="1"/>
        <pt x="1084" y="-292" on="1"/>
        <pt x="1046" y="-334" on="1"/>
        <pt x="1044" y="-458" on="0"/>
        <pt x="1044" y="-471" on="1"/>
        <pt x="1044" y="-498" on="0"/>
        <pt x="1047" y="-511" on="1"/>
        <pt x="1049" y="-518" on="0"/>
        <pt x="1060" y="-528" on="1"/>
        <pt x="1072" y="-538" on="0"/>
        <pt x="1080" y="-547" on="1"/>
        <pt x="1083" y="-550" on="0"/>
        <pt x="1083" y="-550" on="1"/>
        <pt x="1096" y="-546" on="0"/>
        <pt x="1106" y="-427" on="1"/>
        <pt x="1120" y="-444" on="0"/>
        <pt x="1126" y="-447" on="1"/>
        <pt x="1158" y="-465" on="1"/>
        <pt x="1172" y="-472" on="0"/>
        <pt x="1173" y="-492" on="1"/>
        <pt x="1173" y="-493" on="1"/>
        <pt x="1172" y="-503" on="0"/>
        <pt x="1170" y="-514" on="1"/>
        <pt x="1180" y="-551" on="0"/>
        <pt x="1180" y="-552" on="1"/>
        <pt x="1180" y="-569" on="0"/>
        <pt x="1168" y="-592" on="1"/>
        <pt x="1157" y="-614" on="0"/>
        <pt x="1134" y="-633" on="1"/>
        <pt x="1112" y="-652" on="0"/>
        <pt x="1107" y="-654" on="1"/>
        <pt x="1090" y="-660" on="0"/>
        <pt x="1090" y="-660" on="1"/>
        <pt x="1078" y="-668" on="0"/>
        <pt x="1075" y="-668" on="1"/>
        <pt x="1075" y="-668" on="0"/>
        <pt x="1072" y="-667" on="1"/>
        <pt x="1064" y="-662" on="0"/>
        <pt x="1048" y="-658" on="1"/>
        <pt x="1034" y="-678" on="1"/>
        <pt x="1005" y="-680" on="0"/>
        <pt x="985" y="-680" on="1"/>
        <pt x="956" y="-680" on="0"/>
        <pt x="932" y="-672" on="1"/>
        <pt x="929" y="-660" on="0"/>
        <pt x="929" y="-651" on="1"/>
        <pt x="929" y="-644" on="0"/>
        <pt x="933" y="-640" on="1"/>
        <pt x="944" y="-629" on="0"/>
        <pt x="958" y="-629" on="1"/>
        <pt x="959" y="-629" on="1"/>
        <pt x="963" y="-629" on="0"/>
        <pt x="978" y="-627" on="1"/>
        <pt x="981" y="-627" on="0"/>
        <pt x="996" y="-625" on="1"/>
        <pt x="1044" y="-619" on="0"/>
        <pt x="1060" y="-594" on="1"/>
        <pt x="1074" y="-571" on="0"/>
        <pt x="1081" y="-520" on="1"/>
        <pt x="1063" y="-509" on="1"/>
        <pt x="1055" y="-489" on="1"/>
        <pt x="1020" y="-490" on="0"/>
        <pt x="989" y="-502" on="1"/>
        <pt x="979" y="-473" on="0"/>
        <pt x="979" y="-456" on="1"/>
        <pt x="986" y="-403" on="1"/>
        <pt x="986" y="-371" on="1"/>
        <pt x="986" y="-352" on="0"/>
        <pt x="992" y="-332" on="1"/>
        <pt x="966" y="-312" on="0"/>
        <pt x="942" y="-312" on="1"/>
        <pt x="926" y="-312" on="0"/>
        <pt x="913" y="-332" on="1"/>
        <pt x="863" y="-330" on="1"/>
        <pt x="842" y="-304" on="1"/>
        <pt x="821" y="-304" on="0"/>
        <pt x="812" y="-304" on="1"/>
        <pt x="761" y="-304" on="0"/>
        <pt x="718" y="-291" on="1"/>
        <pt x="693" y="-283" on="0"/>
        <pt x="623" y="-246" on="1"/>
        <pt x="579" y="-228" on="1"/>
        <pt x="496" y="-176" on="0"/>
        <pt x="469" y="-163" on="1"/>
        <pt x="462" y="-145" on="1"/>
        <pt x="484" y="-145" on="1"/>
        <pt x="484" y="-137" on="0"/>
        <pt x="484" y="-133" on="1"/>
        <pt x="484" y="-98" on="0"/>
        <pt x="459" y="-95" on="1"/>
        <pt x="444" y="-112" on="0"/>
        <pt x="434" y="-112" on="1"/>
        <pt x="429" y="-112" on="0"/>
        <pt x="399" y="-87" on="1"/>
        <pt x="332" y="-40" on="1"/>
        <pt x="310" y="-11" on="1"/>
        <pt x="300" y="0" on="1"/>
        <pt x="265" y="52" on="1"/>
        <pt x="243" y="82" on="1"/>
        <pt x="227" y="111" on="1"/>
        <pt x="193" y="171" on="0"/>
        <pt x="179" y="218" on="1"/>
        <pt x="170" y="248" on="0"/>
        <pt x="161" y="290" on="1"/>
        <pt x="181" y="302" on="1"/>
        <pt x="181" y="321" on="1"/>
        <pt x="159" y="336" on="1"/>
        <pt x="159" y="359" on="0"/>
        <pt x="150" y="379" on="1"/>
        <pt x="144" y="400" on="1"/>
        <pt x="133" y="417" on="0"/>
        <pt x="132" y="422" on="1"/>
        <pt x="131" y="426" on="0"/>
        <pt x="131" y="460" on="1"/>
        <pt x="127" y="504" on="1"/>
        <pt x="133" y="524" on="1"/>
        <pt x="123" y="553" on="0"/>
        <pt x="123" y="562" on="1"/>
        <pt x="123" y="585" on="0"/>
        <pt x="138" y="606" on="1"/>
        <pt x="140" y="608" on="0"/>
      </contour>
    </TTGlyph>
    <TTGlyph name="D" xMin="93" yMin="-313" xMax="1911" yMax="1599">
      <contour>
        <pt x="143" y="1569" on="1"/>
        <pt x="160" y="1569" on="0"/>
        <pt x="187" y="1598" on="1"/>
        <pt x="212" y="1598" on="0"/>
        <pt x="217" y="1598" on="1"/>
        <pt x="235" y="1597" on="0"/>
        <pt x="239" y="1597" on="1"/>
        <pt x="293" y="1599" on="1"/>
        <pt x="299" y="1599" on="0"/>
        <pt x="342" y="1580" on="1"/>
        <pt x="344" y="1579" on="0"/>
        <pt x="347" y="1579" on="1"/>
        <pt x="350" y="1579" on="0"/>
        <pt x="367" y="1588" on="1"/>
        <pt x="378" y="1588" on="1"/>
        <pt x="565" y="1594" on="1"/>
        <pt x="573" y="1595" on="0"/>
        <pt x="589" y="1584" on="1"/>
        <pt x="597" y="1578" on="0"/>
        <pt x="616" y="1572" on="1"/>
        <pt x="633" y="1589" on="1"/>
        <pt x="688" y="1589" on="0"/>
        <pt x="746" y="1581" on="1"/>
        <pt x="749" y="1584" on="1"/>
        <pt x="766" y="1561" on="0"/>
        <pt x="781" y="1561" on="1"/>
        <pt x="795" y="1561" on="0"/>
        <pt x="808" y="1585" on="1"/>
        <pt x="836" y="1583" on="0"/>
        <pt x="857" y="1583" on="1"/>
        <pt x="997" y="1565" on="1"/>
        <pt x="1041" y="1564" on="1"/>
        <pt x="1074" y="1556" on="0"/>
        <pt x="1099" y="1554" on="1"/>
        <pt x="1103" y="1534" on="0"/>
        <pt x="1111" y="1532" on="1"/>
        <pt x="1115" y="1529" on="0"/>
        <pt x="1151" y="1526" on="1"/>
        <pt x="1162" y="1548" on="0"/>
        <pt x="1174" y="1548" on="1"/>
        <pt x="1176" y="1548" on="0"/>
        <pt x="1194" y="1542" on="1"/>
        <pt x="1228" y="1541" on="1"/>
        <pt x="1238" y="1541" on="0"/>
        <pt x="1262" y="1526" on="1"/>
        <pt x="1294" y="1506" on="0"/>
        <pt x="1303" y="1506" on="1"/>
        <pt x="1324" y="1512" on="1"/>
        <pt x="1416" y="1473" on="1"/>
        <pt x="1506" y="1454" on="0"/>
        <pt x="1517" y="1446" on="1"/>
        <pt x="1530" y="1436" on="0"/>
        <pt x="1532" y="1436" on="1"/>
        <pt x="1552" y="1433" on="1"/>
        <pt x="1575" y="1416" on="0"/>
        <pt x="1586" y="1409" on="1"/>
        <pt x="1628" y="1376" on="1"/>
        <pt x="1673" y="1348" on="1"/>
        <pt x="1711" y="1319" on="0"/>
        <pt x="1734" y="1308" on="1"/>
        <pt x="1728" y="1286" on="0"/>
        <pt x="1728" y="1277" on="1"/>
        <pt x="1728" y="1251" on="0"/>
        <pt x="1745" y="1251" on="1"/>
        <pt x="1759" y="1251" on="0"/>
        <pt x="1776" y="1258" on="1"/>
        <pt x="1795" y="1235" on="0"/>
        <pt x="1829" y="1203" on="1"/>
        <pt x="1852" y="1180" on="0"/>
        <pt x="1850" y="1174" on="1"/>
        <pt x="1857" y="1144" on="1"/>
        <pt x="1882" y="1075" on="1"/>
        <pt x="1884" y="1029" on="1"/>
        <pt x="1901" y="967" on="1"/>
        <pt x="1904" y="891" on="1"/>
        <pt x="1911" y="859" on="1"/>
        <pt x="1906" y="783" on="1"/>
        <pt x="1904" y="725" on="0"/>
        <pt x="1897" y="694" on="1"/>
        <pt x="1891" y="668" on="0"/>
        <pt x="1874" y="622" on="1"/>
        <pt x="1856" y="622" on="1"/>
        <pt x="1855" y="618" on="0"/>
        <pt x="1855" y="615" on="1"/>
        <pt x="1855" y="613" on="0"/>
        <pt x="1866" y="593" on="1"/>
        <pt x="1867" y="590" on="0"/>
        <pt x="1867" y="585" on="1"/>
        <pt x="1867" y="571" on="0"/>
        <pt x="1860" y="553" on="1"/>
        <pt x="1852" y="533" on="0"/>
        <pt x="1851" y="529" on="1"/>
        <pt x="1836" y="482" on="0"/>
        <pt x="1822" y="482" on="1"/>
        <pt x="1810" y="482" on="0"/>
        <pt x="1797" y="513" on="1"/>
        <pt x="1775" y="477" on="1"/>
        <pt x="1782" y="465" on="1"/>
        <pt x="1777" y="445" on="1"/>
        <pt x="1795" y="419" on="1"/>
        <pt x="1779" y="398" on="0"/>
        <pt x="1752" y="340" on="1"/>
        <pt x="1727" y="308" on="1"/>
        <pt x="1723" y="296" on="1"/>
        <pt x="1678" y="249" on="1"/>
        <pt x="1671" y="231" on="1"/>
        <pt x="1642" y="197" on="1"/>
        <pt x="1626" y="178" on="0"/>
        <pt x="1621" y="178" on="1"/>
        <pt x="1616" y="178" on="0"/>
        <pt x="1607" y="187" on="1"/>
        <pt x="1592" y="187" on="1"/>
        <pt x="1579" y="204" on="1"/>
        <pt x="1561" y="184" on="0"/>
        <pt x="1561" y="173" on="1"/>
        <pt x="1561" y="164" on="0"/>
        <pt x="1575" y="147" on="1"/>
        <pt x="1551" y="124" on="0"/>
        <pt x="1514" y="100" on="1"/>
        <pt x="1493" y="86" on="0"/>
        <pt x="1481" y="71" on="1"/>
        <pt x="1450" y="84" on="0"/>
        <pt x="1417" y="88" on="1"/>
        <pt x="1413" y="76" on="1"/>
        <pt x="1426" y="58" on="0"/>
        <pt x="1430" y="46" on="1"/>
        <pt x="1411" y="27" on="0"/>
        <pt x="1362" y="-7" on="1"/>
        <pt x="1294" y="-42" on="1"/>
        <pt x="1286" y="-46" on="0"/>
        <pt x="1261" y="-70" on="1"/>
        <pt x="1238" y="-49" on="0"/>
        <pt x="1219" y="-48" on="1"/>
        <pt x="1212" y="-80" on="0"/>
        <pt x="1201" y="-89" on="1"/>
        <pt x="1196" y="-92" on="0"/>
        <pt x="1139" y="-107" on="1"/>
        <pt x="1133" y="-108" on="0"/>
        <pt x="1124" y="-115" on="1"/>
        <pt x="1087" y="-146" on="0"/>
        <pt x="1085" y="-146" on="1"/>
        <pt x="1063" y="-146" on="1"/>
        <pt x="1059" y="-146" on="0"/>
        <pt x="1035" y="-164" on="1"/>
        <pt x="1030" y="-168" on="0"/>
        <pt x="991" y="-181" on="1"/>
        <pt x="984" y="-184" on="0"/>
        <pt x="973" y="-189" on="1"/>
        <pt x="914" y="-217" on="0"/>
        <pt x="889" y="-221" on="1"/>
        <pt x="862" y="-223" on="0"/>
        <pt x="823" y="-235" on="1"/>
        <pt x="727" y="-268" on="1"/>
        <pt x="661" y="-274" on="1"/>
        <pt x="636" y="-282" on="1"/>
        <pt x="619" y="-284" on="1"/>
        <pt x="582" y="-289" on="1"/>
        <pt x="560" y="-289" on="1"/>
        <pt x="518" y="-299" on="1"/>
        <pt x="461" y="-301" on="1"/>
        <pt x="382" y="-307" on="1"/>
        <pt x="364" y="-306" on="1"/>
        <pt x="338" y="-305" on="0"/>
        <pt x="324" y="-303" on="1"/>
        <pt x="172" y="-309" on="1"/>
        <pt x="171" y="-309" on="0"/>
        <pt x="163" y="-312" on="1"/>
        <pt x="160" y="-313" on="0"/>
        <pt x="157" y="-313" on="1"/>
        <pt x="131" y="-313" on="0"/>
        <pt x="131" y="-288" on="1"/>
        <pt x="131" y="-280" on="0"/>
        <pt x="144" y="-272" on="0"/>
        <pt x="183" y="-257" on="1"/>
        <pt x="224" y="-242" on="0"/>
        <pt x="241" y="-230" on="1"/>
        <pt x="245" y="-203" on="0"/>
        <pt x="261" y="-182" on="1"/>
        <pt x="258" y="-150" on="0"/>
        <pt x="258" y="-135" on="1"/>
        <pt x="271" y="-59" on="1"/>
        <pt x="271" y="-58" on="1"/>
        <pt x="271" y="-47" on="0"/>
        <pt x="268" y="-34" on="1"/>
        <pt x="264" y="-20" on="0"/>
        <pt x="264" y="-20" on="1"/>
        <pt x="264" y="-17" on="0"/>
        <pt x="278" y="43" on="1"/>
        <pt x="280" y="52" on="0"/>
        <pt x="280" y="60" on="1"/>
        <pt x="280" y="70" on="0"/>
        <pt x="268" y="97" on="1"/>
        <pt x="350" y="120" on="1"/>
        <pt x="271" y="247" on="1"/>
        <pt x="271" y="247" on="0"/>
        <pt x="273" y="251" on="1"/>
        <pt x="311" y="259" on="0"/>
        <pt x="311" y="277" on="1"/>
        <pt x="311" y="288" on="0"/>
        <pt x="297" y="308" on="1"/>
        <pt x="288" y="304" on="0"/>
        <pt x="280" y="304" on="1"/>
        <pt x="265" y="304" on="0"/>
        <pt x="265" y="337" on="1"/>
        <pt x="267" y="362" on="1"/>
        <pt x="267" y="497" on="1"/>
        <pt x="267" y="511" on="0"/>
        <pt x="265" y="521" on="1"/>
        <pt x="264" y="531" on="0"/>
        <pt x="264" y="533" on="1"/>
        <pt x="264" y="549" on="0"/>
        <pt x="281" y="576" on="1"/>
        <pt x="264" y="588" on="1"/>
        <pt x="264" y="617" on="1"/>
        <pt x="280" y="633" on="1"/>
        <pt x="261" y="652" on="0"/>
        <pt x="261" y="678" on="1"/>
        <pt x="261" y="682" on="1"/>
        <pt x="261" y="704" on="1"/>
        <pt x="261" y="763" on="0"/>
        <pt x="258" y="788" on="1"/>
        <pt x="257" y="802" on="0"/>
        <pt x="257" y="811" on="1"/>
        <pt x="257" y="820" on="0"/>
        <pt x="263" y="833" on="1"/>
        <pt x="275" y="831" on="0"/>
        <pt x="284" y="831" on="1"/>
        <pt x="297" y="831" on="0"/>
        <pt x="297" y="842" on="1"/>
        <pt x="297" y="845" on="0"/>
        <pt x="285" y="857" on="1"/>
        <pt x="276" y="870" on="0"/>
        <pt x="267" y="877" on="1"/>
        <pt x="242" y="879" on="0"/>
        <pt x="240" y="900" on="1"/>
        <pt x="240" y="900" on="1"/>
        <pt x="247" y="955" on="1"/>
        <pt x="239" y="1153" on="1"/>
        <pt x="246" y="1160" on="1"/>
        <pt x="254" y="1160" on="1"/>
        <pt x="265" y="1192" on="0"/>
        <pt x="265" y="1203" on="1"/>
        <pt x="265" y="1217" on="0"/>
        <pt x="236" y="1231" on="1"/>
        <pt x="234" y="1253" on="0"/>
        <pt x="217" y="1321" on="1"/>
        <pt x="215" y="1357" on="1"/>
        <pt x="207" y="1384" on="0"/>
        <pt x="207" y="1411" on="1"/>
        <pt x="206" y="1438" on="0"/>
        <pt x="196" y="1507" on="1"/>
        <pt x="174" y="1507" on="0"/>
        <pt x="168" y="1508" on="1"/>
        <pt x="162" y="1509" on="0"/>
        <pt x="162" y="1509" on="1"/>
        <pt x="157" y="1509" on="0"/>
        <pt x="140" y="1503" on="1"/>
        <pt x="129" y="1498" on="0"/>
        <pt x="99" y="1498" on="1"/>
        <pt x="93" y="1511" on="0"/>
        <pt x="93" y="1520" on="1"/>
        <pt x="93" y="1542" on="0"/>
        <pt x="120" y="1554" on="1"/>
        <pt x="137" y="1561" on="0"/>
      </contour>
      <contour>
        <pt x="356" y="1344" on="1"/>
        <pt x="380" y="1344" on="1"/>
        <pt x="388" y="1324" on="0"/>
        <pt x="393" y="1279" on="1"/>
        <pt x="398" y="1257" on="1"/>
        <pt x="396" y="1193" on="1"/>
        <pt x="399" y="1156" on="1"/>
        <pt x="384" y="1123" on="0"/>
        <pt x="384" y="1119" on="1"/>
        <pt x="384" y="1115" on="0"/>
        <pt x="392" y="1087" on="1"/>
        <pt x="388" y="1014" on="1"/>
        <pt x="389" y="993" on="1"/>
        <pt x="390" y="960" on="1"/>
        <pt x="397" y="928" on="0"/>
        <pt x="397" y="922" on="1"/>
        <pt x="397" y="914" on="0"/>
        <pt x="392" y="904" on="1"/>
        <pt x="366" y="912" on="1"/>
        <pt x="360" y="900" on="0"/>
        <pt x="360" y="893" on="1"/>
        <pt x="360" y="875" on="0"/>
        <pt x="375" y="871" on="1"/>
        <pt x="377" y="870" on="0"/>
        <pt x="386" y="869" on="1"/>
        <pt x="395" y="868" on="0"/>
        <pt x="410" y="863" on="1"/>
        <pt x="389" y="842" on="0"/>
        <pt x="378" y="834" on="1"/>
        <pt x="330" y="798" on="0"/>
        <pt x="330" y="776" on="1"/>
        <pt x="330" y="773" on="0"/>
        <pt x="411" y="649" on="1"/>
        <pt x="402" y="606" on="0"/>
        <pt x="401" y="572" on="1"/>
        <pt x="377" y="561" on="1"/>
        <pt x="382" y="551" on="1"/>
        <pt x="407" y="542" on="1"/>
        <pt x="409" y="532" on="1"/>
        <pt x="409" y="389" on="1"/>
        <pt x="409" y="256" on="0"/>
        <pt x="414" y="247" on="1"/>
        <pt x="415" y="240" on="0"/>
        <pt x="415" y="236" on="1"/>
        <pt x="415" y="234" on="0"/>
        <pt x="410" y="203" on="1"/>
        <pt x="409" y="193" on="0"/>
        <pt x="409" y="186" on="1"/>
        <pt x="409" y="168" on="0"/>
        <pt x="420" y="104" on="1"/>
        <pt x="421" y="98" on="0"/>
        <pt x="421" y="92" on="1"/>
        <pt x="421" y="83" on="0"/>
        <pt x="414" y="71" on="1"/>
        <pt x="373" y="84" on="1"/>
        <pt x="362" y="68" on="0"/>
        <pt x="362" y="58" on="1"/>
        <pt x="362" y="25" on="0"/>
        <pt x="399" y="25" on="1"/>
        <pt x="404" y="25" on="0"/>
        <pt x="410" y="25" on="1"/>
        <pt x="411" y="3" on="0"/>
        <pt x="416" y="-19" on="1"/>
        <pt x="420" y="-37" on="0"/>
        <pt x="420" y="-85" on="1"/>
        <pt x="420" y="-100" on="0"/>
        <pt x="428" y="-159" on="1"/>
        <pt x="398" y="-180" on="0"/>
        <pt x="387" y="-207" on="1"/>
        <pt x="358" y="-219" on="1"/>
        <pt x="358" y="-225" on="1"/>
        <pt x="361" y="-229" on="1"/>
        <pt x="371" y="-225" on="0"/>
        <pt x="373" y="-225" on="1"/>
        <pt x="427" y="-227" on="1"/>
        <pt x="461" y="-227" on="0"/>
        <pt x="469" y="-229" on="0"/>
        <pt x="484" y="-238" on="1"/>
        <pt x="498" y="-218" on="1"/>
        <pt x="512" y="-220" on="0"/>
        <pt x="517" y="-220" on="1"/>
        <pt x="617" y="-217" on="1"/>
        <pt x="619" y="-217" on="0"/>
        <pt x="634" y="-224" on="1"/>
        <pt x="644" y="-204" on="0"/>
        <pt x="653" y="-199" on="1"/>
        <pt x="667" y="-193" on="0"/>
        <pt x="695" y="-193" on="1"/>
        <pt x="705" y="-193" on="1"/>
        <pt x="761" y="-193" on="0"/>
        <pt x="776" y="-187" on="1"/>
        <pt x="803" y="-175" on="1"/>
        <pt x="843" y="-163" on="1"/>
        <pt x="931" y="-127" on="0"/>
        <pt x="951" y="-115" on="1"/>
        <pt x="983" y="-106" on="1"/>
        <pt x="1037" y="-83" on="0"/>
        <pt x="1043" y="-81" on="1"/>
        <pt x="1047" y="-81" on="0"/>
        <pt x="1066" y="-80" on="1"/>
        <pt x="1119" y="-51" on="1"/>
        <pt x="1155" y="-43" on="0"/>
        <pt x="1158" y="-39" on="1"/>
        <pt x="1159" y="-36" on="0"/>
        <pt x="1160" y="-27" on="1"/>
        <pt x="1180" y="-18" on="0"/>
        <pt x="1187" y="-15" on="1"/>
        <pt x="1222" y="-1" on="0"/>
        <pt x="1277" y="36" on="1"/>
        <pt x="1308" y="51" on="0"/>
        <pt x="1319" y="58" on="1"/>
        <pt x="1326" y="63" on="0"/>
        <pt x="1418" y="140" on="1"/>
        <pt x="1474" y="184" on="1"/>
        <pt x="1503" y="227" on="1"/>
        <pt x="1552" y="273" on="1"/>
        <pt x="1559" y="279" on="0"/>
        <pt x="1570" y="300" on="1"/>
        <pt x="1577" y="315" on="0"/>
        <pt x="1636" y="386" on="1"/>
        <pt x="1637" y="387" on="0"/>
        <pt x="1646" y="411" on="1"/>
        <pt x="1650" y="420" on="0"/>
        <pt x="1667" y="453" on="1"/>
        <pt x="1679" y="477" on="0"/>
        <pt x="1680" y="508" on="1"/>
        <pt x="1681" y="526" on="0"/>
        <pt x="1702" y="573" on="1"/>
        <pt x="1722" y="620" on="0"/>
        <pt x="1719" y="631" on="1"/>
        <pt x="1720" y="677" on="1"/>
        <pt x="1729" y="731" on="1"/>
        <pt x="1732" y="764" on="0"/>
        <pt x="1736" y="779" on="1"/>
        <pt x="1773" y="787" on="0"/>
        <pt x="1773" y="834" on="1"/>
        <pt x="1773" y="862" on="0"/>
        <pt x="1736" y="879" on="1"/>
        <pt x="1734" y="905" on="0"/>
        <pt x="1724" y="950" on="1"/>
        <pt x="1722" y="979" on="1"/>
        <pt x="1710" y="1015" on="0"/>
        <pt x="1710" y="1021" on="1"/>
        <pt x="1710" y="1034" on="0"/>
        <pt x="1714" y="1054" on="1"/>
        <pt x="1694" y="1072" on="0"/>
        <pt x="1675" y="1104" on="1"/>
        <pt x="1646" y="1155" on="0"/>
        <pt x="1644" y="1160" on="1"/>
        <pt x="1643" y="1161" on="0"/>
        <pt x="1640" y="1188" on="1"/>
        <pt x="1629" y="1199" on="1"/>
        <pt x="1613" y="1199" on="0"/>
        <pt x="1606" y="1201" on="1"/>
        <pt x="1596" y="1202" on="0"/>
        <pt x="1570" y="1224" on="1"/>
        <pt x="1576" y="1240" on="0"/>
        <pt x="1576" y="1251" on="1"/>
        <pt x="1576" y="1258" on="0"/>
        <pt x="1567" y="1270" on="1"/>
        <pt x="1552" y="1272" on="0"/>
        <pt x="1540" y="1272" on="1"/>
        <pt x="1537" y="1272" on="0"/>
        <pt x="1513" y="1268" on="1"/>
        <pt x="1512" y="1268" on="0"/>
        <pt x="1511" y="1268" on="1"/>
        <pt x="1505" y="1268" on="0"/>
        <pt x="1450" y="1313" on="1"/>
        <pt x="1404" y="1340" on="1"/>
        <pt x="1374" y="1364" on="1"/>
        <pt x="1343" y="1379" on="1"/>
        <pt x="1272" y="1416" on="1"/>
        <pt x="1242" y="1425" on="1"/>
        <pt x="1216" y="1434" on="1"/>
        <pt x="1165" y="1441" on="1"/>
        <pt x="1127" y="1452" on="1"/>
        <pt x="1046" y="1465" on="1"/>
        <pt x="985" y="1478" on="1"/>
        <pt x="905" y="1492" on="0"/>
        <pt x="900" y="1495" on="1"/>
        <pt x="897" y="1497" on="0"/>
        <pt x="880" y="1512" on="1"/>
        <pt x="870" y="1521" on="0"/>
        <pt x="865" y="1521" on="1"/>
        <pt x="856" y="1521" on="0"/>
        <pt x="841" y="1513" on="1"/>
        <pt x="830" y="1507" on="0"/>
        <pt x="822" y="1507" on="1"/>
        <pt x="821" y="1507" on="0"/>
        <pt x="788" y="1512" on="1"/>
        <pt x="747" y="1513" on="1"/>
        <pt x="641" y="1520" on="1"/>
        <pt x="555" y="1517" on="1"/>
        <pt x="508" y="1517" on="1"/>
        <pt x="498" y="1517" on="1"/>
        <pt x="492" y="1517" on="1"/>
        <pt x="479" y="1517" on="0"/>
        <pt x="468" y="1522" on="1"/>
        <pt x="441" y="1533" on="0"/>
        <pt x="438" y="1533" on="1"/>
        <pt x="437" y="1533" on="0"/>
        <pt x="422" y="1527" on="1"/>
        <pt x="414" y="1524" on="0"/>
        <pt x="397" y="1522" on="1"/>
        <pt x="388" y="1506" on="0"/>
        <pt x="388" y="1501" on="1"/>
        <pt x="391" y="1465" on="1"/>
        <pt x="383" y="1436" on="1"/>
        <pt x="379" y="1401" on="0"/>
        <pt x="372" y="1380" on="1"/>
        <pt x="354" y="1386" on="1"/>
        <pt x="345" y="1371" on="0"/>
        <pt x="345" y="1362" on="1"/>
        <pt x="345" y="1356" on="0"/>
        <pt x="349" y="1352" on="1"/>
      </contour>
    </TTGlyph>
    <TTGlyph name="E" xMin="143" yMin="-324" xMax="2003" yMax="1583">
      <contour>
        <pt x="143" y="1484" on="1"/>
        <pt x="146" y="1511" on="0"/>
        <pt x="158" y="1526" on="1"/>
        <pt x="177" y="1526" on="1"/>
        <pt x="190" y="1546" on="0"/>
        <pt x="206" y="1556" on="1"/>
        <pt x="221" y="1565" on="0"/>
        <pt x="240" y="1581" on="1"/>
        <pt x="256" y="1575" on="0"/>
        <pt x="264" y="1575" on="1"/>
        <pt x="268" y="1575" on="0"/>
        <pt x="288" y="1580" on="1"/>
        <pt x="294" y="1582" on="0"/>
        <pt x="303" y="1582" on="1"/>
        <pt x="311" y="1582" on="0"/>
        <pt x="403" y="1573" on="1"/>
        <pt x="417" y="1572" on="0"/>
        <pt x="435" y="1572" on="1"/>
        <pt x="444" y="1572" on="0"/>
        <pt x="457" y="1576" on="1"/>
        <pt x="491" y="1552" on="0"/>
        <pt x="502" y="1551" on="1"/>
        <pt x="515" y="1551" on="1"/>
        <pt x="536" y="1548" on="1"/>
        <pt x="564" y="1565" on="0"/>
        <pt x="587" y="1565" on="1"/>
        <pt x="597" y="1565" on="0"/>
        <pt x="647" y="1547" on="1"/>
        <pt x="689" y="1540" on="1"/>
        <pt x="733" y="1529" on="1"/>
        <pt x="735" y="1529" on="0"/>
        <pt x="749" y="1534" on="1"/>
        <pt x="762" y="1539" on="0"/>
        <pt x="772" y="1538" on="1"/>
        <pt x="978" y="1536" on="1"/>
        <pt x="986" y="1524" on="1"/>
        <pt x="1041" y="1520" on="1"/>
        <pt x="1056" y="1538" on="1"/>
        <pt x="1121" y="1540" on="0"/>
        <pt x="1181" y="1547" on="1"/>
        <pt x="1193" y="1549" on="0"/>
        <pt x="1205" y="1549" on="1"/>
        <pt x="1217" y="1549" on="0"/>
        <pt x="1231" y="1547" on="1"/>
        <pt x="1263" y="1543" on="0"/>
        <pt x="1271" y="1543" on="1"/>
        <pt x="1278" y="1543" on="0"/>
        <pt x="1412" y="1570" on="1"/>
        <pt x="1469" y="1577" on="1"/>
        <pt x="1512" y="1583" on="0"/>
        <pt x="1514" y="1583" on="1"/>
        <pt x="1521" y="1583" on="0"/>
        <pt x="1553" y="1576" on="1"/>
        <pt x="1552" y="1559" on="0"/>
        <pt x="1537" y="1541" on="1"/>
        <pt x="1526" y="1529" on="0"/>
        <pt x="1526" y="1529" on="1"/>
        <pt x="1476" y="1502" on="1"/>
        <pt x="1469" y="1498" on="0"/>
        <pt x="1448" y="1480" on="1"/>
        <pt x="1425" y="1461" on="0"/>
        <pt x="1414" y="1462" on="1"/>
        <pt x="1412" y="1462" on="1"/>
        <pt x="1386" y="1464" on="0"/>
        <pt x="1364" y="1466" on="1"/>
        <pt x="1355" y="1467" on="0"/>
        <pt x="1326" y="1480" on="1"/>
        <pt x="1317" y="1480" on="1"/>
        <pt x="1310" y="1480" on="1"/>
        <pt x="1261" y="1480" on="1"/>
        <pt x="1248" y="1480" on="0"/>
        <pt x="1199" y="1486" on="1"/>
        <pt x="1142" y="1481" on="1"/>
        <pt x="1101" y="1481" on="1"/>
        <pt x="1039" y="1469" on="1"/>
        <pt x="966" y="1476" on="1"/>
        <pt x="929" y="1477" on="1"/>
        <pt x="907" y="1479" on="1"/>
        <pt x="846" y="1473" on="1"/>
        <pt x="794" y="1475" on="1"/>
        <pt x="770" y="1466" on="1"/>
        <pt x="657" y="1472" on="1"/>
        <pt x="625" y="1467" on="1"/>
        <pt x="624" y="1467" on="0"/>
        <pt x="601" y="1474" on="1"/>
        <pt x="587" y="1479" on="0"/>
        <pt x="515" y="1479" on="1"/>
        <pt x="496" y="1479" on="1"/>
        <pt x="487" y="1479" on="0"/>
        <pt x="457" y="1476" on="1"/>
        <pt x="425" y="1483" on="1"/>
        <pt x="418" y="1483" on="0"/>
        <pt x="403" y="1466" on="1"/>
        <pt x="418" y="1438" on="0"/>
        <pt x="419" y="1408" on="1"/>
        <pt x="420" y="1382" on="0"/>
        <pt x="421" y="1366" on="1"/>
        <pt x="401" y="1344" on="0"/>
        <pt x="387" y="1344" on="1"/>
        <pt x="384" y="1344" on="0"/>
        <pt x="374" y="1348" on="1"/>
        <pt x="371" y="1328" on="0"/>
        <pt x="371" y="1322" on="1"/>
        <pt x="371" y="1316" on="0"/>
        <pt x="374" y="1312" on="1"/>
        <pt x="379" y="1306" on="0"/>
        <pt x="390" y="1298" on="1"/>
        <pt x="399" y="1292" on="0"/>
        <pt x="415" y="1279" on="1"/>
        <pt x="408" y="1248" on="0"/>
        <pt x="408" y="1240" on="1"/>
        <pt x="408" y="1234" on="0"/>
        <pt x="419" y="1177" on="1"/>
        <pt x="440" y="1172" on="0"/>
        <pt x="495" y="1167" on="1"/>
        <pt x="561" y="1155" on="1"/>
        <pt x="608" y="1153" on="1"/>
        <pt x="647" y="1148" on="1"/>
        <pt x="685" y="1148" on="0"/>
        <pt x="726" y="1142" on="1"/>
        <pt x="743" y="1140" on="0"/>
        <pt x="759" y="1140" on="1"/>
        <pt x="776" y="1140" on="0"/>
        <pt x="789" y="1143" on="1"/>
        <pt x="819" y="1148" on="0"/>
        <pt x="829" y="1148" on="1"/>
        <pt x="830" y="1148" on="0"/>
        <pt x="868" y="1140" on="1"/>
        <pt x="871" y="1139" on="0"/>
        <pt x="875" y="1139" on="1"/>
        <pt x="883" y="1139" on="0"/>
        <pt x="927" y="1142" on="1"/>
        <pt x="938" y="1143" on="0"/>
        <pt x="953" y="1143" on="1"/>
        <pt x="979" y="1143" on="0"/>
        <pt x="1027" y="1145" on="1"/>
        <pt x="1101" y="1147" on="0"/>
        <pt x="1140" y="1155" on="1"/>
        <pt x="1143" y="1156" on="0"/>
        <pt x="1147" y="1156" on="1"/>
        <pt x="1156" y="1156" on="0"/>
        <pt x="1179" y="1154" on="1"/>
        <pt x="1190" y="1153" on="0"/>
        <pt x="1212" y="1152" on="1"/>
        <pt x="1212" y="1166" on="1"/>
        <pt x="1240" y="1167" on="0"/>
        <pt x="1246" y="1174" on="1"/>
        <pt x="1251" y="1178" on="1"/>
        <pt x="1293" y="1123" on="1"/>
        <pt x="1309" y="1151" on="0"/>
        <pt x="1320" y="1164" on="0"/>
        <pt x="1336" y="1175" on="1"/>
        <pt x="1361" y="1192" on="0"/>
        <pt x="1370" y="1192" on="1"/>
        <pt x="1382" y="1192" on="0"/>
        <pt x="1398" y="1189" on="1"/>
        <pt x="1396" y="1156" on="0"/>
        <pt x="1390" y="1153" on="1"/>
        <pt x="1389" y="1146" on="0"/>
        <pt x="1363" y="1131" on="1"/>
        <pt x="1363" y="1104" on="1"/>
        <pt x="1341" y="1092" on="0"/>
        <pt x="1329" y="1075" on="1"/>
        <pt x="1303" y="1068" on="0"/>
        <pt x="1295" y="1068" on="1"/>
        <pt x="1280" y="1068" on="0"/>
        <pt x="1268" y="1081" on="1"/>
        <pt x="1230" y="1123" on="0"/>
        <pt x="1225" y="1123" on="1"/>
        <pt x="1224" y="1123" on="0"/>
        <pt x="1189" y="1074" on="1"/>
        <pt x="1188" y="1073" on="0"/>
        <pt x="1185" y="1073" on="1"/>
        <pt x="1183" y="1073" on="0"/>
        <pt x="1179" y="1075" on="1"/>
        <pt x="1169" y="1079" on="0"/>
        <pt x="1150" y="1084" on="1"/>
        <pt x="1139" y="1078" on="0"/>
        <pt x="1096" y="1074" on="1"/>
        <pt x="1048" y="1080" on="0"/>
        <pt x="1042" y="1080" on="1"/>
        <pt x="1036" y="1080" on="0"/>
        <pt x="980" y="1073" on="1"/>
        <pt x="944" y="1081" on="1"/>
        <pt x="902" y="1083" on="1"/>
        <pt x="880" y="1084" on="1"/>
        <pt x="807" y="1074" on="1"/>
        <pt x="736" y="1085" on="1"/>
        <pt x="645" y="1083" on="1"/>
        <pt x="615" y="1090" on="1"/>
        <pt x="579" y="1089" on="1"/>
        <pt x="549" y="1090" on="1"/>
        <pt x="524" y="1083" on="1"/>
        <pt x="485" y="1081" on="1"/>
        <pt x="451" y="1077" on="0"/>
        <pt x="420" y="1077" on="1"/>
        <pt x="431" y="1050" on="0"/>
        <pt x="433" y="1017" on="1"/>
        <pt x="437" y="987" on="1"/>
        <pt x="436" y="899" on="1"/>
        <pt x="442" y="843" on="1"/>
        <pt x="441" y="836" on="0"/>
        <pt x="429" y="819" on="1"/>
        <pt x="412" y="814" on="1"/>
        <pt x="409" y="817" on="1"/>
        <pt x="401" y="797" on="0"/>
        <pt x="401" y="786" on="1"/>
        <pt x="401" y="781" on="0"/>
        <pt x="404" y="770" on="1"/>
        <pt x="412" y="774" on="1"/>
        <pt x="431" y="760" on="0"/>
        <pt x="435" y="751" on="1"/>
        <pt x="437" y="747" on="0"/>
        <pt x="437" y="719" on="1"/>
        <pt x="437" y="704" on="0"/>
        <pt x="418" y="690" on="1"/>
        <pt x="421" y="668" on="0"/>
        <pt x="435" y="628" on="1"/>
        <pt x="438" y="620" on="0"/>
        <pt x="438" y="597" on="1"/>
        <pt x="438" y="590" on="0"/>
        <pt x="438" y="578" on="1"/>
        <pt x="416" y="567" on="1"/>
        <pt x="414" y="555" on="0"/>
        <pt x="414" y="545" on="1"/>
        <pt x="414" y="526" on="0"/>
        <pt x="445" y="509" on="1"/>
        <pt x="436" y="494" on="0"/>
        <pt x="437" y="491" on="1"/>
        <pt x="446" y="446" on="1"/>
        <pt x="448" y="407" on="1"/>
        <pt x="452" y="383" on="1"/>
        <pt x="448" y="353" on="1"/>
        <pt x="449" y="316" on="1"/>
        <pt x="444" y="294" on="1"/>
        <pt x="441" y="230" on="0"/>
        <pt x="441" y="230" on="1"/>
        <pt x="440" y="205" on="0"/>
        <pt x="440" y="204" on="1"/>
        <pt x="440" y="196" on="0"/>
        <pt x="445" y="181" on="1"/>
        <pt x="408" y="159" on="1"/>
        <pt x="408" y="141" on="0"/>
        <pt x="419" y="116" on="1"/>
        <pt x="425" y="116" on="1"/>
        <pt x="437" y="125" on="0"/>
        <pt x="442" y="125" on="1"/>
        <pt x="450" y="125" on="0"/>
        <pt x="463" y="113" on="1"/>
        <pt x="450" y="77" on="0"/>
        <pt x="450" y="65" on="1"/>
        <pt x="450" y="61" on="0"/>
        <pt x="459" y="33" on="1"/>
        <pt x="460" y="-38" on="1"/>
        <pt x="466" y="-121" on="1"/>
        <pt x="466" y="-161" on="0"/>
        <pt x="413" y="-202" on="1"/>
        <pt x="413" y="-230" on="0"/>
        <pt x="420" y="-242" on="1"/>
        <pt x="422" y="-247" on="0"/>
        <pt x="435" y="-253" on="1"/>
        <pt x="442" y="-256" on="0"/>
        <pt x="459" y="-269" on="1"/>
        <pt x="498" y="-234" on="1"/>
        <pt x="542" y="-234" on="1"/>
        <pt x="620" y="-219" on="1"/>
        <pt x="655" y="-222" on="1"/>
        <pt x="707" y="-222" on="0"/>
        <pt x="712" y="-223" on="0"/>
        <pt x="745" y="-240" on="1"/>
        <pt x="747" y="-241" on="0"/>
        <pt x="752" y="-241" on="1"/>
        <pt x="768" y="-241" on="0"/>
        <pt x="792" y="-222" on="1"/>
        <pt x="795" y="-221" on="1"/>
        <pt x="798" y="-219" on="1"/>
        <pt x="825" y="-258" on="1"/>
        <pt x="863" y="-226" on="1"/>
        <pt x="871" y="-214" on="0"/>
        <pt x="877" y="-213" on="1"/>
        <pt x="877" y="-213" on="0"/>
        <pt x="882" y="-213" on="1"/>
        <pt x="995" y="-221" on="1"/>
        <pt x="1033" y="-222" on="1"/>
        <pt x="1059" y="-222" on="0"/>
        <pt x="1068" y="-222" on="1"/>
        <pt x="1081" y="-223" on="0"/>
        <pt x="1082" y="-223" on="1"/>
        <pt x="1085" y="-223" on="0"/>
        <pt x="1116" y="-217" on="1"/>
        <pt x="1118" y="-216" on="0"/>
        <pt x="1124" y="-216" on="1"/>
        <pt x="1129" y="-216" on="0"/>
        <pt x="1135" y="-217" on="1"/>
        <pt x="1195" y="-222" on="0"/>
        <pt x="1198" y="-222" on="1"/>
        <pt x="1199" y="-222" on="0"/>
        <pt x="1238" y="-217" on="1"/>
        <pt x="1254" y="-217" on="1"/>
        <pt x="1433" y="-214" on="1"/>
        <pt x="1447" y="-215" on="1"/>
        <pt x="1447" y="-215" on="1"/>
        <pt x="1448" y="-216" on="0"/>
        <pt x="1459" y="-213" on="1"/>
        <pt x="1465" y="-212" on="0"/>
        <pt x="1469" y="-212" on="1"/>
        <pt x="1471" y="-212" on="0"/>
        <pt x="1498" y="-219" on="1"/>
        <pt x="1503" y="-220" on="0"/>
        <pt x="1528" y="-220" on="1"/>
        <pt x="1540" y="-255" on="1"/>
        <pt x="1569" y="-260" on="1"/>
        <pt x="1569" y="-226" on="1"/>
        <pt x="1571" y="-223" on="1"/>
        <pt x="1581" y="-218" on="1"/>
        <pt x="1610" y="-267" on="0"/>
        <pt x="1614" y="-267" on="1"/>
        <pt x="1617" y="-267" on="0"/>
        <pt x="1671" y="-223" on="1"/>
        <pt x="1683" y="-213" on="0"/>
        <pt x="1696" y="-213" on="1"/>
        <pt x="1707" y="-213" on="0"/>
        <pt x="1723" y="-228" on="1"/>
        <pt x="1746" y="-222" on="0"/>
        <pt x="1755" y="-222" on="1"/>
        <pt x="1772" y="-219" on="0"/>
        <pt x="1780" y="-214" on="1"/>
        <pt x="1782" y="-200" on="0"/>
        <pt x="1789" y="-196" on="1"/>
        <pt x="1802" y="-189" on="0"/>
        <pt x="1814" y="-186" on="1"/>
        <pt x="1837" y="-185" on="0"/>
        <pt x="1855" y="-185" on="1"/>
        <pt x="1943" y="-166" on="0"/>
        <pt x="1957" y="-162" on="1"/>
        <pt x="1980" y="-148" on="0"/>
        <pt x="1987" y="-148" on="1"/>
        <pt x="2003" y="-148" on="0"/>
        <pt x="2003" y="-171" on="1"/>
        <pt x="2003" y="-179" on="0"/>
        <pt x="1994" y="-198" on="1"/>
        <pt x="1985" y="-216" on="0"/>
        <pt x="1980" y="-234" on="1"/>
        <pt x="1964" y="-242" on="0"/>
        <pt x="1963" y="-247" on="1"/>
        <pt x="1956" y="-268" on="1"/>
        <pt x="1930" y="-301" on="0"/>
        <pt x="1853" y="-300" on="1"/>
        <pt x="1821" y="-306" on="1"/>
        <pt x="1767" y="-259" on="1"/>
        <pt x="1696" y="-313" on="1"/>
        <pt x="1656" y="-305" on="1"/>
        <pt x="1604" y="-303" on="1"/>
        <pt x="1568" y="-297" on="1"/>
        <pt x="1521" y="-297" on="1"/>
        <pt x="1466" y="-292" on="1"/>
        <pt x="1464" y="-292" on="0"/>
        <pt x="1452" y="-295" on="1"/>
        <pt x="1438" y="-285" on="1"/>
        <pt x="1412" y="-300" on="0"/>
        <pt x="1397" y="-300" on="1"/>
        <pt x="1392" y="-300" on="0"/>
        <pt x="1326" y="-288" on="1"/>
        <pt x="1313" y="-286" on="0"/>
        <pt x="1263" y="-286" on="1"/>
        <pt x="1233" y="-286" on="0"/>
        <pt x="1214" y="-288" on="1"/>
        <pt x="1185" y="-292" on="0"/>
        <pt x="1175" y="-292" on="1"/>
        <pt x="1174" y="-292" on="0"/>
        <pt x="1088" y="-278" on="1"/>
        <pt x="1071" y="-280" on="0"/>
        <pt x="1070" y="-280" on="1"/>
        <pt x="1062" y="-280" on="0"/>
        <pt x="1051" y="-278" on="1"/>
        <pt x="1035" y="-295" on="1"/>
        <pt x="1013" y="-291" on="0"/>
        <pt x="1010" y="-291" on="1"/>
        <pt x="905" y="-293" on="1"/>
        <pt x="863" y="-293" on="1"/>
        <pt x="803" y="-297" on="1"/>
        <pt x="798" y="-297" on="0"/>
        <pt x="781" y="-292" on="1"/>
        <pt x="788" y="-275" on="1"/>
        <pt x="763" y="-275" on="0"/>
        <pt x="737" y="-283" on="1"/>
        <pt x="734" y="-310" on="1"/>
        <pt x="716" y="-310" on="1"/>
        <pt x="712" y="-310" on="1"/>
        <pt x="710" y="-311" on="1"/>
        <pt x="708" y="-311" on="0"/>
        <pt x="708" y="-311" on="1"/>
        <pt x="706" y="-311" on="0"/>
        <pt x="704" y="-310" on="1"/>
        <pt x="682" y="-300" on="0"/>
        <pt x="660" y="-300" on="1"/>
        <pt x="642" y="-300" on="0"/>
        <pt x="634" y="-303" on="1"/>
        <pt x="632" y="-304" on="0"/>
        <pt x="632" y="-304" on="1"/>
        <pt x="630" y="-304" on="0"/>
        <pt x="601" y="-269" on="1"/>
        <pt x="592" y="-258" on="0"/>
        <pt x="582" y="-258" on="1"/>
        <pt x="574" y="-258" on="0"/>
        <pt x="510" y="-298" on="1"/>
        <pt x="495" y="-308" on="0"/>
        <pt x="476" y="-308" on="1"/>
        <pt x="469" y="-308" on="0"/>
        <pt x="429" y="-298" on="1"/>
        <pt x="426" y="-297" on="0"/>
        <pt x="419" y="-297" on="1"/>
        <pt x="413" y="-297" on="0"/>
        <pt x="355" y="-306" on="1"/>
        <pt x="302" y="-308" on="1"/>
        <pt x="232" y="-324" on="0"/>
        <pt x="226" y="-324" on="1"/>
        <pt x="216" y="-324" on="0"/>
        <pt x="193" y="-318" on="1"/>
        <pt x="192" y="-308" on="0"/>
        <pt x="192" y="-301" on="1"/>
        <pt x="192" y="-290" on="0"/>
        <pt x="200" y="-272" on="1"/>
        <pt x="205" y="-273" on="0"/>
        <pt x="207" y="-273" on="1"/>
        <pt x="219" y="-273" on="0"/>
        <pt x="229" y="-263" on="1"/>
        <pt x="237" y="-254" on="0"/>
        <pt x="266" y="-192" on="1"/>
        <pt x="265" y="-136" on="1"/>
        <pt x="265" y="-135" on="0"/>
        <pt x="268" y="-132" on="1"/>
        <pt x="282" y="-113" on="0"/>
        <pt x="282" y="-112" on="1"/>
        <pt x="276" y="-93" on="0"/>
        <pt x="276" y="-89" on="1"/>
        <pt x="276" y="-85" on="0"/>
        <pt x="277" y="-80" on="1"/>
        <pt x="282" y="-21" on="0"/>
        <pt x="282" y="58" on="1"/>
        <pt x="283" y="83" on="0"/>
        <pt x="295" y="130" on="1"/>
        <pt x="298" y="138" on="0"/>
        <pt x="311" y="147" on="1"/>
        <pt x="320" y="152" on="0"/>
        <pt x="320" y="165" on="1"/>
        <pt x="322" y="187" on="0"/>
        <pt x="325" y="197" on="1"/>
        <pt x="312" y="172" on="1"/>
        <pt x="304" y="172" on="1"/>
        <pt x="300" y="186" on="0"/>
        <pt x="289" y="201" on="1"/>
        <pt x="289" y="217" on="0"/>
        <pt x="289" y="226" on="1"/>
        <pt x="288" y="269" on="1"/>
        <pt x="288" y="270" on="1"/>
        <pt x="310" y="299" on="1"/>
        <pt x="327" y="353" on="1"/>
        <pt x="330" y="360" on="0"/>
        <pt x="370" y="378" on="1"/>
        <pt x="375" y="380" on="0"/>
        <pt x="375" y="380" on="1"/>
        <pt x="374" y="388" on="0"/>
        <pt x="297" y="407" on="1"/>
        <pt x="330" y="422" on="1"/>
        <pt x="330" y="435" on="1"/>
        <pt x="309" y="445" on="1"/>
        <pt x="304" y="463" on="0"/>
        <pt x="291" y="473" on="1"/>
        <pt x="291" y="497" on="0"/>
        <pt x="296" y="521" on="1"/>
        <pt x="284" y="611" on="1"/>
        <pt x="364" y="670" on="1"/>
        <pt x="284" y="773" on="1"/>
        <pt x="345" y="799" on="1"/>
        <pt x="282" y="823" on="1"/>
        <pt x="306" y="836" on="1"/>
        <pt x="306" y="864" on="0"/>
        <pt x="313" y="890" on="1"/>
        <pt x="302" y="896" on="0"/>
        <pt x="291" y="907" on="1"/>
        <pt x="285" y="914" on="0"/>
        <pt x="279" y="917" on="1"/>
        <pt x="275" y="950" on="0"/>
        <pt x="275" y="960" on="1"/>
        <pt x="273" y="1000" on="0"/>
        <pt x="272" y="1005" on="1"/>
        <pt x="271" y="1012" on="0"/>
        <pt x="271" y="1016" on="1"/>
        <pt x="271" y="1027" on="0"/>
        <pt x="286" y="1044" on="1"/>
        <pt x="281" y="1055" on="0"/>
        <pt x="271" y="1055" on="1"/>
        <pt x="268" y="1055" on="0"/>
        <pt x="263" y="1054" on="1"/>
        <pt x="260" y="1072" on="0"/>
        <pt x="260" y="1086" on="1"/>
        <pt x="260" y="1102" on="0"/>
        <pt x="277" y="1120" on="1"/>
        <pt x="254" y="1140" on="0"/>
        <pt x="254" y="1159" on="1"/>
        <pt x="254" y="1283" on="1"/>
        <pt x="254" y="1306" on="0"/>
        <pt x="248" y="1361" on="1"/>
        <pt x="242" y="1417" on="0"/>
        <pt x="241" y="1420" on="1"/>
        <pt x="239" y="1422" on="0"/>
        <pt x="227" y="1430" on="1"/>
        <pt x="227" y="1476" on="1"/>
        <pt x="193" y="1472" on="1"/>
        <pt x="193" y="1477" on="1"/>
        <pt x="188" y="1480" on="1"/>
        <pt x="174" y="1480" on="0"/>
        <pt x="170" y="1480" on="1"/>
        <pt x="156" y="1480" on="0"/>
      </contour>
    </TTGlyph>
    <TTGlyph name="Eacute" xMin="143" yMin="-324" xMax="2003" yMax="2051">
      <component glyphName="E" x="0" y="0" flags="0x4"/>
      <component glyphName=".notdef#8" x="464" y="0" flags="0x4"/>
    </TTGlyph>
    <TTGlyph name="Ecircumflex" xMin="143" yMin="-324" xMax="2003" yMax="2155">
      <component glyphName="E" x="0" y="0" flags="0x4"/>
      <component glyphName=".notdef#11" x="476" y="0" flags="0x4"/>
    </TTGlyph>
    <TTGlyph name="Edieresis" xMin="143" yMin="-324" xMax="2003" yMax="1972">
      <contour>
        <pt x="143" y="1484" on="1"/>
        <pt x="146" y="1511" on="0"/>
        <pt x="158" y="1526" on="1"/>
        <pt x="177" y="1526" on="1"/>
        <pt x="190" y="1546" on="0"/>
        <pt x="206" y="1556" on="1"/>
        <pt x="221" y="1565" on="0"/>
        <pt x="240" y="1581" on="1"/>
        <pt x="256" y="1575" on="0"/>
        <pt x="264" y="1575" on="1"/>
        <pt x="268" y="1575" on="0"/>
        <pt x="288" y="1580" on="1"/>
        <pt x="294" y="1582" on="0"/>
        <pt x="303" y="1582" on="1"/>
        <pt x="311" y="1582" on="0"/>
        <pt x="403" y="1573" on="1"/>
        <pt x="417" y="1572" on="0"/>
        <pt x="435" y="1572" on="1"/>
        <pt x="444" y="1572" on="0"/>
        <pt x="457" y="1576" on="1"/>
        <pt x="491" y="1552" on="0"/>
        <pt x="502" y="1551" on="1"/>
        <pt x="515" y="1551" on="1"/>
        <pt x="536" y="1548" on="1"/>
        <pt x="564" y="1565" on="0"/>
        <pt x="587" y="1565" on="1"/>
        <pt x="597" y="1565" on="0"/>
        <pt x="647" y="1547" on="1"/>
        <pt x="689" y="1540" on="1"/>
        <pt x="733" y="1529" on="1"/>
        <pt x="735" y="1529" on="0"/>
        <pt x="749" y="1534" on="1"/>
        <pt x="762" y="1539" on="0"/>
        <pt x="772" y="1538" on="1"/>
        <pt x="978" y="1536" on="1"/>
        <pt x="986" y="1524" on="1"/>
        <pt x="1041" y="1520" on="1"/>
        <pt x="1056" y="1538" on="1"/>
        <pt x="1121" y="1540" on="0"/>
        <pt x="1181" y="1547" on="1"/>
        <pt x="1193" y="1549" on="0"/>
        <pt x="1205" y="1549" on="1"/>
        <pt x="1217" y="1549" on="0"/>
        <pt x="1231" y="1547" on="1"/>
        <pt x="1263" y="1543" on="0"/>
        <pt x="1271" y="1543" on="1"/>
        <pt x="1278" y="1543" on="0"/>
        <pt x="1412" y="1570" on="1"/>
        <pt x="1469" y="1577" on="1"/>
        <pt x="1512" y="1583" on="0"/>
        <pt x="1514" y="1583" on="1"/>
        <pt x="1521" y="1583" on="0"/>
        <pt x="1553" y="1576" on="1"/>
        <pt x="1552" y="1559" on="0"/>
        <pt x="1537" y="1541" on="1"/>
        <pt x="1526" y="1529" on="0"/>
        <pt x="1526" y="1529" on="1"/>
        <pt x="1476" y="1502" on="1"/>
        <pt x="1469" y="1498" on="0"/>
        <pt x="1448" y="1480" on="1"/>
        <pt x="1425" y="1461" on="0"/>
        <pt x="1414" y="1462" on="1"/>
        <pt x="1412" y="1462" on="1"/>
        <pt x="1386" y="1464" on="0"/>
        <pt x="1364" y="1466" on="1"/>
        <pt x="1355" y="1467" on="0"/>
        <pt x="1326" y="1480" on="1"/>
        <pt x="1317" y="1480" on="1"/>
        <pt x="1310" y="1480" on="1"/>
        <pt x="1261" y="1480" on="1"/>
        <pt x="1248" y="1480" on="0"/>
        <pt x="1199" y="1486" on="1"/>
        <pt x="1142" y="1481" on="1"/>
        <pt x="1101" y="1481" on="1"/>
        <pt x="1039" y="1469" on="1"/>
        <pt x="966" y="1476" on="1"/>
        <pt x="929" y="1477" on="1"/>
        <pt x="907" y="1479" on="1"/>
        <pt x="846" y="1473" on="1"/>
        <pt x="794" y="1475" on="1"/>
        <pt x="770" y="1466" on="1"/>
        <pt x="657" y="1472" on="1"/>
        <pt x="625" y="1467" on="1"/>
        <pt x="624" y="1467" on="0"/>
        <pt x="601" y="1474" on="1"/>
        <pt x="587" y="1479" on="0"/>
        <pt x="515" y="1479" on="1"/>
        <pt x="496" y="1479" on="1"/>
        <pt x="487" y="1479" on="0"/>
        <pt x="457" y="1476" on="1"/>
        <pt x="425" y="1483" on="1"/>
        <pt x="418" y="1483" on="0"/>
        <pt x="403" y="1466" on="1"/>
        <pt x="418" y="1438" on="0"/>
        <pt x="419" y="1408" on="1"/>
        <pt x="420" y="1382" on="0"/>
        <pt x="421" y="1366" on="1"/>
        <pt x="401" y="1344" on="0"/>
        <pt x="387" y="1344" on="1"/>
        <pt x="384" y="1344" on="0"/>
        <pt x="374" y="1348" on="1"/>
        <pt x="371" y="1328" on="0"/>
        <pt x="371" y="1322" on="1"/>
        <pt x="371" y="1316" on="0"/>
        <pt x="374" y="1312" on="1"/>
        <pt x="379" y="1306" on="0"/>
        <pt x="390" y="1298" on="1"/>
        <pt x="399" y="1292" on="0"/>
        <pt x="415" y="1279" on="1"/>
        <pt x="408" y="1248" on="0"/>
        <pt x="408" y="1240" on="1"/>
        <pt x="408" y="1234" on="0"/>
        <pt x="419" y="1177" on="1"/>
        <pt x="440" y="1172" on="0"/>
        <pt x="495" y="1167" on="1"/>
        <pt x="561" y="1155" on="1"/>
        <pt x="608" y="1153" on="1"/>
        <pt x="647" y="1148" on="1"/>
        <pt x="685" y="1148" on="0"/>
        <pt x="726" y="1142" on="1"/>
        <pt x="743" y="1140" on="0"/>
        <pt x="759" y="1140" on="1"/>
        <pt x="776" y="1140" on="0"/>
        <pt x="789" y="1143" on="1"/>
        <pt x="819" y="1148" on="0"/>
        <pt x="829" y="1148" on="1"/>
        <pt x="830" y="1148" on="0"/>
        <pt x="868" y="1140" on="1"/>
        <pt x="871" y="1139" on="0"/>
        <pt x="875" y="1139" on="1"/>
        <pt x="883" y="1139" on="0"/>
        <pt x="927" y="1142" on="1"/>
        <pt x="938" y="1143" on="0"/>
        <pt x="953" y="1143" on="1"/>
        <pt x="979" y="1143" on="0"/>
        <pt x="1027" y="1145" on="1"/>
        <pt x="1101" y="1147" on="0"/>
        <pt x="1140" y="1155" on="1"/>
        <pt x="1143" y="1156" on="0"/>
        <pt x="1147" y="1156" on="1"/>
        <pt x="1156" y="1156" on="0"/>
        <pt x="1179" y="1154" on="1"/>
        <pt x="1190" y="1153" on="0"/>
        <pt x="1212" y="1152" on="1"/>
        <pt x="1212" y="1166" on="1"/>
        <pt x="1240" y="1167" on="0"/>
        <pt x="1246" y="1174" on="1"/>
        <pt x="1251" y="1178" on="1"/>
        <pt x="1293" y="1123" on="1"/>
        <pt x="1309" y="1151" on="0"/>
        <pt x="1320" y="1164" on="0"/>
        <pt x="1336" y="1175" on="1"/>
        <pt x="1361" y="1192" on="0"/>
        <pt x="1370" y="1192" on="1"/>
        <pt x="1382" y="1192" on="0"/>
        <pt x="1398" y="1189" on="1"/>
        <pt x="1396" y="1156" on="0"/>
        <pt x="1390" y="1153" on="1"/>
        <pt x="1389" y="1146" on="0"/>
        <pt x="1363" y="1131" on="1"/>
        <pt x="1363" y="1104" on="1"/>
        <pt x="1341" y="1092" on="0"/>
        <pt x="1329" y="1075" on="1"/>
        <pt x="1303" y="1068" on="0"/>
        <pt x="1295" y="1068" on="1"/>
        <pt x="1280" y="1068" on="0"/>
        <pt x="1268" y="1081" on="1"/>
        <pt x="1230" y="1123" on="0"/>
        <pt x="1225" y="1123" on="1"/>
        <pt x="1224" y="1123" on="0"/>
        <pt x="1189" y="1074" on="1"/>
        <pt x="1188" y="1073" on="0"/>
        <pt x="1185" y="1073" on="1"/>
        <pt x="1183" y="1073" on="0"/>
        <pt x="1179" y="1075" on="1"/>
        <pt x="1169" y="1079" on="0"/>
        <pt x="1150" y="1084" on="1"/>
        <pt x="1139" y="1078" on="0"/>
        <pt x="1096" y="1074" on="1"/>
        <pt x="1048" y="1080" on="0"/>
        <pt x="1042" y="1080" on="1"/>
        <pt x="1036" y="1080" on="0"/>
        <pt x="980" y="1073" on="1"/>
        <pt x="944" y="1081" on="1"/>
        <pt x="902" y="1083" on="1"/>
        <pt x="880" y="1084" on="1"/>
        <pt x="807" y="1074" on="1"/>
        <pt x="736" y="1085" on="1"/>
        <pt x="645" y="1083" on="1"/>
        <pt x="615" y="1090" on="1"/>
        <pt x="579" y="1089" on="1"/>
        <pt x="549" y="1090" on="1"/>
        <pt x="524" y="1083" on="1"/>
        <pt x="485" y="1081" on="1"/>
        <pt x="451" y="1077" on="0"/>
        <pt x="420" y="1077" on="1"/>
        <pt x="431" y="1050" on="0"/>
        <pt x="433" y="1017" on="1"/>
        <pt x="437" y="987" on="1"/>
        <pt x="436" y="899" on="1"/>
        <pt x="442" y="843" on="1"/>
        <pt x="441" y="836" on="0"/>
        <pt x="429" y="819" on="1"/>
        <pt x="412" y="814" on="1"/>
        <pt x="409" y="817" on="1"/>
        <pt x="401" y="797" on="0"/>
        <pt x="401" y="786" on="1"/>
        <pt x="401" y="781" on="0"/>
        <pt x="404" y="770" on="1"/>
        <pt x="412" y="774" on="1"/>
        <pt x="431" y="760" on="0"/>
        <pt x="435" y="751" on="1"/>
        <pt x="437" y="747" on="0"/>
        <pt x="437" y="719" on="1"/>
        <pt x="437" y="704" on="0"/>
        <pt x="418" y="690" on="1"/>
        <pt x="421" y="668" on="0"/>
        <pt x="435" y="628" on="1"/>
        <pt x="438" y="620" on="0"/>
        <pt x="438" y="597" on="1"/>
        <pt x="438" y="590" on="0"/>
        <pt x="438" y="578" on="1"/>
        <pt x="416" y="567" on="1"/>
        <pt x="414" y="555" on="0"/>
        <pt x="414" y="545" on="1"/>
        <pt x="414" y="526" on="0"/>
        <pt x="445" y="509" on="1"/>
        <pt x="436" y="494" on="0"/>
        <pt x="437" y="491" on="1"/>
        <pt x="446" y="446" on="1"/>
        <pt x="448" y="407" on="1"/>
        <pt x="452" y="383" on="1"/>
        <pt x="448" y="353" on="1"/>
        <pt x="449" y="316" on="1"/>
        <pt x="444" y="294" on="1"/>
        <pt x="441" y="230" on="0"/>
        <pt x="441" y="230" on="1"/>
        <pt x="440" y="205" on="0"/>
        <pt x="440" y="204" on="1"/>
        <pt x="440" y="196" on="0"/>
        <pt x="445" y="181" on="1"/>
        <pt x="408" y="159" on="1"/>
        <pt x="408" y="141" on="0"/>
        <pt x="419" y="116" on="1"/>
        <pt x="425" y="116" on="1"/>
        <pt x="437" y="125" on="0"/>
        <pt x="442" y="125" on="1"/>
        <pt x="450" y="125" on="0"/>
        <pt x="463" y="113" on="1"/>
        <pt x="450" y="77" on="0"/>
        <pt x="450" y="65" on="1"/>
        <pt x="450" y="61" on="0"/>
        <pt x="459" y="33" on="1"/>
        <pt x="460" y="-38" on="1"/>
        <pt x="466" y="-121" on="1"/>
        <pt x="466" y="-161" on="0"/>
        <pt x="413" y="-202" on="1"/>
        <pt x="413" y="-230" on="0"/>
        <pt x="420" y="-242" on="1"/>
        <pt x="422" y="-247" on="0"/>
        <pt x="435" y="-253" on="1"/>
        <pt x="442" y="-256" on="0"/>
        <pt x="459" y="-269" on="1"/>
        <pt x="498" y="-234" on="1"/>
        <pt x="542" y="-234" on="1"/>
        <pt x="620" y="-219" on="1"/>
        <pt x="655" y="-222" on="1"/>
        <pt x="707" y="-222" on="0"/>
        <pt x="712" y="-223" on="0"/>
        <pt x="745" y="-240" on="1"/>
        <pt x="747" y="-241" on="0"/>
        <pt x="752" y="-241" on="1"/>
        <pt x="768" y="-241" on="0"/>
        <pt x="792" y="-222" on="1"/>
        <pt x="795" y="-221" on="1"/>
        <pt x="798" y="-219" on="1"/>
        <pt x="825" y="-258" on="1"/>
        <pt x="863" y="-226" on="1"/>
        <pt x="871" y="-214" on="0"/>
        <pt x="877" y="-213" on="1"/>
        <pt x="877" y="-213" on="0"/>
        <pt x="882" y="-213" on="1"/>
        <pt x="995" y="-221" on="1"/>
        <pt x="1033" y="-222" on="1"/>
        <pt x="1059" y="-222" on="0"/>
        <pt x="1068" y="-222" on="1"/>
        <pt x="1081" y="-223" on="0"/>
        <pt x="1082" y="-223" on="1"/>
        <pt x="1085" y="-223" on="0"/>
        <pt x="1116" y="-217" on="1"/>
        <pt x="1118" y="-216" on="0"/>
        <pt x="1124" y="-216" on="1"/>
        <pt x="1129" y="-216" on="0"/>
        <pt x="1135" y="-217" on="1"/>
        <pt x="1195" y="-222" on="0"/>
        <pt x="1198" y="-222" on="1"/>
        <pt x="1199" y="-222" on="0"/>
        <pt x="1238" y="-217" on="1"/>
        <pt x="1254" y="-217" on="1"/>
        <pt x="1433" y="-214" on="1"/>
        <pt x="1447" y="-215" on="1"/>
        <pt x="1447" y="-215" on="1"/>
        <pt x="1448" y="-216" on="0"/>
        <pt x="1459" y="-213" on="1"/>
        <pt x="1465" y="-212" on="0"/>
        <pt x="1469" y="-212" on="1"/>
        <pt x="1471" y="-212" on="0"/>
        <pt x="1498" y="-219" on="1"/>
        <pt x="1503" y="-220" on="0"/>
        <pt x="1528" y="-220" on="1"/>
        <pt x="1540" y="-255" on="1"/>
        <pt x="1569" y="-260" on="1"/>
        <pt x="1569" y="-226" on="1"/>
        <pt x="1571" y="-223" on="1"/>
        <pt x="1581" y="-218" on="1"/>
        <pt x="1610" y="-267" on="0"/>
        <pt x="1614" y="-267" on="1"/>
        <pt x="1617" y="-267" on="0"/>
        <pt x="1671" y="-223" on="1"/>
        <pt x="1683" y="-213" on="0"/>
        <pt x="1696" y="-213" on="1"/>
        <pt x="1707" y="-213" on="0"/>
        <pt x="1723" y="-228" on="1"/>
        <pt x="1746" y="-222" on="0"/>
        <pt x="1755" y="-222" on="1"/>
        <pt x="1772" y="-219" on="0"/>
        <pt x="1780" y="-214" on="1"/>
        <pt x="1782" y="-200" on="0"/>
        <pt x="1789" y="-196" on="1"/>
        <pt x="1802" y="-189" on="0"/>
        <pt x="1814" y="-186" on="1"/>
        <pt x="1837" y="-185" on="0"/>
        <pt x="1855" y="-185" on="1"/>
        <pt x="1943" y="-166" on="0"/>
        <pt x="1957" y="-162" on="1"/>
        <pt x="1980" y="-148" on="0"/>
        <pt x="1987" y="-148" on="1"/>
        <pt x="2003" y="-148" on="0"/>
        <pt x="2003" y="-171" on="1"/>
        <pt x="2003" y="-179" on="0"/>
        <pt x="1994" y="-198" on="1"/>
        <pt x="1985" y="-216" on="0"/>
        <pt x="1980" y="-234" on="1"/>
        <pt x="1964" y="-242" on="0"/>
        <pt x="1963" y="-247" on="1"/>
        <pt x="1956" y="-268" on="1"/>
        <pt x="1930" y="-301" on="0"/>
        <pt x="1853" y="-300" on="1"/>
        <pt x="1821" y="-306" on="1"/>
        <pt x="1767" y="-259" on="1"/>
        <pt x="1696" y="-313" on="1"/>
        <pt x="1656" y="-305" on="1"/>
        <pt x="1604" y="-303" on="1"/>
        <pt x="1568" y="-297" on="1"/>
        <pt x="1521" y="-297" on="1"/>
        <pt x="1466" y="-292" on="1"/>
        <pt x="1464" y="-292" on="0"/>
        <pt x="1452" y="-295" on="1"/>
        <pt x="1438" y="-285" on="1"/>
        <pt x="1412" y="-300" on="0"/>
        <pt x="1397" y="-300" on="1"/>
        <pt x="1392" y="-300" on="0"/>
        <pt x="1326" y="-288" on="1"/>
        <pt x="1313" y="-286" on="0"/>
        <pt x="1263" y="-286" on="1"/>
        <pt x="1233" y="-286" on="0"/>
        <pt x="1214" y="-288" on="1"/>
        <pt x="1185" y="-292" on="0"/>
        <pt x="1175" y="-292" on="1"/>
        <pt x="1174" y="-292" on="0"/>
        <pt x="1088" y="-278" on="1"/>
        <pt x="1071" y="-280" on="0"/>
        <pt x="1070" y="-280" on="1"/>
        <pt x="1062" y="-280" on="0"/>
        <pt x="1051" y="-278" on="1"/>
        <pt x="1035" y="-295" on="1"/>
        <pt x="1013" y="-291" on="0"/>
        <pt x="1010" y="-291" on="1"/>
        <pt x="905" y="-293" on="1"/>
        <pt x="863" y="-293" on="1"/>
        <pt x="803" y="-297" on="1"/>
        <pt x="798" y="-297" on="0"/>
        <pt x="781" y="-292" on="1"/>
        <pt x="788" y="-275" on="1"/>
        <pt x="763" y="-275" on="0"/>
        <pt x="737" y="-283" on="1"/>
        <pt x="734" y="-310" on="1"/>
        <pt x="716" y="-310" on="1"/>
        <pt x="712" y="-310" on="1"/>
        <pt x="710" y="-311" on="1"/>
        <pt x="708" y="-311" on="0"/>
        <pt x="708" y="-311" on="1"/>
        <pt x="706" y="-311" on="0"/>
        <pt x="704" y="-310" on="1"/>
        <pt x="682" y="-300" on="0"/>
        <pt x="660" y="-300" on="1"/>
        <pt x="642" y="-300" on="0"/>
        <pt x="634" y="-303" on="1"/>
        <pt x="632" y="-304" on="0"/>
        <pt x="632" y="-304" on="1"/>
        <pt x="630" y="-304" on="0"/>
        <pt x="601" y="-269" on="1"/>
        <pt x="592" y="-258" on="0"/>
        <pt x="582" y="-258" on="1"/>
        <pt x="574" y="-258" on="0"/>
        <pt x="510" y="-298" on="1"/>
        <pt x="495" y="-308" on="0"/>
        <pt x="476" y="-308" on="1"/>
        <pt x="469" y="-308" on="0"/>
        <pt x="429" y="-298" on="1"/>
        <pt x="426" y="-297" on="0"/>
        <pt x="419" y="-297" on="1"/>
        <pt x="413" y="-297" on="0"/>
        <pt x="355" y="-306" on="1"/>
        <pt x="302" y="-308" on="1"/>
        <pt x="232" y="-324" on="0"/>
        <pt x="226" y="-324" on="1"/>
        <pt x="216" y="-324" on="0"/>
        <pt x="193" y="-318" on="1"/>
        <pt x="192" y="-308" on="0"/>
        <pt x="192" y="-301" on="1"/>
        <pt x="192" y="-290" on="0"/>
        <pt x="200" y="-272" on="1"/>
        <pt x="205" y="-273" on="0"/>
        <pt x="207" y="-273" on="1"/>
        <pt x="219" y="-273" on="0"/>
        <pt x="229" y="-263" on="1"/>
        <pt x="237" y="-254" on="0"/>
        <pt x="266" y="-192" on="1"/>
        <pt x="265" y="-136" on="1"/>
        <pt x="265" y="-135" on="0"/>
        <pt x="268" y="-132" on="1"/>
        <pt x="282" y="-113" on="0"/>
        <pt x="282" y="-112" on="1"/>
        <pt x="276" y="-93" on="0"/>
        <pt x="276" y="-89" on="1"/>
        <pt x="276" y="-85" on="0"/>
        <pt x="277" y="-80" on="1"/>
        <pt x="282" y="-21" on="0"/>
        <pt x="282" y="58" on="1"/>
        <pt x="283" y="83" on="0"/>
        <pt x="295" y="130" on="1"/>
        <pt x="298" y="138" on="0"/>
        <pt x="311" y="147" on="1"/>
        <pt x="320" y="152" on="0"/>
        <pt x="320" y="165" on="1"/>
        <pt x="322" y="187" on="0"/>
        <pt x="325" y="197" on="1"/>
        <pt x="312" y="172" on="1"/>
        <pt x="304" y="172" on="1"/>
        <pt x="300" y="186" on="0"/>
        <pt x="289" y="201" on="1"/>
        <pt x="289" y="217" on="0"/>
        <pt x="289" y="226" on="1"/>
        <pt x="288" y="269" on="1"/>
        <pt x="288" y="270" on="1"/>
        <pt x="310" y="299" on="1"/>
        <pt x="327" y="353" on="1"/>
        <pt x="330" y="360" on="0"/>
        <pt x="370" y="378" on="1"/>
        <pt x="375" y="380" on="0"/>
        <pt x="375" y="380" on="1"/>
        <pt x="374" y="388" on="0"/>
        <pt x="297" y="407" on="1"/>
        <pt x="330" y="422" on="1"/>
        <pt x="330" y="435" on="1"/>
        <pt x="309" y="445" on="1"/>
        <pt x="304" y="463" on="0"/>
        <pt x="291" y="473" on="1"/>
        <pt x="291" y="497" on="0"/>
        <pt x="296" y="521" on="1"/>
        <pt x="284" y="611" on="1"/>
        <pt x="364" y="670" on="1"/>
        <pt x="284" y="773" on="1"/>
        <pt x="345" y="799" on="1"/>
        <pt x="282" y="823" on="1"/>
        <pt x="306" y="836" on="1"/>
        <pt x="306" y="864" on="0"/>
        <pt x="313" y="890" on="1"/>
        <pt x="302" y="896" on="0"/>
        <pt x="291" y="907" on="1"/>
        <pt x="285" y="914" on="0"/>
        <pt x="279" y="917" on="1"/>
        <pt x="275" y="950" on="0"/>
        <pt x="275" y="960" on="1"/>
        <pt x="273" y="1000" on="0"/>
        <pt x="272" y="1005" on="1"/>
        <pt x="271" y="1012" on="0"/>
        <pt x="271" y="1016" on="1"/>
        <pt x="271" y="1027" on="0"/>
        <pt x="286" y="1044" on="1"/>
        <pt x="281" y="1055" on="0"/>
        <pt x="271" y="1055" on="1"/>
        <pt x="268" y="1055" on="0"/>
        <pt x="263" y="1054" on="1"/>
        <pt x="260" y="1072" on="0"/>
        <pt x="260" y="1086" on="1"/>
        <pt x="260" y="1102" on="0"/>
        <pt x="277" y="1120" on="1"/>
        <pt x="254" y="1140" on="0"/>
        <pt x="254" y="1159" on="1"/>
        <pt x="254" y="1283" on="1"/>
        <pt x="254" y="1306" on="0"/>
        <pt x="248" y="1361" on="1"/>
        <pt x="242" y="1417" on="0"/>
        <pt x="241" y="1420" on="1"/>
        <pt x="239" y="1422" on="0"/>
        <pt x="227" y="1430" on="1"/>
        <pt x="227" y="1476" on="1"/>
        <pt x="193" y="1472" on="1"/>
        <pt x="193" y="1477" on="1"/>
        <pt x="188" y="1480" on="1"/>
        <pt x="174" y="1480" on="0"/>
        <pt x="170" y="1480" on="1"/>
        <pt x="156" y="1480" on="0"/>
      </contour>
      <contour>
        <pt x="608" y="1870" on="1"/>
        <pt x="608" y="1884" on="1"/>
        <pt x="623" y="1898" on="0"/>
        <pt x="629" y="1902" on="1"/>
        <pt x="665" y="1929" on="0"/>
        <pt x="666" y="1931" on="1"/>
        <pt x="697" y="1969" on="1"/>
        <pt x="700" y="1972" on="0"/>
        <pt x="706" y="1972" on="1"/>
        <pt x="709" y="1972" on="0"/>
        <pt x="739" y="1955" on="1"/>
        <pt x="805" y="1922" on="0"/>
        <pt x="815" y="1915" on="1"/>
        <pt x="827" y="1904" on="0"/>
        <pt x="839" y="1874" on="1"/>
        <pt x="826" y="1856" on="0"/>
        <pt x="824" y="1850" on="1"/>
        <pt x="815" y="1830" on="0"/>
        <pt x="815" y="1829" on="1"/>
        <pt x="812" y="1825" on="0"/>
        <pt x="797" y="1815" on="1"/>
        <pt x="781" y="1802" on="0"/>
        <pt x="756" y="1772" on="1"/>
        <pt x="736" y="1778" on="0"/>
        <pt x="732" y="1782" on="1"/>
        <pt x="703" y="1810" on="1"/>
        <pt x="671" y="1834" on="1"/>
        <pt x="645" y="1862" on="0"/>
        <pt x="638" y="1864" on="1"/>
        <pt x="629" y="1867" on="0"/>
        <pt x="612" y="1867" on="1"/>
      </contour>
      <contour>
        <pt x="1041" y="1883" on="1"/>
        <pt x="1041" y="1889" on="1"/>
        <pt x="1055" y="1903" on="0"/>
        <pt x="1108" y="1940" on="1"/>
        <pt x="1123" y="1959" on="0"/>
        <pt x="1144" y="1971" on="1"/>
        <pt x="1156" y="1964" on="0"/>
        <pt x="1178" y="1949" on="1"/>
        <pt x="1195" y="1938" on="0"/>
        <pt x="1220" y="1925" on="1"/>
        <pt x="1239" y="1916" on="0"/>
        <pt x="1255" y="1893" on="1"/>
        <pt x="1261" y="1885" on="0"/>
        <pt x="1261" y="1881" on="1"/>
        <pt x="1261" y="1869" on="0"/>
        <pt x="1236" y="1831" on="1"/>
        <pt x="1222" y="1809" on="0"/>
        <pt x="1165" y="1778" on="1"/>
        <pt x="1129" y="1816" on="0"/>
        <pt x="1116" y="1827" on="1"/>
        <pt x="1099" y="1842" on="0"/>
        <pt x="1078" y="1867" on="1"/>
        <pt x="1070" y="1876" on="0"/>
      </contour>
    </TTGlyph>
    <TTGlyph name="Egrave" xMin="143" yMin="-324" xMax="2003" yMax="2040">
      <component glyphName="E" x="0" y="0" flags="0x4"/>
      <component glyphName=".notdef#7" x="451" y="0" flags="0x4"/>
    </TTGlyph>
</ttFont>
